<svg width="16" height="16" viewBox="0 0 16 16" fill="none" xmlns="http://www.w3.org/2000/svg">
<g clip-path="url(#clip0_839_1786)">
<path d="M15.9627 8.446L13.942 2.67267C13.662 1.87133 12.9027 1.33267 12.054 1.33267H8.66667V0.666667C8.66667 0.298667 8.36867 0 8 0C7.63133 0 7.33333 0.298667 7.33333 0.666667V1.33333H3.946C3.09733 1.33333 2.338 1.872 2.058 2.67267L0.0373333 8.446C0.0126667 8.51667 0 8.86733 0 8.86733C0 10.538 1.24733 11.912 2.84 11.9953C3.66733 12.0413 4.46267 11.748 5.06533 11.176C5.66 10.612 6 9.81867 6 9C6 9 5.986 8.512 5.95933 8.43867L3.86267 2.672C3.89 2.66867 3.918 2.66667 3.946 2.66667H7.33333V14.6667H3.33333C2.96467 14.6667 2.66667 14.9653 2.66667 15.3333C2.66667 15.7013 2.96467 16 3.33333 16H12.6667C13.0353 16 13.3333 15.7013 13.3333 15.3333C13.3333 14.9653 13.0353 14.6667 12.6667 14.6667H8.66667V2.66667H12.054C12.082 2.66667 12.11 2.668 12.1373 2.672L10.04 8.43867C10.0133 8.51133 9.99933 9 9.99933 9C9.99933 9.81933 10.34 10.612 10.934 11.176C11.4973 11.7107 12.1527 11.9953 13.16 11.9953C14.754 11.9953 15.9993 10.538 15.9993 8.86733C15.9993 8.86733 15.9873 8.51667 15.9627 8.446ZM2.90933 10.6647C2.18867 10.6267 1.58533 10.0633 1.39867 9.33333H4.63333C4.56667 9.666 4.4 9.96933 4.14733 10.2087C3.81267 10.5267 3.37133 10.688 2.91 10.664L2.90933 10.6647ZM4.38133 8H1.606L2.96733 4.11133L4.38133 8ZM13.0327 4.11133L14.394 8H11.6187L13.0327 4.11133ZM13.0913 10.6647C12.6327 10.6887 12.1887 10.5273 11.8533 10.2093C11.6007 9.96933 11.434 9.666 11.3673 9.334H14.602C14.4153 10.0633 13.8127 10.6273 13.092 10.6653L13.0913 10.6647Z" fill="black"/>
</g>
<defs>
<clipPath id="clip0_839_1786">
<rect width="16" height="16" fill="white"/>
</clipPath>
</defs>
</svg>
