<svg width="16" height="16" viewBox="0 0 16 16" fill="none" xmlns="http://www.w3.org/2000/svg">
<path d="M12.382 1.41733L8.22604 0.0393333C8.20471 0.032 8.10804 0 8.00004 0C7.89204 0 7.79537 0.0313333 7.77404 0.0393333L3.61804 1.41733C2.25137 1.87067 1.33337 3.142 1.33337 4.58133V8.02867C1.33337 12.404 6.00337 15.08 7.43471 15.7953L7.70271 15.9293C7.79671 15.976 7.89871 15.9993 8.00071 15.9993C8.08471 15.9993 8.16937 15.9833 8.24937 15.9513L8.52804 15.8393C9.96804 15.26 14.666 12.9853 14.666 8.028V4.58067C14.666 3.14133 13.748 1.87 12.3814 1.41667L12.382 1.41733ZM2.66671 8.02867V4.58133C2.66671 3.718 3.21737 2.95533 4.03737 2.68267L7.33337 1.59V14.2273C5.67804 13.2767 2.66671 11.1213 2.66671 8.02867ZM13.3334 8.02867C13.3334 11.5973 10.29 13.54 8.66671 14.322V1.59L11.9627 2.68267C12.782 2.95467 13.3334 3.718 13.3334 4.58133V8.02867Z" fill="black"/>
</svg>
