<svg width="16" height="16" viewBox="0 0 16 16" fill="none" xmlns="http://www.w3.org/2000/svg">
<g clip-path="url(#clip0_839_1933)">
<path d="M16 8.66667C16 9.31333 15.5327 10 14.6667 10H14.4467L14.3007 11.1033C14.0827 12.7547 12.662 14 10.996 14H10.6667C10.6667 15.1027 9.76933 16 8.66667 16H4C2.89733 16 2 15.1027 2 14V13.3527C2 12.7553 1.82467 12.1987 1.50667 11.7827C0.68 10.702 0.170667 9.41667 0.036 8.066C-0.000666666 7.7 0.266667 7.37267 0.633333 7.33667C1.00467 7.29933 1.32667 7.568 1.36267 7.934C1.47267 9.038 1.88867 10.0887 2.56533 10.972C3.06067 11.6193 3.33267 12.4647 3.33267 13.3527V14C3.33267 14.368 3.632 14.6667 3.99933 14.6667H8.666C9.03333 14.6667 9.33267 14.368 9.33267 14V13.3333C9.33267 12.9647 9.63133 12.6667 9.99933 12.6667H10.9953C11.9947 12.6667 12.8473 11.92 12.978 10.9293L13.2007 9.24667C13.244 8.91533 13.5273 8.66733 13.8613 8.66733H14.666C14.6113 8.12933 13.0273 4.85267 12.148 3.76533C10.9847 2.21267 9.23533 1.334 7.33267 1.334C6.96467 1.334 6.666 1.03533 6.666 0.667333C6.666 0.299333 6.96467 0.000666667 7.33267 0.000666667C9.65933 0.000666667 11.7973 1.074 13.1993 2.946C14.0447 3.99 15.9993 7.72 15.9993 8.66733L16 8.66667ZM1 2C1.552 2 2 1.552 2 1C2 0.448 1.552 0 1 0C0.448 0 0 0.448 0 1C0 1.552 0.448 2 1 2ZM4.33333 3.33333C4.88533 3.33333 5.33333 2.88533 5.33333 2.33333C5.33333 1.78133 4.88533 1.33333 4.33333 1.33333C3.78133 1.33333 3.33333 1.78133 3.33333 2.33333C3.33333 2.88533 3.78133 3.33333 4.33333 3.33333ZM0.666667 4.33333C0.666667 4.88533 1.11467 5.33333 1.66667 5.33333C2.21867 5.33333 2.66667 4.88533 2.66667 4.33333C2.66667 3.78133 2.21867 3.33333 1.66667 3.33333C1.11467 3.33333 0.666667 3.78133 0.666667 4.33333ZM4.66667 9.33333C4.9 9.33333 5.122 9.28333 5.33333 9.208V12.6667C5.33333 13.0353 5.632 13.3333 6 13.3333C6.368 13.3333 6.66667 13.0353 6.66667 12.6667V8.646C7.16 8.578 7.60733 8.35 7.962 8H9.33333C10.436 8 11.3333 7.10267 11.3333 6C11.3333 5.18867 10.8547 4.47867 10.12 4.16667C9.642 3.59733 8.92533 3.27667 8.15933 3.34067C7.786 2.916 7.24867 2.66667 6.66667 2.66667C6.29867 2.66667 6 2.96533 6 3.33333C6 3.70133 6.29867 4 6.66667 4C6.918 4 7.14533 4.14333 7.26 4.374C7.40467 4.66533 7.738 4.81 8.04867 4.71667C8.16067 4.68267 8.25133 4.66733 8.33333 4.66733C8.66267 4.66733 8.97133 4.83067 9.15933 5.10467C9.246 5.23067 9.37333 5.324 9.52067 5.36733C9.808 5.452 10.0007 5.70667 10.0007 6.00133C10.0007 6.36867 9.70133 6.668 9.334 6.668H7.662C7.45267 6.668 7.25467 6.76667 7.12867 6.934C6.93733 7.18867 6.648 7.33467 6.334 7.33467C6.252 7.33467 6.16133 7.31933 6.04933 7.28533C5.73867 7.19333 5.40533 7.33667 5.26067 7.628C5.14667 7.85867 4.91933 8.002 4.66733 8.002C4.3 8.002 4.00067 7.70267 4.00067 7.33533C4.00067 6.968 4.3 6.66867 4.66733 6.66867C5.03467 6.66867 5.334 6.37 5.334 6.002C5.334 5.634 5.03533 5.33533 4.66733 5.33533C3.56467 5.33533 2.66733 6.23267 2.66733 7.33533C2.66733 8.438 3.56467 9.33533 4.66733 9.33533L4.66667 9.33333Z" fill="black"/>
</g>
<defs>
<clipPath id="clip0_839_1933">
<rect width="16" height="16" fill="white"/>
</clipPath>
</defs>
</svg>
