<svg width="17" height="17" viewBox="0 0 17 17" fill="none" xmlns="http://www.w3.org/2000/svg">
<path fill-rule="evenodd" clip-rule="evenodd" d="M15.6552 5.62287C16.1295 5.08763 16.4169 4.38637 16.4169 3.61869C16.4169 1.93875 15.0404 0.576892 13.3424 0.576892C12.5813 0.576892 11.8847 0.850527 11.3478 1.30379C12.0314 1.7086 12.55 2.33886 12.8116 3.0848C12.8798 3.27951 12.9294 3.47875 12.9604 3.68C13.1026 3.79337 13.2361 3.91853 13.3593 4.05467C13.4966 4.20639 13.6189 4.36918 13.7251 4.54075C13.8856 4.57009 14.0447 4.61101 14.2009 4.66355C14.7656 4.85346 15.2659 5.1858 15.6552 5.62287ZM16.0079 6.0967C16.0197 6.11598 16.0314 6.1354 16.0429 6.15495C16.4549 6.85573 16.5968 7.68028 16.4424 8.47645C16.288 9.27263 15.8478 9.98669 15.2029 10.4869C14.735 10.8523 14.1766 11.087 13.5859 11.1665L11.6325 15.7863C11.5293 16.0328 11.3777 16.2566 11.1864 16.4447C10.9952 16.6327 10.7681 16.7814 10.5183 16.8819C10.1255 17.0409 9.685 17.0393 9.29346 16.8773C8.90193 16.7153 8.59136 16.4062 8.42995 16.0179C8.32694 15.7713 8.27435 15.507 8.27524 15.2402C8.27612 14.9734 8.33045 14.7094 8.43509 14.4635L8.60105 14.0708C8.69436 13.8522 8.871 13.6787 9.09269 13.5881L9.75687 13.3185L9.58506 12.9042C9.49393 12.6844 9.49477 12.4378 9.5874 12.2186C9.68003 11.9995 9.85686 11.8257 10.079 11.7356L10.4978 11.5656L10.2253 10.9085C10.1798 10.7997 10.1567 10.6831 10.1571 10.5655C10.1575 10.4478 10.1815 10.3314 10.2277 10.223L10.3883 9.8432C10.3283 9.76434 10.2721 9.68305 10.2198 9.59961C10.0082 9.56076 9.80005 9.50159 9.59835 9.42241L5.60512 12.4996C5.39296 12.6643 5.14986 12.7857 4.88992 12.8567C4.62998 12.9278 4.35837 12.947 4.09085 12.9134C3.66974 12.8613 3.28673 12.646 3.02591 12.3148C2.76508 11.9836 2.64776 11.5635 2.69969 11.1468C2.73223 10.8819 2.81751 10.6261 2.9506 10.394C3.0837 10.1619 3.26196 9.95827 3.4751 9.7948L3.81444 9.53323C4.00418 9.38801 4.24412 9.32263 4.48224 9.35127L5.19468 9.43878L5.25045 8.99436C5.28004 8.75862 5.40306 8.54417 5.59246 8.39818C5.78187 8.25218 6.02213 8.18661 6.2604 8.21588L6.7096 8.27106L6.79806 7.5662C6.8124 7.4494 6.85001 7.33657 6.90874 7.23425C6.96746 7.13193 7.04612 7.04216 7.14016 6.97013L7.4194 6.75488C7.36048 6.70535 7.3032 6.6537 7.24769 6.6L2.36329 7.91353C2.10331 7.98444 1.83169 8.00356 1.56419 7.96979C1.29669 7.93603 1.03862 7.85005 0.804971 7.71684C0.43683 7.50795 0.167513 7.16307 0.0561456 6.75791C-0.0552223 6.35275 0.000460462 5.92043 0.21097 5.55585C0.344332 5.32394 0.522835 5.12049 0.736161 4.95725C0.949486 4.79401 1.1934 4.67423 1.4538 4.60483L1.86891 4.49314C2.10059 4.43165 2.34744 4.46298 2.55594 4.58035L3.17899 4.93318L3.40386 4.54451C3.52313 4.33835 3.7203 4.18751 3.95198 4.12517C4.18367 4.06283 4.4309 4.09411 4.63928 4.21211L5.03212 4.43458L5.38876 3.81815C5.44756 3.71588 5.52628 3.62616 5.62038 3.5542C5.71447 3.48224 5.82206 3.42947 5.93692 3.39894L6.33843 3.29091C6.49412 2.72164 6.80187 2.20434 7.22936 1.79333C7.7144 1.32393 8.33002 1.00845 8.99738 0.887292C9.59573 0.778669 10.2112 0.83069 10.7804 1.03609C11.4403 0.395237 12.3447 0 13.3424 0C15.3624 0 17 1.62014 17 3.61869C17 4.57749 16.6231 5.4492 16.0079 6.0967ZM14.9688 6.20052C14.7991 6.01266 14.6004 5.85078 14.3791 5.72138C13.9801 5.48811 13.5232 5.36966 13.0599 5.37936C12.5966 5.38906 12.1451 5.52652 11.7565 5.77627C11.3678 6.02603 11.0573 6.37815 10.86 6.79302C10.6626 7.20788 10.5862 7.66901 10.6394 8.1245C10.6949 8.62644 10.9078 9.0986 11.2483 9.47476C11.3045 9.53783 11.3417 9.6153 11.3555 9.69829C11.3693 9.78128 11.3593 9.86645 11.3264 9.94404L11.0628 10.5685L11.3353 11.2256C11.4265 11.4454 11.4256 11.692 11.333 11.9111C11.2404 12.1303 11.0635 12.304 10.8414 12.3942L10.4226 12.5642L10.5944 12.9785C10.6856 13.1983 10.6847 13.4449 10.5921 13.664C10.4995 13.8832 10.3226 14.057 10.1005 14.1471L9.43631 14.4167L9.27035 14.8094C9.21189 14.9468 9.18153 15.0943 9.18104 15.2434C9.18055 15.3925 9.20994 15.5402 9.2675 15.678C9.33756 15.8466 9.47238 15.9808 9.64237 16.0512C9.81237 16.1216 10.0036 16.1224 10.1742 16.0534C10.3139 15.9971 10.4409 15.914 10.5478 15.8089C10.6548 15.7037 10.7396 15.5786 10.7974 15.4408L12.8551 10.5734C12.8879 10.4957 12.9422 10.4288 13.0118 10.3803C13.0813 10.3318 13.1633 10.3036 13.2482 10.2991C13.5262 10.2851 13.7997 10.2248 14.0574 10.1207L14.0553 10.1216C14.4842 9.94794 14.8556 9.65931 15.1278 9.28816C15.3999 8.91701 15.5619 8.47808 15.5956 8.02077C15.6292 7.56346 15.5332 7.10594 15.3183 6.69971C15.3136 6.6909 15.3089 6.68213 15.3041 6.67339C14.8775 6.94214 14.3908 7.12581 13.8684 7.20024C13.8184 7.28046 13.7439 7.34362 13.6547 7.37982C13.5718 7.41344 13.4808 7.422 13.3931 7.40443C13.3053 7.38686 13.2248 7.34394 13.1617 7.2811C13.0986 7.21825 13.0558 7.13831 13.0386 7.05138C13.0214 6.96446 13.0307 6.87444 13.0653 6.79273C13.0998 6.71101 13.1581 6.64126 13.2327 6.5923C13.3073 6.54334 13.3949 6.51737 13.4844 6.51767C13.5739 6.51797 13.6613 6.54452 13.7356 6.59398C13.752 6.60488 13.7675 6.61678 13.7822 6.62959C14.213 6.56854 14.615 6.41913 14.9688 6.20052ZM7.27167 5.66516C7.34629 5.64511 7.42473 5.64433 7.49952 5.66272C7.54397 5.43462 7.61295 5.21086 7.70591 4.99536C7.97019 4.37708 8.41499 3.85093 8.98334 3.48428C9.5517 3.11762 10.2177 2.92716 10.8962 2.93729C11.0147 2.93963 11.133 2.94799 11.2506 2.96233C11.45 2.98695 11.6456 3.02887 11.8353 3.08703C11.7542 2.92648 11.6552 2.77445 11.5397 2.63392C11.2473 2.27819 10.8603 2.01027 10.4224 1.86032C9.98442 1.71037 9.51285 1.68434 9.06075 1.78517C8.60864 1.88599 8.19396 2.10967 7.86338 2.43103C7.49718 2.78273 7.25144 3.23901 7.16062 3.73588C7.14489 3.81854 7.10595 3.89515 7.04825 3.95693C6.99056 4.01871 6.91644 4.06316 6.83439 4.0852L6.17445 4.26309L5.81782 4.87952C5.69855 5.08568 5.50138 5.23653 5.26969 5.29886C5.03801 5.3612 4.79078 5.32993 4.5824 5.21192L4.18955 4.98945L3.96469 5.37812C3.84542 5.58428 3.64825 5.73512 3.41656 5.79746C3.18488 5.8598 2.93765 5.82852 2.72927 5.71052L2.10621 5.35768L1.69111 5.46937C1.54561 5.50815 1.40932 5.57509 1.29012 5.6663C1.17092 5.75752 1.07118 5.87121 0.996667 6.00079C0.905226 6.15908 0.880997 6.3468 0.929299 6.52275C0.9776 6.6987 1.09449 6.8485 1.2543 6.93928C1.38499 7.01371 1.5293 7.06176 1.67888 7.08066C1.82846 7.09956 1.98035 7.08893 2.12575 7.04938L7.27167 5.66516ZM9.7892 8.52894C9.76859 8.42956 9.75259 8.32902 9.74133 8.22764C9.66498 7.56062 9.79161 6.88623 10.105 6.29084C10.4184 5.69545 10.9043 5.20617 11.5005 4.88565C11.6049 4.83016 11.7121 4.78001 11.8217 4.73539C12.0634 4.6375 12.3138 4.56821 12.568 4.52767C12.4027 4.36904 12.2151 4.23311 12.0101 4.1245C11.6016 3.90802 11.1401 3.80867 10.6776 3.83761C10.215 3.86656 9.76985 4.02266 9.39214 4.28835C9.01443 4.55403 8.71917 4.91875 8.53961 5.34146C8.33903 5.80576 8.29037 6.32053 8.40047 6.81357C8.41821 6.89583 8.41218 6.98137 8.38306 7.0604C8.35395 7.13943 8.30292 7.20874 8.23583 7.26041L7.69647 7.67657L7.60801 8.38142C7.57842 8.61716 7.4554 8.83161 7.26599 8.9776C7.07659 9.1236 6.83633 9.18917 6.59806 9.1599L6.14885 9.10472L6.09308 9.54914C6.0635 9.78488 5.94047 9.99933 5.75107 10.1453C5.56166 10.2913 5.3214 10.3569 5.08313 10.3276L4.3707 10.2401L4.03135 10.5017C3.91226 10.593 3.81265 10.7068 3.73829 10.8365C3.66392 10.9662 3.61627 11.1091 3.5981 11.2571C3.57551 11.4381 3.62641 11.6205 3.73962 11.7644C3.85283 11.9082 4.0191 12.0018 4.20195 12.0245C4.35155 12.0432 4.50343 12.0324 4.64879 11.9927C4.79415 11.953 4.93011 11.8852 5.04881 11.7932L9.25571 8.55088C9.32284 8.49916 9.40335 8.46721 9.488 8.45869C9.57265 8.45018 9.65801 8.46544 9.7343 8.50272C9.7525 8.51169 9.7708 8.52043 9.7892 8.52894Z" fill="#539943"/>
</svg>
