<svg width="412" height="512" viewBox="0 0 412 512" fill="none" xmlns="http://www.w3.org/2000/svg">
<path fill-rule="evenodd" clip-rule="evenodd" d="M298.828 179.873C295.171 188.035 285.058 190.319 277.486 185.519C270.06 180.811 267.911 171.051 271.18 162.91C272.459 159.727 273.58 156.44 274.531 153.057C277.572 142.247 278.632 131.337 277.929 120.729C236.038 128.115 204.18 165.271 204.18 209.996C204.18 248.784 228.155 281.951 261.954 294.856L263.132 295.306C273.992 299.452 281.185 310.014 281.185 321.813V324.663V346.841C281.185 347.547 281.121 348.237 281 348.907V402.022C281.122 402.8 281.185 403.598 281.185 404.411V408.186C281.185 408.999 281.122 409.797 281 410.575V464.119C281.121 464.803 281.185 465.508 281.185 466.228C281.185 474.828 288.038 481.8 296.493 481.8C304.947 481.8 311.801 474.828 311.801 466.228V346.841V324.663V319.185C311.801 307.984 318.292 297.836 328.359 293.299L329.279 292.884C360.575 278.779 382.311 246.936 382.311 209.996C382.311 165.785 351.182 128.971 310.004 120.996C310.638 134.48 309.152 148.297 305.299 161.997C303.553 168.204 301.382 174.17 298.828 179.873ZM251.496 324.663V341H251V465H251.558C251.517 465.404 251.496 465.813 251.496 466.228C251.496 491.507 271.642 512 296.493 512C321.344 512 341.49 491.507 341.49 466.228V324.663C341.49 322.168 342.821 319.828 345.027 318.739C384.669 299.17 412 257.83 412 209.996C412 147.177 364.864 95.5581 304.608 89.7397C292.57 50.0735 261.668 17.186 219.47 4.92576C153.093 -14.3594 83.9023 24.696 64.9275 92.1587C61.2043 105.396 59.6912 118.743 60.1656 131.794C60.2545 134.24 60.8281 136.664 62.0358 138.797C66.627 146.904 72.9329 151.073 81.3121 147.493C88.3508 144.486 92.2807 136.957 92.1118 129.198C91.9101 119.932 93.0568 110.478 95.695 101.098C109.812 50.9057 161.29 21.8484 210.675 36.1968C239.176 44.4775 260.751 65.4062 271.187 91.2741C216.141 101.792 174.491 150.946 174.491 209.996C174.491 261.234 205.851 305.022 250.112 322.582C250.951 322.915 251.496 323.747 251.496 324.663ZM131.604 175.681C124.931 170.512 115.288 171.924 111.3 179.43C93.2973 213.319 92.4515 253.962 108.416 288.389C108.8 289.217 108.633 290.203 108.014 290.868L95.5745 304.23C94.9969 304.851 94.4812 305.508 94.0271 306.194L93.82 306L18.6845 386.135C17.0412 387.665 14.9727 390.079 12.3249 393.657C-4.76248 412.012 -3.98685 440.983 14.0573 458.365C32.1016 475.747 60.5814 474.958 77.6688 456.603L173.358 353.814C175.044 352.002 177.592 351.234 179.93 351.987C186.249 354.02 192.699 355.501 199.207 356.431C206.76 357.511 213.285 351.628 214.103 343.915C215.037 335.105 208.195 327.519 199.629 325.916C195.011 325.051 190.443 323.813 185.972 322.198L185.024 321.856C174.647 318.109 163.075 320.937 155.504 329.07L151.801 333.048L136.81 349.152L56.112 435.837C50.2988 442.082 40.6098 442.35 34.471 436.437C28.3323 430.523 28.0684 420.667 33.8816 414.423C36.5048 411.605 38.3615 409.391 39.6135 407.636L39.6324 407.654L71.1163 374.075C71.8217 373.547 72.4909 372.949 73.1142 372.279L75.6659 369.538C76.2454 368.915 76.7627 368.256 77.2178 367.567L114.186 328.139C114.32 328.009 114.451 327.875 114.58 327.737L129.571 311.634L131.497 309.564C139.472 300.997 141.389 288.297 136.307 277.691L135.755 276.54C123.805 251.601 123.743 222.187 135.732 197.15C139.25 189.802 137.996 180.632 131.604 175.681Z" fill="black"/>
</svg>
