<svg width="412" height="512" viewBox="0 0 412 512" fill="none" xmlns="http://www.w3.org/2000/svg">
<path fill-rule="evenodd" clip-rule="evenodd" d="M298.828 179.873C295.171 188.035 285.058 190.319 277.486 185.519C270.06 180.811 267.911 171.051 271.18 162.91C272.459 159.727 273.58 156.44 274.531 153.057C277.572 142.247 278.632 131.337 277.929 120.729C236.038 128.115 204.18 165.271 204.18 209.996C204.18 248.784 228.155 281.951 261.954 294.856L263.132 295.306C273.992 299.452 281.185 310.014 281.185 321.813V324.663V346.841C281.185 353.096 276.2 358.167 270.051 358.167H266.34C258.142 358.167 251.496 351.406 251.496 343.066V324.663C251.496 323.747 250.951 322.915 250.112 322.582C205.851 305.022 174.491 261.234 174.491 209.996C174.491 150.946 216.141 101.792 271.187 91.2741C260.751 65.4062 239.176 44.4775 210.675 36.1967C161.29 21.8484 109.812 50.9057 95.695 101.098C93.0568 110.478 91.9101 119.932 92.1118 129.199C92.2807 136.957 88.3508 144.486 81.3121 147.493C72.9328 151.073 66.627 146.904 62.0358 138.797C60.8281 136.664 60.2545 134.24 60.1655 131.794C59.6912 118.743 61.2043 105.396 64.9275 92.1586C83.9023 24.696 153.093 -14.3595 219.47 4.92579C261.668 17.186 292.57 50.0735 304.608 89.7399C364.864 95.5582 412 147.178 412 209.996C412 257.829 384.669 299.17 345.027 318.739C342.821 319.828 341.49 322.168 341.49 324.663V466.227C341.49 491.507 321.344 512 296.493 512C271.642 512 251.496 491.507 251.496 466.227C251.496 459.712 256.688 454.43 263.093 454.43H269.588C275.993 454.43 281.185 459.712 281.185 466.227C281.185 474.828 288.038 481.8 296.493 481.8C304.947 481.8 311.801 474.828 311.801 466.227V346.841V324.663V319.185C311.801 307.984 318.292 297.836 328.359 293.299L329.279 292.884C360.575 278.779 382.311 246.936 382.311 209.996C382.311 165.785 351.182 128.971 310.004 120.996C310.638 134.48 309.152 148.297 305.299 161.997C303.553 168.204 301.382 174.17 298.828 179.873ZM251.496 408.186C251.496 416.526 258.142 423.286 266.34 423.286C274.539 423.286 281.185 416.526 281.185 408.186V404.411C281.185 396.071 274.539 389.311 266.34 389.311C258.142 389.311 251.496 396.071 251.496 404.411V408.186ZM131.604 175.681C124.931 170.512 115.288 171.924 111.3 179.43C93.2973 213.319 92.4515 253.962 108.416 288.389C108.8 289.217 108.633 290.203 108.014 290.868L95.5745 304.23C89.9374 310.286 90.1933 319.843 96.146 325.577L98.8406 328.173C103.305 332.474 110.352 332.279 114.58 327.737L129.571 311.633L131.497 309.564C139.472 300.997 141.389 288.297 136.307 277.691L135.755 276.54C123.805 251.601 123.743 222.187 135.732 197.15C139.25 189.802 137.996 180.632 131.604 175.681ZM199.629 325.916C208.195 327.519 215.037 335.105 214.103 343.915C213.285 351.628 206.76 357.511 199.207 356.431C192.699 355.501 186.249 354.02 179.93 351.987C177.592 351.234 175.044 352.002 173.358 353.814L77.6688 456.603C60.5814 474.958 32.1016 475.747 14.0574 458.365C-3.98685 440.983 -4.76248 412.012 12.3249 393.657C16.7289 388.926 24.069 388.723 28.7196 393.203L33.4352 397.745C38.0857 402.225 38.2856 409.692 33.8817 414.423C28.0684 420.667 28.3323 430.523 34.471 436.437C40.6098 442.35 50.2988 442.082 56.112 435.837L136.81 349.152L151.801 333.048L155.504 329.07C163.075 320.938 174.647 318.109 185.024 321.856L185.972 322.199C190.443 323.813 195.011 325.051 199.629 325.916ZM52.129 372.861C46.1763 367.126 45.9204 357.569 51.5575 351.514L54.1092 348.773C59.7463 342.717 69.1417 342.457 75.0944 348.191C81.0471 353.925 81.303 363.483 75.6659 369.538L73.1142 372.279C67.4771 378.335 58.0817 378.595 52.129 372.861Z" fill="black"/>
</svg>
