<svg width="18" height="18" viewBox="0 0 18 18" fill="none" xmlns="http://www.w3.org/2000/svg">
<g clip-path="url(#clip0_1163_5178)">
<path d="M9.393 6.75C9.59191 6.75 9.78268 6.67098 9.92333 6.53033C10.064 6.38968 10.143 6.19891 10.143 6V3.75C10.143 3.15326 10.3801 2.58097 10.802 2.15901C11.224 1.73705 11.7963 1.5 12.393 1.5H14.25C14.8467 1.5 15.419 1.73705 15.841 2.15901C16.2629 2.58097 16.5 3.15326 16.5 3.75V14.25C16.5 14.8467 16.2629 15.419 15.841 15.841C15.419 16.2629 14.8467 16.5 14.25 16.5H12.393C11.7963 16.5 11.224 16.2629 10.802 15.841C10.3801 15.419 10.143 14.8467 10.143 14.25V12C10.143 11.8011 10.064 11.6103 9.92333 11.4697C9.78268 11.329 9.59191 11.25 9.393 11.25C9.19409 11.25 9.00332 11.329 8.86267 11.4697C8.72202 11.6103 8.643 11.8011 8.643 12V14.25C8.64419 15.2442 9.03966 16.1973 9.74267 16.9003C10.4457 17.6033 11.3988 17.9988 12.393 18H14.25C15.2442 17.9988 16.1973 17.6033 16.9003 16.9003C17.6033 16.1973 17.9988 15.2442 18 14.25V3.75C17.9988 2.7558 17.6033 1.80267 16.9003 1.09966C16.1973 0.39666 15.2442 0.00119019 14.25 0H12.393C11.3988 0.00119019 10.4457 0.39666 9.74267 1.09966C9.03966 1.80267 8.64419 2.7558 8.643 3.75V6C8.643 6.19891 8.72202 6.38968 8.86267 6.53033C9.00332 6.67098 9.19409 6.75 9.393 6.75Z" fill="#5D3B78"/>
<path d="M0.84975 10.5907L4.28925 14.0302C4.35843 14.1018 4.44119 14.159 4.5327 14.1983C4.6242 14.2376 4.72261 14.2583 4.8222 14.2591C4.92178 14.26 5.02054 14.241 5.11271 14.2033C5.20489 14.1656 5.28863 14.1099 5.35905 14.0395C5.42947 13.9691 5.48516 13.8853 5.52287 13.7932C5.56058 13.701 5.57955 13.6022 5.57869 13.5026C5.57782 13.4031 5.55713 13.3046 5.51783 13.2131C5.47852 13.1216 5.42138 13.0389 5.34975 12.9697L2.1525 9.77244L13.5 9.74994C13.6989 9.74994 13.8897 9.67092 14.0303 9.53027C14.171 9.38962 14.25 9.19885 14.25 8.99994C14.25 8.80103 14.171 8.61026 14.0303 8.46961C13.8897 8.32896 13.6989 8.24994 13.5 8.24994L2.109 8.27244L5.35125 5.03019C5.42288 4.961 5.48002 4.87825 5.51933 4.78674C5.55863 4.69524 5.57932 4.59682 5.58019 4.49724C5.58105 4.39766 5.56208 4.2989 5.52437 4.20672C5.48666 4.11455 5.43097 4.03081 5.36055 3.96039C5.29013 3.88997 5.20639 3.83428 5.11422 3.79657C5.02204 3.75886 4.92328 3.73989 4.8237 3.74075C4.72411 3.74162 4.6257 3.76231 4.5342 3.80161C4.44269 3.84092 4.35994 3.89806 4.29075 3.96969L0.85125 7.40919C0.429241 7.83093 0.192011 8.40301 0.19173 8.99963C0.191449 9.59625 0.428139 10.1686 0.84975 10.5907Z" fill="#5D3B78"/>
</g>
<defs>
<clipPath id="clip0_1163_5178">
<rect width="18" height="18" fill="white" transform="matrix(-1 0 0 -1 18 18)"/>
</clipPath>
</defs>
</svg>
