<svg width="512" height="512" viewBox="0 0 512 512" fill="none" xmlns="http://www.w3.org/2000/svg">
<path fill-rule="evenodd" clip-rule="evenodd" d="M159.898 512.001C121.279 511.976 83.9726 497.984 54.8622 472.607C25.7518 447.23 6.8021 412.181 1.50986 373.927C-3.78237 335.672 4.94001 296.795 26.0675 264.468C47.195 232.141 79.3017 208.546 116.463 198.038C143.474 190.303 172.064 189.949 199.258 197.014L367.962 28.3524C376.918 19.3345 387.575 12.1846 399.316 7.31766C411.057 2.4507 423.647 -0.0364758 436.356 0.000404208C456.358 0.0173521 475.535 7.97035 489.678 22.1134C503.821 36.2565 511.774 55.4338 511.791 75.4351C511.824 88.1453 509.337 100.736 504.475 112.479C499.806 123.752 493.038 134.03 484.533 142.766L484.716 142.97L473.355 153.956L469.595 157.717L469.539 157.646L469.03 158.139C464.948 162.058 459.477 164.194 453.82 164.078C448.163 163.963 442.784 161.604 438.866 157.523C434.948 153.441 432.812 147.97 432.927 142.313C433.043 136.656 435.401 131.277 439.483 127.359L443.063 123.897L453.295 113.664C458.329 108.654 462.32 102.696 465.037 96.1343C467.754 89.5725 469.143 82.5372 469.124 75.4351C469.119 66.7499 465.668 58.4217 459.528 52.2784C453.389 46.135 445.063 42.6784 436.378 42.6671C429.271 42.6496 422.231 44.0415 415.665 46.7622C409.1 49.483 403.139 53.4785 398.127 58.5178L220.399 236.224C217.563 239.059 213.985 241.037 210.076 241.932C206.167 242.826 202.085 242.6 198.298 241.281C185.926 236.925 172.907 234.689 159.791 234.667H159.898C138.056 234.646 116.641 240.722 98.065 252.211C79.4888 263.701 64.4884 280.147 54.7523 299.699C45.0162 319.252 40.931 341.133 42.9565 362.881C44.982 384.629 53.0378 405.38 66.2172 422.798C79.3965 440.216 97.1761 453.61 117.555 461.471C137.933 469.332 160.101 471.349 181.564 467.295C203.026 463.24 222.931 453.276 239.038 438.522C253.431 425.338 264.28 408.798 270.648 390.424L271.051 388.794C272.43 383.306 275.932 378.591 280.788 375.686C285.643 372.781 291.453 371.924 296.94 373.303C302.428 374.682 307.143 378.184 310.048 383.039C312.529 387.187 313.517 392.031 312.892 396.776L313.296 396.889C304.412 427.011 286.888 453.88 262.877 474.16C238.446 494.793 208.413 507.665 176.623 511.126C171.067 511.703 165.484 511.995 159.898 512.001ZM106.458 384.001C106.458 388.22 107.709 392.345 110.053 395.853C112.397 399.361 115.729 402.095 119.627 403.71C123.525 405.325 127.815 405.747 131.953 404.924C136.091 404.101 139.893 402.069 142.876 399.086C145.86 396.102 147.891 392.301 148.715 388.163C149.538 384.024 149.115 379.735 147.501 375.837C145.886 371.938 143.152 368.607 139.643 366.263C136.135 363.918 132.01 362.667 127.791 362.667C122.133 362.667 116.707 364.915 112.706 368.916C108.705 372.916 106.458 378.343 106.458 384.001ZM390.119 170.513L487.954 268.348C499.946 280.355 506.679 296.634 506.671 313.605C506.663 330.575 499.915 346.848 487.911 358.844L390.077 456.679C388.109 458.716 385.755 460.342 383.152 461.46C380.549 462.578 377.75 463.166 374.917 463.191C372.085 463.215 369.275 462.676 366.654 461.603C364.032 460.53 361.65 458.946 359.647 456.943C357.644 454.94 356.06 452.558 354.987 449.936C353.914 447.315 353.375 444.506 353.399 441.673C353.424 438.84 354.012 436.041 355.13 433.438C356.248 430.835 357.874 428.481 359.911 426.513L452.135 334.289L278.125 334.929C272.467 334.929 267.04 332.682 263.04 328.681C259.039 324.68 256.791 319.254 256.791 313.596C256.791 307.938 259.039 302.512 263.04 298.511C267.04 294.51 272.467 292.263 278.125 292.263L450.898 291.623L359.954 200.679C357.916 198.711 356.291 196.357 355.173 193.754C354.055 191.151 353.467 188.352 353.442 185.519C353.417 182.687 353.957 179.877 355.03 177.256C356.102 174.634 357.686 172.252 359.689 170.249C361.693 168.246 364.074 166.662 366.696 165.589C369.318 164.516 372.127 163.977 374.96 164.001C377.792 164.026 380.592 164.614 383.195 165.733C385.797 166.851 388.151 168.476 390.119 170.513Z" fill="black"/>
</svg>
