<svg width="8" height="4" viewBox="0 0 8 4" fill="none" xmlns="http://www.w3.org/2000/svg">
<path d="M0.503157 0.0265698C0.568818 0.0264818 0.633846 0.0393968 0.69449 0.0645698C0.755134 0.0897427 0.810193 0.126675 0.85649 0.173236L3.41416 2.73057C3.49154 2.80798 3.58342 2.86938 3.68454 2.91127C3.78566 2.95316 3.89404 2.97473 4.00349 2.97473C4.11294 2.97473 4.22132 2.95316 4.32244 2.91127C4.42356 2.86938 4.51544 2.80798 4.59282 2.73057L7.14649 0.17657C7.19261 0.128815 7.24779 0.0907236 7.30879 0.0645191C7.36979 0.0383145 7.4354 0.0245216 7.50179 0.0239447C7.56818 0.0233678 7.63402 0.0360185 7.69547 0.0611589C7.75692 0.0862994 7.81274 0.123426 7.85969 0.170372C7.90663 0.217319 7.94376 0.273145 7.9689 0.334593C7.99404 0.396041 8.00669 0.461881 8.00612 0.52827C8.00554 0.59466 7.99175 0.66027 7.96554 0.721272C7.93934 0.782274 7.90125 0.837446 7.85349 0.88357L5.29982 3.43757C4.95579 3.78096 4.48957 3.97382 4.00349 3.97382C3.51741 3.97382 3.05119 3.78096 2.70716 3.43757L0.14949 0.880237C0.0795179 0.81031 0.0318611 0.721198 0.0125497 0.624177C-0.0067617 0.527157 0.00314035 0.426588 0.0410028 0.335197C0.0788653 0.243806 0.142987 0.1657 0.225253 0.110763C0.307519 0.0558251 0.404233 0.026525 0.503157 0.0265698Z" fill="black"/>
</svg>
