<svg width="29" height="18" viewBox="0 0 29 18" fill="none" xmlns="http://www.w3.org/2000/svg">
<path d="M28.7615 0V16.9688H26.6287V2.20312H26.5349L22.4099 4.94531V2.8125L26.6287 0H28.7615Z" fill="#303030"/>
<path d="M17.2051 17.2266C13.5957 17.2266 11.3926 14.4844 11.3926 10.6641C11.3926 6.79688 13.6895 4.07812 17.1582 4.07812C19.877 4.07812 21.8926 5.67188 22.2207 8.08594H20.2051C19.9238 6.91406 18.8926 5.85938 17.2051 5.85938C14.9316 5.85938 13.4082 7.73438 13.4082 10.5938C13.4082 13.5469 14.8848 15.4219 17.2051 15.4219C18.7051 15.4219 19.8535 14.625 20.2051 13.2188H22.2207C21.8926 15.4922 20.041 17.2266 17.2051 17.2266Z" fill="#303030"/>
<path d="M0 16.9688V0H2.01562V6.25781H2.17969C2.625 5.57812 3.375 4.07812 5.85938 4.07812C9.04688 4.07812 11.2969 6.60938 11.2969 10.6406C11.2969 14.6719 9.04688 17.2266 5.88281 17.2266C3.44531 17.2266 2.625 15.7266 2.17969 15.0234H1.94531V16.9688H0ZM1.96875 10.5938C1.96875 13.4531 3.25781 15.4219 5.57812 15.4219C7.99219 15.4219 9.25781 13.3125 9.25781 10.5938C9.25781 7.94531 8.03906 5.88281 5.57812 5.88281C3.23438 5.88281 1.96875 7.78125 1.96875 10.5938Z" fill="#303030"/>
</svg>
