<svg width="21" height="30" viewBox="0 0 21 30" fill="none" xmlns="http://www.w3.org/2000/svg">
<path fill-rule="evenodd" clip-rule="evenodd" d="M9.86385 0.141632C10.391 -0.105238 11.0132 -0.0249127 11.4603 0.347687L20.4603 7.84768C20.8023 8.13266 21 8.55484 21 9.00001C21 9.44518 20.8023 9.86735 20.4603 10.1523L14.6432 15L20.4603 19.8477C20.8023 20.1327 21 20.5548 21 21C21 21.4452 20.8023 21.8673 20.4603 22.1523L11.4603 29.6523C11.0132 30.0249 10.391 30.1053 9.86385 29.8584C9.33675 29.6115 9 29.082 9 28.5V19.7026L2.46032 25.1523C1.8239 25.6827 0.878058 25.5967 0.347703 24.9603C-0.182637 24.3238 -0.0966573 23.3781 0.539763 22.8477L9 15.7974V14.2026L0.539763 7.15234C-0.0966573 6.622 -0.182637 5.67615 0.347703 5.03974C0.878058 4.40332 1.8239 4.31734 2.46032 4.84768L9 10.2974V1.50002C9 0.917986 9.33675 0.388502 9.86385 0.141632ZM12.3 13.0474L12 12.7974V4.70257L17.157 9.00001L12.3 13.0474ZM12.3 16.9525L12 17.2026V25.2975L17.157 21L12.3 16.9525Z" fill="#302F34"/>
</svg>
