<svg width="46" height="46" viewBox="0 0 46 46" fill="none" xmlns="http://www.w3.org/2000/svg">
<rect width="46" height="46" rx="8" fill="#3083FF"/>
<path fill-rule="evenodd" clip-rule="evenodd" d="M22.2933 6.15737C22.879 5.88307 23.5703 5.97232 24.0672 6.38632L34.0672 14.7197C34.4472 15.0363 34.6668 15.5054 34.6668 16C34.6668 16.4947 34.4472 16.9637 34.0672 17.2804L27.6037 22.6667L34.0672 28.053C34.4472 28.3697 34.6668 28.8387 34.6668 29.3333C34.6668 29.828 34.4472 30.297 34.0672 30.6137L24.0672 38.947C23.5703 39.361 22.879 39.4503 22.2933 39.176C21.7077 38.9017 21.3335 38.3133 21.3335 37.6667V27.8918L14.0672 33.947C13.36 34.5363 12.3091 34.4408 11.7198 33.7337C11.1306 33.0265 11.2261 31.9757 11.9332 31.3863L21.3335 23.5527V21.7807L11.9332 13.9471C11.2261 13.3578 11.1306 12.3068 11.7198 11.5997C12.3091 10.8926 13.36 10.7971 14.0672 11.3863L21.3335 17.4416V7.66669C21.3335 7.01999 21.7077 6.43167 22.2933 6.15737ZM25.0002 20.4972L24.6668 20.2193V11.2251L30.3968 16L25.0002 20.4972ZM25.0002 24.8362L24.6668 25.114V34.1083L30.3968 29.3333L25.0002 24.8362Z" fill="white"/>
</svg>
