<svg width="7" height="10" viewBox="0 0 7 10" fill="none" xmlns="http://www.w3.org/2000/svg">
<path fill-rule="evenodd" clip-rule="evenodd" d="M0.629806 0.292893C1.03449 -0.0976311 1.69061 -0.0976311 2.09529 0.292893L6.2403 4.29289C6.64499 4.68342 6.64499 5.31658 6.2403 5.70711L2.09529 9.70711C1.69061 10.0976 1.03449 10.0976 0.629806 9.70711C0.225123 9.31658 0.225123 8.68342 0.629806 8.29289L4.04208 5L0.629806 1.70711C0.225123 1.31658 0.225123 0.683417 0.629806 0.292893Z" fill="#555555"/>
<path fill-rule="evenodd" clip-rule="evenodd" d="M0.629806 0.292893C1.03449 -0.0976311 1.69061 -0.0976311 2.09529 0.292893L6.2403 4.29289C6.64499 4.68342 6.64499 5.31658 6.2403 5.70711L2.09529 9.70711C1.69061 10.0976 1.03449 10.0976 0.629806 9.70711C0.225123 9.31658 0.225123 8.68342 0.629806 8.29289L4.04208 5L0.629806 1.70711C0.225123 1.31658 0.225123 0.683417 0.629806 0.292893Z" fill="black" fill-opacity="0.2"/>
<path fill-rule="evenodd" clip-rule="evenodd" d="M0.629806 0.292893C1.03449 -0.0976311 1.69061 -0.0976311 2.09529 0.292893L6.2403 4.29289C6.64499 4.68342 6.64499 5.31658 6.2403 5.70711L2.09529 9.70711C1.69061 10.0976 1.03449 10.0976 0.629806 9.70711C0.225123 9.31658 0.225123 8.68342 0.629806 8.29289L4.04208 5L0.629806 1.70711C0.225123 1.31658 0.225123 0.683417 0.629806 0.292893Z" fill="black" fill-opacity="0.2"/>
<path fill-rule="evenodd" clip-rule="evenodd" d="M0.629806 0.292893C1.03449 -0.0976311 1.69061 -0.0976311 2.09529 0.292893L6.2403 4.29289C6.64499 4.68342 6.64499 5.31658 6.2403 5.70711L2.09529 9.70711C1.69061 10.0976 1.03449 10.0976 0.629806 9.70711C0.225123 9.31658 0.225123 8.68342 0.629806 8.29289L4.04208 5L0.629806 1.70711C0.225123 1.31658 0.225123 0.683417 0.629806 0.292893Z" fill="black" fill-opacity="0.2"/>
</svg>
