<svg width="10" height="10" viewBox="0 0 10 10" fill="none" xmlns="http://www.w3.org/2000/svg">
<g clip-path="url(#clip0_1169_5759)">
<path d="M5 0C2.24292 0 0 2.24292 0 5C0 7.75708 2.24292 10 5 10C7.75708 10 10 7.75708 10 5C10 2.24292 7.75708 0 5 0ZM7.58333 4.38L5.73917 6.19042C5.41292 6.51042 4.99292 6.67 4.5725 6.67C4.15667 6.67 3.74083 6.51333 3.41583 6.19958L2.62458 5.42167C2.46042 5.26042 2.45833 4.99667 2.61958 4.8325C2.78042 4.66792 3.045 4.66583 3.20875 4.8275L3.9975 5.60292C4.32083 5.91542 4.83125 5.91375 5.15625 5.59542L7 3.78542C7.16375 3.62375 7.42667 3.62667 7.58917 3.79083C7.75042 3.955 7.74792 4.21875 7.58333 4.38Z" fill="black"/>
</g>
<defs>
<clipPath id="clip0_1169_5759">
<rect width="10" height="10" fill="white"/>
</clipPath>
</defs>
</svg>
