<svg width="19" height="18" viewBox="0 0 19 18" fill="none" xmlns="http://www.w3.org/2000/svg">
<g clip-path="url(#clip0_1158_3567)">
<path d="M9.5 0C4.53725 0 0.5 4.03725 0.5 9C0.5 13.9628 4.53725 18 9.5 18C14.4628 18 18.5 13.9628 18.5 9C18.5 4.03725 14.4628 0 9.5 0ZM14.15 7.884L10.8305 11.1427C10.2432 11.7188 9.48725 12.006 8.7305 12.006C7.982 12.006 7.2335 11.724 6.6485 11.1593L5.22425 9.759C4.92875 9.46875 4.925 8.994 5.21525 8.6985C5.50475 8.40225 5.981 8.3985 6.27575 8.6895L7.6955 10.0852C8.2775 10.6477 9.19625 10.6447 9.78125 10.0717L13.1 6.81375C13.3947 6.52275 13.868 6.528 14.1605 6.8235C14.4508 7.119 14.4463 7.59375 14.15 7.884Z" fill="url(#paint0_linear_1158_3567)"/>
</g>
<defs>
<linearGradient id="paint0_linear_1158_3567" x1="16.229" y1="7.14953" x2="1.25701" y2="10.9346" gradientUnits="userSpaceOnUse">
<stop stop-color="#7775FF"/>
<stop offset="1" stop-color="#8CD5FF"/>
</linearGradient>
<clipPath id="clip0_1158_3567">
<rect width="18" height="18" fill="white" transform="translate(0.5)"/>
</clipPath>
</defs>
</svg>
