<svg width="477" height="405" viewBox="0 0 477 405" fill="none" xmlns="http://www.w3.org/2000/svg">
<path fill-rule="evenodd" clip-rule="evenodd" d="M67.5177 195.698C59.8448 222.073 62.0371 244.58 73.3742 255.919C80.3424 262.857 91.3194 266.444 104.864 266.444C111.206 266.444 118.096 265.661 125.393 264.063C154.629 257.611 186.448 238.863 212.692 212.645C236.494 188.87 253.954 160.803 261.846 133.63C269.519 107.255 267.327 84.7483 255.974 73.3933C245.827 63.2443 226.566 60.3312 203.986 65.2647C174.735 71.7175 142.916 90.465 116.687 116.683C92.8853 140.458 75.4255 168.525 67.5177 195.698ZM374.635 159.359L308.427 181.364C297.522 184.978 288.036 191.926 281.317 201.22C274.599 210.515 270.989 221.684 271 233.141V289.001C271 310.169 277.622 328.907 287.544 345.102C255.703 365.699 219.09 376 182.486 376C132.941 376 83.3803 357.143 45.6578 319.397L25.8335 298.41C-22.0831 246.584 -1.72636 148.775 73.4995 73.5343C148.96 -1.94117 247.126 -22.2235 298.848 26.2819L319.314 45.6872C350.354 76.7198 369.545 116.444 374.635 159.359ZM233.581 233.632C171.619 295.591 87.7335 316.375 50.3085 278.974C12.9461 241.573 33.7099 157.64 95.6569 95.6648C136.684 54.6458 187.309 31.6853 227.694 31.6853C248.316 31.6853 266.277 37.6838 278.93 50.3231C316.292 87.7241 295.528 171.657 233.581 233.632Z" fill="url(#paint0_linear_981_3766)"/>
<path d="M446.058 201.886L389.36 182.476C387.503 181.841 385.497 181.841 383.64 182.476L326.933 201.886C317.92 204.962 310.08 210.876 304.527 218.787C298.974 226.698 295.991 236.204 296 245.956V293.5C296 363.772 379.26 402.583 382.826 404.2C383.982 404.727 385.234 405 386.5 405C387.766 405 389.018 404.727 390.174 404.2C393.74 402.583 477 363.772 477 293.5V245.956C477.009 236.203 474.024 226.696 468.469 218.785C462.914 210.873 455.073 204.96 446.058 201.886Z" fill="url(#paint1_linear_981_3766)"/>
<defs>
<linearGradient id="paint0_linear_981_3766" x1="327.368" y1="149.346" x2="15.62" y2="227.872" gradientUnits="userSpaceOnUse">
<stop stop-color="#7775FF"/>
<stop offset="1" stop-color="#8CD5FF"/>
</linearGradient>
<linearGradient id="paint1_linear_981_3766" x1="454.164" y1="270.575" x2="300.462" y2="302.113" gradientUnits="userSpaceOnUse">
<stop stop-color="#7775FF"/>
<stop offset="1" stop-color="#8CD5FF"/>
</linearGradient>
</defs>
</svg>
