<svg width="479" height="404" viewBox="0 0 479 404" fill="none" xmlns="http://www.w3.org/2000/svg">
<path fill-rule="evenodd" clip-rule="evenodd" d="M67.5177 195.698C59.8448 222.073 62.0371 244.58 73.3742 255.919C80.3424 262.857 91.3194 266.444 104.864 266.444C111.206 266.444 118.096 265.661 125.393 264.063C154.629 257.611 186.448 238.863 212.692 212.645C236.494 188.87 253.954 160.803 261.846 133.63C269.519 107.255 267.327 84.7485 255.974 73.3935C245.827 63.2444 226.566 60.3313 203.986 65.2648C174.735 71.7176 142.916 90.4651 116.687 116.683C92.8853 140.458 75.4255 168.525 67.5177 195.698ZM374.635 159.359L308.427 181.364C297.522 184.978 288.036 191.926 281.317 201.221C274.599 210.515 270.989 221.684 271 233.141V289.001C271 310.169 277.622 328.907 287.544 345.102C255.703 365.699 219.09 376 182.486 376C132.941 376 83.3803 357.143 45.6578 319.397L25.8335 298.41C-22.0831 246.585 -1.72636 148.775 73.4995 73.5344C148.96 -1.94105 247.126 -22.2234 298.848 26.282L319.314 45.6873C350.354 76.72 369.545 116.444 374.635 159.359ZM233.581 233.632C171.619 295.591 87.7335 316.375 50.3085 278.974C12.9461 241.573 33.7099 157.64 95.6569 95.6649C136.684 54.646 187.309 31.6854 227.694 31.6854C248.316 31.6854 266.277 37.684 278.93 50.3232C316.292 87.7242 295.528 171.657 233.581 233.632Z" fill="url(#paint0_linear_949_3624)"/>
<path fill-rule="evenodd" clip-rule="evenodd" d="M390.36 181.476L447.058 200.886C456.073 203.96 463.914 209.873 469.469 217.785C475.024 225.696 478.009 235.203 478 244.956V292.501C478 362.772 394.74 401.583 391.174 403.2C390.018 403.727 388.766 404 387.5 404C386.234 404 384.982 403.727 383.826 403.2C380.26 401.583 297 362.772 297 292.501V244.956C296.991 235.204 299.974 225.698 305.527 217.787C311.08 209.876 318.92 203.962 327.933 200.886L384.64 181.476C386.497 180.841 388.503 180.841 390.36 181.476ZM406 277C406 284.365 401.577 290.697 395.242 293.484L401.243 317.824C402.331 322.237 398.992 326.5 394.447 326.5H382.486C378.016 326.5 374.691 322.368 375.648 318.001L380.999 293.588C374.536 290.857 370 284.458 370 277C370 267.059 378.059 259 388 259C397.941 259 406 267.059 406 277Z" fill="url(#paint1_linear_949_3624)"/>
<defs>
<linearGradient id="paint0_linear_949_3624" x1="327.368" y1="149.346" x2="15.62" y2="227.872" gradientUnits="userSpaceOnUse">
<stop stop-color="#7775FF"/>
<stop offset="1" stop-color="#8CD5FF"/>
</linearGradient>
<linearGradient id="paint1_linear_949_3624" x1="455.164" y1="269.575" x2="301.462" y2="301.114" gradientUnits="userSpaceOnUse">
<stop stop-color="#7775FF"/>
<stop offset="1" stop-color="#8CD5FF"/>
</linearGradient>
</defs>
</svg>
