<svg width="28" height="24" viewBox="0 0 28 24" fill="none" xmlns="http://www.w3.org/2000/svg">
<g clip-path="url(#clip0_318_10972)">
<path fill-rule="evenodd" clip-rule="evenodd" d="M4.29808 15.1966C3.63397 14.5244 3.50556 13.19 3.95502 11.6263C4.41824 10.0152 5.44099 8.3512 6.83523 6.94163C8.37164 5.3872 10.2355 4.2757 11.949 3.89311C13.2716 3.60061 14.3999 3.77332 14.9943 4.37505C15.6593 5.04828 15.7877 6.38261 15.3382 7.94635C14.876 9.55743 13.8532 11.2214 12.459 12.631C10.9216 14.1854 9.05776 15.2969 7.34523 15.6795C6.91779 15.7742 6.51418 15.8206 6.1427 15.8206C5.34928 15.8206 4.70627 15.608 4.29808 15.1966ZM18.0668 10.7764L21.9452 9.47178C21.647 6.92742 20.5229 4.57226 18.7046 2.73239L17.5057 1.58189C14.476 -1.29391 8.7257 -0.0914059 4.3054 4.38338C-0.101122 8.84426 -1.29356 14.6432 1.51326 17.7159L2.67452 18.9602C4.88421 21.198 7.78734 22.316 10.6896 22.316C12.8337 22.316 14.9784 21.7053 16.8436 20.4842C16.2624 19.524 15.8745 18.413 15.8745 17.158V13.8462C15.8738 13.1669 16.0853 12.5047 16.4788 11.9537C16.8724 11.4026 17.4281 10.9907 18.0668 10.7764ZM2.94694 16.5635C5.1392 18.781 10.053 17.5487 13.6826 13.8753C17.3113 10.2009 18.5276 5.22468 16.339 3.00725C15.5978 2.25789 14.5457 1.90224 13.3377 1.90224C10.9721 1.90224 8.00657 3.26354 5.60334 5.69549C1.97464 9.36985 0.758354 14.3461 2.94694 16.5635ZM26.1875 11.9339L22.8663 10.7831C22.7575 10.7454 22.64 10.7454 22.5312 10.7831L19.2095 11.9339C18.6815 12.1162 18.2223 12.4668 17.897 12.9359C17.5717 13.4049 17.397 13.9685 17.3975 14.5467V17.3655C17.3975 21.5318 22.2746 23.8328 22.4835 23.9287C22.5513 23.96 22.6246 23.9761 22.6987 23.9761C22.7729 23.9761 22.8462 23.96 22.914 23.9287C23.1228 23.8328 28 21.5318 28 17.3655V14.5467C28.0005 13.9685 27.8256 13.4048 27.5003 12.9358C27.1749 12.4667 26.7155 12.1161 26.1875 11.9339ZM23.1522 17.4238C23.5233 17.2586 23.7824 16.8832 23.7824 16.4465C23.7824 15.8571 23.3104 15.3793 22.7281 15.3793C22.1457 15.3793 21.6736 15.8571 21.6736 16.4465C21.6736 16.8887 21.9393 17.268 22.318 17.43L22.0045 18.8774C21.9484 19.1363 22.1432 19.3813 22.405 19.3813H23.1057C23.3719 19.3813 23.5675 19.1285 23.5038 18.8669L23.1522 17.4238Z" fill="#141318"/>
<path fill-rule="evenodd" clip-rule="evenodd" d="M4.29808 15.1966C3.63397 14.5244 3.50556 13.19 3.95502 11.6263C4.41824 10.0152 5.44099 8.3512 6.83523 6.94163C8.37164 5.3872 10.2355 4.2757 11.949 3.89311C13.2716 3.60061 14.3999 3.77332 14.9943 4.37505C15.6593 5.04828 15.7877 6.38261 15.3382 7.94635C14.876 9.55743 13.8532 11.2214 12.459 12.631C10.9216 14.1854 9.05776 15.2969 7.34523 15.6795C6.91779 15.7742 6.51418 15.8206 6.1427 15.8206C5.34928 15.8206 4.70627 15.608 4.29808 15.1966ZM18.0668 10.7764L21.9452 9.47178C21.647 6.92742 20.5229 4.57226 18.7046 2.73239L17.5057 1.58189C14.476 -1.29391 8.7257 -0.0914059 4.3054 4.38338C-0.101122 8.84426 -1.29356 14.6432 1.51326 17.7159L2.67452 18.9602C4.88421 21.198 7.78734 22.316 10.6896 22.316C12.8337 22.316 14.9784 21.7053 16.8436 20.4842C16.2624 19.524 15.8745 18.413 15.8745 17.158V13.8462C15.8738 13.1669 16.0853 12.5047 16.4788 11.9537C16.8724 11.4026 17.4281 10.9907 18.0668 10.7764ZM2.94694 16.5635C5.1392 18.781 10.053 17.5487 13.6826 13.8753C17.3113 10.2009 18.5276 5.22468 16.339 3.00725C15.5978 2.25789 14.5457 1.90224 13.3377 1.90224C10.9721 1.90224 8.00657 3.26354 5.60334 5.69549C1.97464 9.36985 0.758354 14.3461 2.94694 16.5635ZM26.1875 11.9339L22.8663 10.7831C22.7575 10.7454 22.64 10.7454 22.5312 10.7831L19.2095 11.9339C18.6815 12.1162 18.2223 12.4668 17.897 12.9359C17.5717 13.4049 17.397 13.9685 17.3975 14.5467V17.3655C17.3975 21.5318 22.2746 23.8328 22.4835 23.9287C22.5513 23.96 22.6246 23.9761 22.6987 23.9761C22.7729 23.9761 22.8462 23.96 22.914 23.9287C23.1228 23.8328 28 21.5318 28 17.3655V14.5467C28.0005 13.9685 27.8256 13.4048 27.5003 12.9358C27.1749 12.4667 26.7155 12.1161 26.1875 11.9339ZM23.1522 17.4238C23.5233 17.2586 23.7824 16.8832 23.7824 16.4465C23.7824 15.8571 23.3104 15.3793 22.7281 15.3793C22.1457 15.3793 21.6736 15.8571 21.6736 16.4465C21.6736 16.8887 21.9393 17.268 22.318 17.43L22.0045 18.8774C21.9484 19.1363 22.1432 19.3813 22.405 19.3813H23.1057C23.3719 19.3813 23.5675 19.1285 23.5038 18.8669L23.1522 17.4238Z" fill="black" fill-opacity="0.2"/>
</g>
<defs>
<clipPath id="clip0_318_10972">
<rect width="28" height="24" fill="white"/>
</clipPath>
</defs>
</svg>
