<svg width="477" height="400" viewBox="0 0 477 400" fill="none" xmlns="http://www.w3.org/2000/svg">
<path fill-rule="evenodd" clip-rule="evenodd" d="M67.5178 195.698C59.8449 222.073 62.0371 244.58 73.3742 255.919C80.3425 262.857 91.3194 266.444 104.864 266.444C111.206 266.444 118.096 265.661 125.393 264.063C154.629 257.61 186.448 238.863 212.692 212.645C236.494 188.87 253.954 160.803 261.846 133.63C269.519 107.255 267.327 84.7483 255.974 73.3933C245.827 63.2443 226.566 60.3312 203.986 65.2647C174.735 71.7175 142.916 90.465 116.687 116.683C92.8853 140.458 75.4256 168.525 67.5178 195.698ZM374.635 159.359L308.427 181.364C297.522 184.978 288.036 191.926 281.318 201.22C274.599 210.515 270.989 221.684 271 233.141V289.001C271 310.169 277.622 328.907 287.544 345.102C255.703 365.699 219.09 376 182.486 376C132.941 376 83.3803 357.143 45.6578 319.397L25.8335 298.41C-22.083 246.584 -1.72631 148.775 73.4995 73.5343C148.96 -1.94118 247.126 -22.2235 298.848 26.2819L319.314 45.6871C350.354 76.7198 369.545 116.444 374.635 159.359ZM233.581 233.632C171.619 295.591 87.7335 316.375 50.3085 278.974C12.9462 241.573 33.71 157.64 95.657 95.6648C136.684 54.6458 187.309 31.6853 227.694 31.6853C248.317 31.6853 266.277 37.6838 278.93 50.3231C316.292 87.7241 295.528 171.657 233.581 233.632Z" fill="#302F34"/>
<path d="M446.058 196.886L389.36 177.476C387.503 176.841 385.497 176.841 383.64 177.476L326.933 196.886C317.92 199.962 310.08 205.876 304.527 213.787C298.974 221.698 295.991 231.204 296 240.956V288.501C296 358.772 379.26 397.583 382.826 399.2C383.982 399.727 385.234 400 386.5 400C387.766 400 389.018 399.727 390.174 399.2C393.74 397.583 477 358.772 477 288.501V240.956C477.009 231.203 474.024 221.696 468.469 213.785C462.914 205.873 455.073 199.96 446.058 196.886Z" fill="#302F34"/>
</svg>
