<svg width="322" height="322" viewBox="0 0 322 322" fill="none" xmlns="http://www.w3.org/2000/svg">
<g clip-path="url(#clip0_6059_3655)">
<path d="M322 241.5H40.25C18.0588 241.5 0 259.559 0 281.75C0 303.941 18.0588 322 40.25 322H322C322 322 308.583 301.875 308.583 281.75C308.583 261.625 322 241.5 322 241.5Z" fill="black"/>
<path d="M322 241.5H40.25C18.0588 241.5 0 259.559 0 281.75C0 303.941 18.0588 322 40.25 322H322C322 322 308.583 301.875 308.583 281.75C308.583 261.625 322 241.5 322 241.5Z" fill="black"/>
<path d="M248.603 5.3667C208.786 10.1408 194.99 42.4383 193.069 57.9903C189.926 69.2022 190.974 88.1539 220.312 74.2656C249.65 60.3773 251.397 22.5462 248.603 5.3667Z" fill="black"/>
<path d="M190.242 0.631877C158.841 20.4181 161.701 52.0152 167.056 65.3405C169.435 75.6507 178.816 90.533 197.303 67.5805C215.791 44.6281 200.298 13.3846 190.242 0.631877Z" fill="black"/>
<ellipse cx="155.633" cy="131.483" rx="93.9167" ry="97.9417" fill="black"/>
<path d="M106.205 142.748C103.299 127.587 105.114 109.115 106.841 99.2132C107 98.3027 106.055 97.7832 105.487 98.5119C102.892 101.838 99.6216 108.671 99.304 119.578C99.0076 129.757 101.975 138.213 104.693 143.387C105.201 144.354 106.411 143.82 106.205 142.748Z" fill="#FFFEFE"/>
<path d="M120.307 129.993C118.871 117.367 119.014 105.826 121.674 93.9526C121.878 93.0409 120.974 92.517 120.399 93.2621C118.175 96.1435 115.46 101.713 114.894 110.412C114.333 119.049 116.654 126.227 118.81 130.546C119.267 131.462 120.423 131.017 120.307 129.993Z" fill="#FFFEFE"/>
<path d="M125.599 175.844C123.372 164.617 122.046 156.926 121.9 144.546C121.89 143.67 120.926 143.287 120.479 144.031C118.85 146.741 117.21 151.821 118.292 159.218C119.412 166.877 121.952 173.138 124.327 176.467C124.867 177.225 125.778 176.748 125.599 175.844Z" fill="#FFFEFE"/>
<path d="M88.3069 128.949C87.0585 116.602 90.6542 102.147 93.3778 94.2739C93.6739 93.4181 92.8577 92.7571 92.1563 93.3461C89.2052 95.8242 85.2265 101.076 83.7863 109.877C82.4478 118.056 84.5265 125.138 86.7124 129.58C87.1751 130.52 88.4133 130.002 88.3069 128.949Z" fill="#FFFEFE"/>
<path d="M92.5281 173.573C89.3331 164.417 88.5997 150.842 88.5391 144.054C88.531 143.153 87.7322 142.911 87.4249 143.746C85.9736 147.692 84.3661 155.844 85.497 162.225C86.4263 167.47 88.8531 171.672 91.0986 174.486C91.7817 175.343 92.8848 174.595 92.5281 173.573Z" fill="#FFFEFE"/>
<path d="M111.265 182.521C107.064 174.06 105.889 164.182 105.612 157.955C105.574 157.083 104.57 156.7 104.114 157.432C102.435 160.128 100.896 164.98 102.704 171.436C104.463 177.716 107.361 181.508 110.097 183.603C110.873 184.198 111.693 183.385 111.265 182.521Z" fill="#FFFEFE"/>
<ellipse cx="235.5" cy="176.5" rx="31.5" ry="37.5" fill="white"/>
<path fill-rule="evenodd" clip-rule="evenodd" d="M263.802 123.92L233.271 113.261C232.272 112.913 231.191 112.913 230.192 113.261L199.656 123.92C194.803 125.609 190.582 128.857 187.592 133.201C184.602 137.545 182.995 142.765 183 148.12V174.229C183 212.817 227.833 234.129 229.753 235.017C230.376 235.307 231.05 235.456 231.731 235.456C232.413 235.456 233.087 235.307 233.71 235.017C235.63 234.129 280.463 212.817 280.463 174.229V148.12C280.468 142.765 278.86 137.544 275.869 133.2C272.878 128.855 268.656 125.608 263.802 123.92ZM235.9 174.769C239.311 173.238 241.693 169.761 241.693 165.717C241.693 160.258 237.354 155.832 232.001 155.832C226.648 155.832 222.308 160.258 222.308 165.717C222.308 169.812 224.751 173.326 228.231 174.826L225.35 188.232C224.834 190.629 226.625 192.899 229.032 192.899H235.472C237.919 192.899 239.718 190.558 239.132 188.135L235.9 174.769Z" fill="#626262"/>
<path fill-rule="evenodd" clip-rule="evenodd" d="M263.802 123.92L233.271 113.261C232.272 112.913 231.191 112.913 230.192 113.261L199.656 123.92C194.803 125.609 190.582 128.857 187.592 133.201C184.602 137.545 182.995 142.765 183 148.12V174.229C183 212.817 227.833 234.129 229.753 235.017C230.376 235.307 231.05 235.456 231.731 235.456C232.413 235.456 233.087 235.307 233.71 235.017C235.63 234.129 280.463 212.817 280.463 174.229V148.12C280.468 142.765 278.86 137.544 275.869 133.2C272.878 128.855 268.656 125.608 263.802 123.92ZM235.9 174.769C239.311 173.238 241.693 169.761 241.693 165.717C241.693 160.258 237.354 155.832 232.001 155.832C226.648 155.832 222.308 160.258 222.308 165.717C222.308 169.812 224.751 173.326 228.231 174.826L225.35 188.232C224.834 190.629 226.625 192.899 229.032 192.899H235.472C237.919 192.899 239.718 190.558 239.132 188.135L235.9 174.769Z" fill="#626262"/>
</g>
<defs>
<clipPath id="clip0_6059_3655">
<rect width="322" height="322" fill="white"/>
</clipPath>
</defs>
</svg>
