<svg width="24" height="24" viewBox="0 0 24 24" fill="none" xmlns="http://www.w3.org/2000/svg">
<path d="M2.23806 5.53795L1.56006 6.21595V12.006V17.796L2.26806 18.498L2.98206 19.2H12.0001H21.0181L21.7321 18.498L22.4401 17.796V12.006V6.21595L21.7621 5.53795L21.0841 4.85995H12.0001H2.91606L2.23806 5.53795ZM21.4921 5.80195L22.0801 6.38995V12.03V17.676L21.4861 18.258L20.8981 18.84H12.0001H3.10206L2.51406 18.258L1.92006 17.676V12.036V6.38995L2.50206 5.80795L3.09006 5.21995H12.0001H20.9101L21.4921 5.80195Z" fill="black"/>
<path d="M4.05 6.11383C3.984 6.14383 3.72 6.38383 3.468 6.64783L3 7.12783V8.83183V10.5358L3.534 11.0578L4.062 11.5798H4.944C5.592 11.5798 5.868 11.5558 5.988 11.4958C6.18 11.3938 6.858 10.7038 6.96 10.5118C7.122 10.1878 6.846 9.77983 6.462 9.77983C6.258 9.77983 6.18 9.82783 5.856 10.1398L5.478 10.4998H4.974C4.476 10.4998 4.458 10.4938 4.272 10.3018L4.08 10.1038V8.81383V7.52983L4.29 7.33183C4.494 7.14583 4.524 7.13983 4.986 7.13983H5.472L5.838 7.49383C6.042 7.68583 6.27 7.86583 6.342 7.88383C6.552 7.94983 6.882 7.76383 6.96 7.53583C7.05 7.24783 6.978 7.11583 6.426 6.56983L5.94 6.08983L5.052 6.07783C4.566 6.07183 4.116 6.08383 4.05 6.11383Z" fill="black"/>
<path d="M8.73005 6.11994C8.66405 6.14394 8.40005 6.38394 8.14805 6.64794L7.68005 7.12794V8.82594V10.5239L8.21405 11.0579L8.74805 11.5859L9.71405 11.5679L10.6801 11.5499L11.1721 11.0519L11.6701 10.5599L11.6881 8.95794C11.7001 8.06994 11.6881 7.28394 11.6701 7.20594C11.6281 7.03194 10.9021 6.26394 10.6681 6.14394C10.4881 6.04794 8.94605 6.02994 8.73005 6.11994ZM10.3921 7.36194L10.6201 7.58394V8.81394V10.0439L10.3981 10.2719L10.1761 10.4999H9.67205C9.18005 10.4999 9.16205 10.4939 8.96405 10.2959L8.76005 10.0919V8.84394V7.59594L8.98205 7.36794C9.20405 7.13994 9.21005 7.13994 9.68405 7.13994C10.1581 7.13994 10.1701 7.14594 10.3921 7.36194Z" fill="black"/>
<path d="M12.6541 6.14994C12.3661 6.31194 12.3541 6.40194 12.3721 8.92794L12.3901 11.2739L12.5281 11.4119C12.6601 11.5499 12.6841 11.5499 14.3461 11.5679L16.0261 11.5859L16.2001 11.4059C16.4821 11.1299 16.4341 10.7459 16.0981 10.5719C16.0141 10.5239 15.5521 10.4999 14.7061 10.4999H13.4401V8.46594C13.4401 6.43794 13.4401 6.42594 13.3081 6.27594C13.1401 6.08394 12.8641 6.02994 12.6541 6.14994Z" fill="black"/>
<path d="M17.4061 6.14383C17.1121 6.31183 17.1061 6.35383 17.1001 8.80783C17.1001 11.3098 17.1121 11.3998 17.4361 11.5198C17.5201 11.5558 18.1441 11.5798 18.8221 11.5798H20.0581L20.5861 11.0578L21.1201 10.5358V8.83183V7.12183L20.6101 6.60583L20.1061 6.08983L18.8281 6.07783C17.8441 6.06583 17.5201 6.07783 17.4061 6.14383ZM19.8301 7.36183L20.0341 7.58983L20.0401 8.85583V10.1158L19.8421 10.3078L19.6381 10.5058L18.9241 10.4878L18.2101 10.4698L18.1921 8.87983C18.1861 8.00383 18.1921 7.25983 18.2101 7.21783C18.2281 7.15783 18.4261 7.13983 18.9301 7.13983H19.6201L19.8301 7.36183Z" fill="black"/>
<path d="M4.02 12.54C3.972 12.57 3.72 12.804 3.468 13.062L3 13.524V15.228V16.932L3.462 17.406C3.72 17.67 3.996 17.904 4.092 17.928C4.182 17.952 4.65 17.958 5.13 17.94L6 17.91L6.474 17.436C6.756 17.154 6.972 16.89 6.99 16.794C7.068 16.446 6.684 16.074 6.348 16.17C6.27 16.194 6.06 16.362 5.874 16.542L5.538 16.872H5.016C4.5 16.878 4.488 16.872 4.284 16.674L4.08 16.476V15.21V13.944L4.278 13.752C4.47 13.566 4.494 13.56 4.98 13.56H5.478L5.856 13.92C6.18 14.232 6.258 14.28 6.462 14.28C6.786 14.28 6.99 14.064 6.99 13.734C6.99 13.512 6.948 13.452 6.474 12.984L5.958 12.48H5.034C4.524 12.48 4.068 12.504 4.02 12.54Z" fill="black"/>
<path d="M8.56805 13.368L7.68005 14.256V15.936C7.68005 17.352 7.69205 17.634 7.77005 17.748C7.89005 17.916 8.19605 18 8.41805 17.922C8.70605 17.826 8.76005 17.622 8.76005 16.65V15.78H9.69005H10.6201V16.698C10.6201 17.718 10.6561 17.838 10.9981 17.928C11.2561 18 11.5021 17.904 11.6101 17.694C11.7361 17.454 11.7421 14.472 11.6161 14.232C11.5681 14.142 11.1661 13.71 10.7221 13.272C9.63005 12.198 9.74405 12.192 8.56805 13.368ZM10.5001 14.652C10.5001 14.682 10.1341 14.7 9.69005 14.7C9.24605 14.7 8.88005 14.682 8.88005 14.658C8.88005 14.634 9.06005 14.43 9.28205 14.208L9.68405 13.8L10.0921 14.202C10.3201 14.424 10.5001 14.628 10.5001 14.652Z" fill="black"/>
<path d="M12.5341 12.6541L12.3601 12.8281V15.1741C12.3601 16.7881 12.3841 17.5621 12.4261 17.6641C12.5221 17.8741 12.8101 18.0001 13.0441 17.9341C13.3741 17.8441 13.4401 17.6941 13.4401 17.0641V16.5001H13.7821H14.1241L14.8201 17.1841C15.6001 17.9581 15.7441 18.0421 16.0501 17.9161C16.2841 17.8141 16.3801 17.6641 16.3801 17.4001C16.3801 17.2441 16.3021 17.1241 15.9481 16.7641L15.5221 16.3201L15.9481 15.8761L16.3801 15.4321V14.4901V13.5421L15.8581 13.0141L15.3361 12.4801H14.0221H12.7081L12.5341 12.6541ZM15.1021 13.7521C15.3001 13.9441 15.3001 13.9501 15.3001 14.4961V15.0481L15.0901 15.2341C14.8741 15.4201 14.8741 15.4201 14.1601 15.4201H13.4401V14.4901V13.5601H14.1721H14.9041L15.1021 13.7521Z" fill="black"/>
<path d="M17.298 12.624L17.13 12.768V15.204V17.64L17.286 17.79L17.442 17.946H18.786L20.13 17.94L20.628 17.436L21.12 16.938V15.222V13.5L20.718 13.074C20.496 12.84 20.244 12.612 20.154 12.564C20.022 12.498 19.698 12.48 18.726 12.48C17.484 12.48 17.466 12.48 17.298 12.624ZM19.842 13.752L20.04 13.944V15.21V16.476L19.836 16.674C19.602 16.902 19.428 16.932 18.678 16.878L18.18 16.842V15.24C18.18 14.358 18.198 13.62 18.222 13.602C18.24 13.578 18.57 13.56 18.954 13.56H19.644L19.842 13.752Z" fill="black"/>
<path d="M22.1101 18.3539C22.0921 18.3899 22.0921 18.4499 22.1161 18.4919C22.1461 18.5399 22.1281 18.5459 22.0621 18.5219C21.9061 18.4619 21.8881 18.5699 22.0321 18.6959C22.1041 18.7619 22.1401 18.7739 22.1101 18.7259C22.0741 18.6599 22.0861 18.6479 22.1701 18.6779C22.2541 18.7139 22.2661 18.6959 22.2421 18.5999C22.2181 18.4979 22.2241 18.4859 22.2961 18.5459C22.4221 18.6479 22.3981 18.5159 22.2661 18.3959C22.1941 18.3299 22.1401 18.3119 22.1101 18.3539Z" fill="black"/>
<path d="M21.7261 18.738C21.6481 18.816 21.6361 18.906 21.7081 18.888C21.7321 18.888 21.7981 18.9 21.8581 18.93C22.0081 18.996 22.0261 18.948 21.9061 18.798C21.8221 18.702 21.7801 18.684 21.7261 18.738Z" fill="black"/>
</svg>
