<svg width="10" height="10" viewBox="0 0 10 10" fill="none" xmlns="http://www.w3.org/2000/svg">
<g clip-path="url(#clip0_1167_5313)">
<path d="M4.11584 7.55084C4.60385 8.03916 5.3953 8.03941 5.88362 7.55141C5.88381 7.55121 5.88399 7.55103 5.88418 7.55084L7.22209 6.21293C7.37643 6.04225 7.36317 5.77875 7.19249 5.62441C7.03356 5.48072 6.79157 5.48098 6.63293 5.625L5.41377 6.84459L5.41668 0.41668C5.41667 0.186543 5.23012 0 5.00001 0C4.76989 0 4.58334 0.186543 4.58334 0.41666L4.57959 6.83666L3.36709 5.625C3.20428 5.4623 2.94042 5.4624 2.77772 5.62521C2.61502 5.78803 2.61512 6.05189 2.77793 6.21459L4.11584 7.55084Z" fill="black"/>
<path d="M9.58334 6.66663C9.35322 6.66663 9.16668 6.85317 9.16668 7.08329V8.74997C9.16668 8.98008 8.98014 9.16663 8.75002 9.16663H1.25C1.01988 9.16663 0.83334 8.98008 0.83334 8.74997V7.08331C0.83334 6.85319 0.646797 6.66665 0.41668 6.66665C0.186543 6.66663 0 6.85319 0 7.08331V8.74997C0 9.44032 0.559648 9.99997 1.25 9.99997H8.75C9.44035 9.99997 10 9.44032 10 8.74997V7.08331C10 6.85319 9.81346 6.66663 9.58334 6.66663Z" fill="black"/>
</g>
<defs>
<clipPath id="clip0_1167_5313">
<rect width="10" height="10" fill="white"/>
</clipPath>
</defs>
</svg>
