<svg width="24" height="24" viewBox="0 0 24 24" fill="none" xmlns="http://www.w3.org/2000/svg">
<path d="M12.1594 2C12.8494 2 13.4087 2.55933 13.4087 3.24929V7.41359C13.4087 8.10355 12.8494 8.66288 12.1594 8.66288C11.4695 8.66288 10.9102 8.10355 10.9102 7.41359V3.24929C10.9102 2.55933 11.4694 2 12.1594 2Z" fill="white"/>
<path d="M15.0744 6.11421C15.0682 6.53358 15.2797 6.92625 15.6332 7.15194C18.7733 9.07049 19.7635 13.1714 17.8449 16.3114C15.9263 19.4514 11.8256 20.4417 8.68548 18.5231C5.54539 16.6046 4.55517 12.5037 6.47377 9.36365C7.02197 8.46642 7.77475 7.71166 8.67052 7.16108C9.03012 6.93538 9.24726 6.53955 9.24438 6.11499C9.24629 5.42503 8.68852 4.86418 7.99856 4.86227C7.76159 4.86161 7.5293 4.92836 7.32883 5.05478C3.03069 7.7245 1.71063 13.373 4.38031 17.6711C7.05 21.9692 12.6985 23.2893 16.9966 20.6196C21.2947 17.9499 22.6148 12.3014 19.9451 8.00329C19.2019 6.8069 18.193 5.79795 16.9966 5.05482C16.4111 4.68546 15.6371 4.86067 15.2677 5.44615C15.1415 5.64612 15.0745 5.87774 15.0744 6.11421Z" fill="white"/>
</svg>
