<svg width="24" height="24" viewBox="0 0 24 24" fill="none" xmlns="http://www.w3.org/2000/svg">
<path d="M20 0H5C3.35 0 2 1.35 2 3V21C2 22.65 3.35 24 5 24H22V2C22 0.9 21.1 0 20 0ZM20 18H8V2H20V18ZM5 2H6V18H5C4.65 18 4.31 18.06 4 18.17V3C4 2.45 4.45 2 5 2ZM5 22C4.45 22 4 21.55 4 21C4 20.45 4.45 20 5 20H20V22H5ZM11.49 15.02L12.2 13.02H15.79L16.5 15.02H18.62L15.4 6C15.18 5.4 14.63 5.01 13.99 5.01C13.35 5.01 12.8 5.4 12.58 6.01L9.36 15.03H11.48L11.49 15.02ZM14 7.99L15.08 11.02H12.92L14 7.99Z" fill="#555555"/>
<path d="M20 0H5C3.35 0 2 1.35 2 3V21C2 22.65 3.35 24 5 24H22V2C22 0.9 21.1 0 20 0ZM20 18H8V2H20V18ZM5 2H6V18H5C4.65 18 4.31 18.06 4 18.17V3C4 2.45 4.45 2 5 2ZM5 22C4.45 22 4 21.55 4 21C4 20.45 4.45 20 5 20H20V22H5ZM11.49 15.02L12.2 13.02H15.79L16.5 15.02H18.62L15.4 6C15.18 5.4 14.63 5.01 13.99 5.01C13.35 5.01 12.8 5.4 12.58 6.01L9.36 15.03H11.48L11.49 15.02ZM14 7.99L15.08 11.02H12.92L14 7.99Z" fill="black" fill-opacity="0.2"/>
<path d="M20 0H5C3.35 0 2 1.35 2 3V21C2 22.65 3.35 24 5 24H22V2C22 0.9 21.1 0 20 0ZM20 18H8V2H20V18ZM5 2H6V18H5C4.65 18 4.31 18.06 4 18.17V3C4 2.45 4.45 2 5 2ZM5 22C4.45 22 4 21.55 4 21C4 20.45 4.45 20 5 20H20V22H5ZM11.49 15.02L12.2 13.02H15.79L16.5 15.02H18.62L15.4 6C15.18 5.4 14.63 5.01 13.99 5.01C13.35 5.01 12.8 5.4 12.58 6.01L9.36 15.03H11.48L11.49 15.02ZM14 7.99L15.08 11.02H12.92L14 7.99Z" fill="black" fill-opacity="0.2"/>
<path d="M20 0H5C3.35 0 2 1.35 2 3V21C2 22.65 3.35 24 5 24H22V2C22 0.9 21.1 0 20 0ZM20 18H8V2H20V18ZM5 2H6V18H5C4.65 18 4.31 18.06 4 18.17V3C4 2.45 4.45 2 5 2ZM5 22C4.45 22 4 21.55 4 21C4 20.45 4.45 20 5 20H20V22H5ZM11.49 15.02L12.2 13.02H15.79L16.5 15.02H18.62L15.4 6C15.18 5.4 14.63 5.01 13.99 5.01C13.35 5.01 12.8 5.4 12.58 6.01L9.36 15.03H11.48L11.49 15.02ZM14 7.99L15.08 11.02H12.92L14 7.99Z" fill="black" fill-opacity="0.2"/>
</svg>
