<svg width="22" height="22" viewBox="0 0 22 22" fill="none" xmlns="http://www.w3.org/2000/svg">
<path d="M19.3499 7.92293L18.9837 7.7192C18.9269 7.68756 18.8989 7.67169 18.8714 7.65524C18.5983 7.49165 18.3682 7.26564 18.2002 6.99523C18.1833 6.96802 18.1674 6.93949 18.1348 6.8831C18.1023 6.82677 18.0858 6.79823 18.0706 6.76998C17.92 6.48866 17.8385 6.17515 17.8336 5.85606C17.8331 5.82398 17.8332 5.79121 17.8343 5.72604L17.8415 5.30078C17.8529 4.62025 17.8587 4.27894 17.763 3.97262C17.6781 3.70053 17.536 3.44993 17.3462 3.23725C17.1317 2.99685 16.8347 2.82534 16.2402 2.48276L15.7464 2.1982C15.1536 1.85658 14.8571 1.68571 14.5423 1.62057C14.2639 1.56294 13.9765 1.56561 13.6991 1.62789C13.3859 1.69819 13.0931 1.87351 12.5079 2.22396L12.5045 2.22555L12.1507 2.43741C12.0948 2.47091 12.0665 2.48779 12.0384 2.50338C11.7601 2.6581 11.4495 2.74365 11.1312 2.75387C11.0992 2.7549 11.0665 2.7549 11.0013 2.7549C10.9365 2.7549 10.9024 2.7549 10.8704 2.75387C10.5515 2.74361 10.2402 2.65759 9.96151 2.50224C9.93342 2.48658 9.90563 2.46956 9.84957 2.4359L9.49349 2.22213C8.90422 1.86836 8.60915 1.69121 8.29427 1.62057C8.0157 1.55807 7.72737 1.55634 7.44791 1.61471C7.13236 1.68062 6.83577 1.85276 6.24258 2.19703L6.23994 2.1982L5.75228 2.48124L5.74688 2.48454C5.15904 2.82572 4.86441 2.99672 4.6517 3.23614C4.46294 3.4486 4.32185 3.69881 4.2374 3.97018C4.14194 4.27691 4.14703 4.61896 4.15853 5.3027L4.16568 5.72736C4.16676 5.79166 4.16864 5.82362 4.16817 5.85525C4.16343 6.17499 4.08086 6.48914 3.92974 6.77096C3.9148 6.79883 3.8987 6.8267 3.86654 6.88237C3.83436 6.93809 3.81877 6.96579 3.80209 6.99268C3.63336 7.26452 3.40214 7.49186 3.12733 7.65572C3.10015 7.67193 3.0715 7.68752 3.01521 7.71871L2.65365 7.91908C2.05208 8.25245 1.75137 8.41928 1.53256 8.65669C1.33898 8.86672 1.19275 9.11585 1.10349 9.38717C1.00259 9.69387 1.00267 10.0378 1.00424 10.7255L1.00551 11.2877C1.00706 11.9708 1.00919 12.3122 1.11032 12.6168C1.19979 12.8863 1.34495 13.134 1.53744 13.3427C1.75502 13.5787 2.05274 13.7445 2.64974 14.0766L3.00808 14.276C3.06907 14.3099 3.09976 14.3266 3.12917 14.3444C3.40148 14.5083 3.63089 14.735 3.79818 15.0053C3.81625 15.0345 3.8336 15.0648 3.8683 15.1255C3.90256 15.1853 3.92009 15.2152 3.93594 15.2452C4.08261 15.5229 4.16114 15.8315 4.16649 16.1455C4.16707 16.1794 4.16658 16.2137 4.16541 16.2827L4.15853 16.6902C4.14695 17.3763 4.1419 17.7197 4.23792 18.0273C4.32287 18.2994 4.46484 18.55 4.65463 18.7627C4.86915 19.0031 5.16655 19.1745 5.76107 19.5171L6.25478 19.8015C6.84763 20.1432 7.14395 20.3138 7.45869 20.379C7.73714 20.4366 8.02464 20.4344 8.30209 20.3721C8.61567 20.3017 8.90948 20.1258 9.49642 19.7743L9.85025 19.5625C9.90622 19.5289 9.93457 19.5121 9.96261 19.4965C10.2409 19.3418 10.5512 19.2558 10.8695 19.2456C10.9015 19.2446 10.9342 19.2446 10.9994 19.2446C11.0648 19.2446 11.0974 19.2446 11.1295 19.2456C11.4484 19.2559 11.7607 19.3422 12.0394 19.4975C12.0639 19.5112 12.0885 19.526 12.1316 19.5519L12.5078 19.7777C13.0971 20.1315 13.3916 20.3081 13.7065 20.3788C13.985 20.4413 14.2736 20.4438 14.5531 20.3855C14.8685 20.3196 15.1657 20.1471 15.7586 19.803L16.2536 19.5157C16.8418 19.1743 17.1367 19.0031 17.3495 18.7636C17.5383 18.5512 17.6796 18.3011 17.764 18.0297C17.8588 17.7252 17.8531 17.3858 17.8417 16.7119L17.8343 16.2724C17.8332 16.2081 17.8331 16.1761 17.8336 16.1445C17.8383 15.8247 17.9195 15.5104 18.0706 15.2286C18.0856 15.2007 18.1018 15.1726 18.1338 15.1171C18.166 15.0615 18.1827 15.0337 18.1994 15.0068C18.3681 14.7349 18.5995 14.5074 18.8744 14.3435C18.9012 14.3275 18.9289 14.3122 18.9838 14.2818L18.9857 14.2809L19.3472 14.0805C19.9488 13.7472 20.2501 13.5801 20.4689 13.3427C20.6625 13.1327 20.8085 12.8839 20.8978 12.6126C20.9981 12.3077 20.9973 11.9658 20.9958 11.2861L20.9945 10.7119C20.9929 10.0287 20.9921 9.6874 20.891 9.38277C20.8015 9.11328 20.6555 8.86561 20.463 8.65685C20.2457 8.42111 19.9475 8.25526 19.3517 7.92378L19.3499 7.92293Z" stroke="#141318" stroke-width="2" stroke-linecap="round" stroke-linejoin="round"/>
<path d="M7.00033 11C7.00033 13.2091 8.79119 15 11.0003 15C13.2095 15 15.0003 13.2091 15.0003 11C15.0003 8.79082 13.2095 6.99996 11.0003 6.99996C8.79119 6.99996 7.00033 8.79082 7.00033 11Z" stroke="#141318" stroke-width="2" stroke-linecap="round" stroke-linejoin="round"/>
</svg>
