<svg width="24" height="24" viewBox="0 0 24 24" fill="none" xmlns="http://www.w3.org/2000/svg">
<path fill-rule="evenodd" clip-rule="evenodd" d="M11.9999 2.66659C6.84526 2.66659 2.66659 6.84526 2.66659 11.9999C2.66659 17.1546 6.84526 21.3333 11.9999 21.3333C17.1546 21.3333 21.3333 17.1546 21.3333 11.9999C21.3333 6.84526 17.1546 2.66659 11.9999 2.66659ZM0.333252 11.9999C0.333252 5.5566 5.5566 0.333252 11.9999 0.333252C18.4432 0.333252 23.6666 5.5566 23.6666 11.9999C23.6666 18.4432 18.4432 23.6666 11.9999 23.6666C5.5566 23.6666 0.333252 18.4432 0.333252 11.9999ZM16.3249 8.84163C16.7805 9.29724 16.7805 10.0359 16.3249 10.4915L11.6582 15.1582C11.2026 15.6138 10.4639 15.6138 10.0083 15.1582L7.67496 12.8249C7.21935 12.3693 7.21935 11.6306 7.67496 11.175C8.13057 10.7193 8.86926 10.7193 9.32488 11.175L10.8333 12.6833L14.675 8.84163C15.1306 8.38602 15.8693 8.38602 16.3249 8.84163Z" fill="#88C125"/>
</svg>
