<svg width="24" height="24" viewBox="0 0 24 24" fill="none" xmlns="http://www.w3.org/2000/svg">
<path d="M12 15L9 12M9 12L12 9M9 12H20M20 7.24802V7.2002C20 6.08009 20 5.51962 19.782 5.0918C19.5903 4.71547 19.2845 4.40973 18.9082 4.21799C18.4804 4 17.9199 4 16.7998 4H7.1998C6.0797 4 5.52043 4 5.09261 4.21799C4.71628 4.40973 4.40952 4.71547 4.21777 5.0918C4 5.5192 4 6.07899 4 7.19691V16.8036C4 17.9215 4 18.4805 4.21777 18.9079C4.40952 19.2842 4.71628 19.5905 5.09261 19.7822C5.52001 20 6.079 20 7.19691 20H16.8031C17.921 20 18.4808 20 18.9082 19.7822C19.2845 19.5905 19.5903 19.2839 19.782 18.9076C20 18.4798 20 17.9201 20 16.8V16.75" stroke="white" stroke-width="2" stroke-linecap="round" stroke-linejoin="round"/>
</svg>
