<svg width="24" height="24" viewBox="0 0 24 24" fill="none" xmlns="http://www.w3.org/2000/svg">
<g clip-path="url(#clip0_4401_4248)">
<path d="M24 15C24 15.617 23.76 16.197 23.322 16.634L21.25 18.707C21.055 18.902 20.799 19 20.543 19C20.287 19 20.031 18.902 19.836 18.707C19.445 18.316 19.445 17.684 19.836 17.293L21.128 16H15C14.447 16 14 15.553 14 15C14 14.447 14.447 14 15 14H21.128L19.836 12.707C19.445 12.316 19.445 11.684 19.836 11.293C20.227 10.902 20.859 10.902 21.25 11.293L23.323 13.367C23.76 13.803 24 14.383 24 15ZM6.5 11C5.672 11 5 11.672 5 12.5C5 13.328 5.672 14 6.5 14C7.328 14 8 13.328 8 12.5C8 11.672 7.328 11 6.5 11ZM16 19V21C16 22.654 14.654 24 13 24H3C1.346 24 0 22.654 0 21V5.62102C0 3.24602 1.69 1.18402 4.019 0.718025L7.216 0.0790246C8.397 -0.156975 9.607 0.145025 10.537 0.908025C10.912 1.21502 11.202 1.59302 11.439 2.00002H12C14.206 2.00002 16 3.79402 16 6.00002V11C16 11.553 15.553 12 15 12C14.447 12 14 11.553 14 11V6.00002C14 4.89702 13.103 4.00002 12 4.00002V21.999H13C13.552 21.999 14 21.551 14 20.999V18.999C14 18.446 14.447 17.999 15 17.999C15.553 17.999 16 18.447 16 19ZM10 4.00102C10 3.39902 9.733 2.83602 9.269 2.45502C8.907 2.15802 8.461 2.00102 8.003 2.00102C7.872 2.00102 7.739 2.01402 7.607 2.04002L4.411 2.67902C3.014 2.95802 2 4.19602 2 5.62102V21C2 21.552 2.449 22 3 22H10V4.00102Z" fill="white"/>
</g>
<defs>
<clipPath id="clip0_4401_4248">
<rect width="24" height="24" fill="white"/>
</clipPath>
</defs>
</svg>
