<svg width="24" height="24" viewBox="0 0 24 24" fill="none" xmlns="http://www.w3.org/2000/svg">
<path d="M15 7.24859V7.2002C15 6.08009 15 5.51962 14.782 5.0918C14.5903 4.71547 14.2845 4.40973 13.9082 4.21799C13.4804 4 12.9199 4 11.7998 4H7.1998C6.0797 4 5.52043 4 5.09261 4.21799C4.71628 4.40973 4.40952 4.71547 4.21777 5.0918C4 5.5192 4 6.07899 4 7.19691V16.8036C4 17.9215 4 18.4805 4.21777 18.9079C4.40952 19.2842 4.71628 19.5905 5.09261 19.7822C5.52001 20 6.079 20 7.19691 20H11.8031C12.921 20 13.4808 20 13.9082 19.7822C14.2845 19.5905 14.5903 19.2839 14.782 18.9076C15 18.4798 15 17.9201 15 16.8V16.75" stroke="black" stroke-width="2" stroke-linecap="round" stroke-linejoin="round"/>
<path d="M18 15L21 12M21 12L18 9M21 12H10" stroke="black" stroke-width="2" stroke-linecap="round" stroke-linejoin="round"/>
</svg>
