<svg width="256" height="256" viewBox="0 0 256 256" fill="none" xmlns="http://www.w3.org/2000/svg">
<path d="M234.667 106.667H149.333V21.3333C149.333 15.6754 147.086 10.2492 143.085 6.24839C139.084 2.24762 133.658 0 128 0C122.342 0 116.916 2.24762 112.915 6.24839C108.914 10.2492 106.667 15.6754 106.667 21.3333V106.667H21.3333C15.6754 106.667 10.2492 108.914 6.24839 112.915C2.24762 116.916 0 122.342 0 128C0 133.658 2.24762 139.084 6.24839 143.085C10.2492 147.086 15.6754 149.333 21.3333 149.333H106.667V234.667C106.667 240.325 108.914 245.751 112.915 249.752C116.916 253.752 122.342 256 128 256C133.658 256 139.084 253.752 143.085 249.752C147.086 245.751 149.333 240.325 149.333 234.667V149.333H234.667C240.325 149.333 245.751 147.086 249.752 143.085C253.752 139.084 256 133.658 256 128C256 122.342 253.752 116.916 249.752 112.915C245.751 108.914 240.325 106.667 234.667 106.667Z" fill="black"/>
</svg>
