<svg width="15" height="14" viewBox="0 0 15 14" fill="none" xmlns="http://www.w3.org/2000/svg">
<g clip-path="url(#clip0_9394_17804)">
<g clip-path="url(#clip1_9394_17804)">
<path d="M2.83333 6.41667H6.91667V2.33333H2.83333V6.41667ZM4 3.5H5.75V5.25H4V3.5ZM12.1667 2.33333H8.08333V6.41667H12.1667V2.33333ZM11 5.25H9.25V3.5H11V5.25ZM2.83333 11.6667H6.91667V7.58333H2.83333V11.6667ZM4 8.75H5.75V10.5H4V8.75ZM2.25 12.8333H4.58333V14H2.25C1.28517 14 0.5 13.2148 0.5 12.25V9.91667H1.66667V12.25C1.66667 12.5714 1.92858 12.8333 2.25 12.8333ZM13.3333 9.91667H14.5V12.25C14.5 13.2148 13.7148 14 12.75 14H10.4167V12.8333H12.75C13.0714 12.8333 13.3333 12.5714 13.3333 12.25V9.91667ZM14.5 1.75V4.08333H13.3333V1.75C13.3333 1.42858 13.0714 1.16667 12.75 1.16667H10.4167V0H12.75C13.7148 0 14.5 0.785167 14.5 1.75ZM1.66667 4.08333H0.5V1.75C0.5 0.785167 1.28517 0 2.25 0H4.58333V1.16667H2.25C1.92858 1.16667 1.66667 1.42858 1.66667 1.75V4.08333ZM8.08333 9.91667H9.83333V11.6667H8.08333V9.91667ZM10.4167 9.33333V7.58333H12.1667V9.33333H10.4167ZM8.08333 7.58333H9.83333V9.33333H8.08333V7.58333Z" fill="black"/>
</g>
</g>
<defs>
<clipPath id="clip0_9394_17804">
<rect width="14" height="14" fill="white" transform="translate(0.5)"/>
</clipPath>
<clipPath id="clip1_9394_17804">
<rect width="14" height="14" fill="white" transform="translate(0.5)"/>
</clipPath>
</defs>
</svg>
