<svg width="54" height="48" viewBox="0 0 54 48" fill="none" xmlns="http://www.w3.org/2000/svg">
<path fill-rule="evenodd" clip-rule="evenodd" d="M21.9301 27.6462C23.8702 21.9233 28.5874 17.4819 34.4772 15.9268C32.9064 14.0812 30.5776 12.9067 27.9645 12.9067C23.2105 12.9067 19.36 16.7572 19.36 21.5111C19.36 23.9137 20.3435 26.0856 21.9301 27.6462ZM27.9645 8.60445C32.8453 8.60445 37.0995 11.3236 39.2926 15.3274C44.0717 15.3711 48.4095 17.2618 51.6267 20.3203V6.45333C51.6267 2.904 48.7227 0 45.1734 0H6.45334C2.904 0 0 2.904 0 6.45333V10.7556H6.45334V15.0578H0V30.1156H6.45334V34.4178H0V43.0222H4.30223V47.3244H8.60445V43.0222H23.6833C21.9652 40.2491 20.9733 36.9787 20.9733 33.4767C20.9733 33.1081 20.9843 32.7421 21.006 32.379C17.4302 30.0824 15.0578 26.0702 15.0578 21.5111C15.0578 14.3909 20.8443 8.60445 27.9645 8.60445ZM25.8222 30.4936C27.6924 22.9248 35.3443 18.3053 42.9131 20.1756C50.4819 22.0458 55.1014 29.6977 53.2311 37.2665C51.3608 44.8352 43.709 49.4548 36.1402 47.5845C28.5714 45.7142 23.9519 38.0623 25.8222 30.4936ZM44.2399 34.1217C44.8741 33.601 45.3503 32.8775 45.5618 32.0216C46.0576 30.0153 44.9253 27.9787 43.0084 27.3115L43.3586 25.8944L41.2566 25.375L40.9099 26.7781L39.5085 26.4318L39.8552 25.0287L37.7531 24.5093L37.4064 25.9123L37.0561 25.8258C35.7038 25.4916 34.3316 26.3212 33.997 27.6752L31.7434 36.7952C31.4088 38.1491 32.2367 39.5224 33.589 39.8566L33.9393 39.9431L33.5926 41.3462L35.6947 41.8656L36.0414 40.4626L37.4428 40.8089L37.0961 42.2119L39.1981 42.7313L39.5448 41.3283L40.2455 41.5014C42.5648 42.0745 44.9159 40.6531 45.4897 38.331C45.8797 36.7526 45.3507 35.1629 44.2399 34.1217ZM36.0991 28.1946C36.1476 27.9982 36.3399 27.8819 36.536 27.9304L42.1415 29.3155C43.1084 29.5545 43.6991 30.5341 43.4598 31.5022C43.2206 32.4704 42.2416 33.0622 41.2748 32.8232L35.319 31.3516L36.0991 28.1946ZM40.7656 39.3968L34.1091 37.752C33.9129 37.7035 33.797 37.5111 33.8455 37.3146L34.799 33.4562L41.8057 35.1876C42.9618 35.4732 43.6736 36.654 43.3876 37.8116C43.1015 38.9691 41.9217 39.6825 40.7656 39.3968Z" fill="black"/>
</svg>
