<svg width="24" height="20" viewBox="0 0 24 20" fill="none" xmlns="http://www.w3.org/2000/svg">
<path d="M22.02 12.19C21.67 10.41 20.95 8.88 19.89 7.65L21.4 6.34C22.69 7.84 23.56 9.67 23.98 11.8L22.02 12.19ZM22.05 14.68L23.95 15.31C22.59 19.39 19.64 19.99 18 19.99C16.59 19.99 15.36 19.37 14.34 18.44C13.16 19.37 11.71 19.99 10 19.99C8.29 19.99 6.73 19.01 5.31 17.53C3.73 19.02 1.92 19.99 0 19.99V17.99C1.41 17.99 2.79 17.2 4.03 15.99C1.62 12.74 0 8.23 0 5.5C0 2.57 2.54 0 5.43 0C8.32 0 11 2.62 11 5.5C11 8.38 9.29 12.85 6.67 16.07C7.76 17.24 8.91 18 10 18C11.17 18 12.19 17.58 13.02 16.94C11.71 15.08 11 12.82 11 11.46C11 9.62 12.64 8.01 14.51 8.01C16.38 8.01 18 9.62 18 11.46C18 12.97 17.23 15.23 15.77 17.04C16.44 17.63 17.19 18.01 18 18.01C19.95 18.01 21.32 16.89 22.05 14.69V14.68ZM5.39 14.45C7.53 11.62 9 7.77 9 5.5C9 3.7 7.26 2 5.43 2C3.6 2 2 3.67 2 5.5C2 7.88 3.46 11.67 5.39 14.45ZM14.45 15.46C15.47 14.06 16 12.41 16 11.46C16 10.73 15.26 10.01 14.51 10.01C13.76 10.01 13 10.74 13 11.46C13 12.41 13.55 14.06 14.45 15.46Z" fill="#303030"/>
</svg>
