<svg width="27" height="24" viewBox="0 0 27 24" fill="none" xmlns="http://www.w3.org/2000/svg">
<path d="M0.07 13V15C1.67 15 3.06 14.32 4.22 13.24C5.36 14.31 6.66 15 8 15C12.14 15 14 11.49 14 9C14 7.35 12.65 6 11 6C9.35 6 8 7.35 8 9C8 10.16 8.61 11.56 9.58 12.71C9.13 12.89 8.61 13 8 13C7.19 13 6.33 12.51 5.53 11.73C7.11 9.49 8 6.48 8 4C8 1.79 6.21 0 4 0C1.79 0 0 1.79 0 4C0 6.21 1.15 9.41 2.89 11.75C2.07 12.52 1.12 13 0.06 13H0.07ZM11 8C11.55 8 12 8.45 12 9C12 9.65 11.76 10.64 11.15 11.47C10.4 10.6 10 9.61 10 9C10 8.45 10.45 8 11 8ZM4 2C5.1 2 6 2.9 6 4C6 5.89 5.34 8.28 4.2 10.12C2.93 8.25 2 5.84 2 4C2 2.9 2.9 2 4 2ZM16.49 7.2C16.18 6.4 15.77 5.67 15.24 5.05L16.75 3.74C17.56 4.68 18.16 5.78 18.55 7.02C18.36 7 18.18 6.99 17.99 6.99C17.47 6.99 16.97 7.06 16.48 7.19L16.49 7.2ZM0 17H10V19H0V17Z" fill="black"/>
<path d="M23.3999 15.9438L20.2383 19.1456C19.9566 19.4366 19.5734 19.5996 19.1664 19.5996C18.7595 19.5996 18.3763 19.4366 18.0882 19.1399L16.3999 17.4547L17.6739 16.1021L19.1646 17.5904L22.1177 14.5996L23.3999 15.9438Z" fill="black"/>
<circle cx="20" cy="17" r="6.1" stroke="black" stroke-width="1.8"/>
</svg>
