<svg width="24" height="24" viewBox="0 0 24 24" fill="none" xmlns="http://www.w3.org/2000/svg">
<g clip-path="url(#clip0_11025_6569)">
<path d="M9.518 22H3C2.449 22 2 21.551 2 21V10H11.349C12.894 8.751 14.859 8 17 8V7C17 3.14 13.86 0 10 0C6.14 0 3 3.14 3 7V8H0V21C0 22.654 1.346 24 3 24H11.349C10.643 23.429 10.024 22.756 9.518 22ZM5 7C5 4.243 7.243 2 10 2C12.757 2 15 4.243 15 7V8H5V7ZM20.992 16.118L17.535 19.517C17.227 19.826 16.808 19.999 16.363 19.999C15.918 19.999 15.499 19.826 15.184 19.511L13.338 17.722L14.731 16.286L16.361 17.866L19.59 14.691L20.992 16.118ZM17 10C14.215 10 11.811 11.639 10.685 14H9V18H10.08C10.568 21.386 13.481 24 17 24C20.86 24 24 20.859 24 17C24 13.141 20.86 10 17 10ZM17 22C14.243 22 12 19.757 12 17C12 14.243 14.243 12 17 12C19.757 12 22 14.243 22 17C22 19.757 19.757 22 17 22Z" fill="black"/>
</g>
<defs>
<clipPath id="clip0_11025_6569">
<rect width="24" height="24" fill="white"/>
</clipPath>
</defs>
</svg>
