<svg width="24" height="22" viewBox="0 0 24 22" fill="none" xmlns="http://www.w3.org/2000/svg">
<path fill-rule="evenodd" clip-rule="evenodd" d="M12.4744 2.9342C12.1724 2.79971 11.827 2.79971 11.525 2.9342C11.4724 2.95758 11.3168 3.05155 10.9998 3.50018C10.6864 3.94382 10.3195 4.57685 9.77796 5.51486L4.11897 15.3165C3.57702 16.2552 3.212 16.8899 2.98445 17.3835C2.75434 17.8826 2.75074 18.0647 2.75678 18.1221C2.79131 18.4507 2.96385 18.7496 3.23153 18.9441C3.27813 18.9779 3.4373 19.0657 3.98414 19.1159C4.52497 19.1656 5.25656 19.1667 6.33984 19.1667H17.6599C18.7432 19.1667 19.4748 19.1656 20.0155 19.1159C20.5623 19.0658 20.7215 18.9779 20.7681 18.9441C21.0359 18.7495 21.2085 18.4505 21.243 18.1221C21.249 18.0646 21.2454 17.8825 21.0154 17.3834C20.7879 16.8899 20.4229 16.2552 19.881 15.3165L14.2229 5.51651C13.681 4.5778 13.3138 3.94438 13.0002 3.50059C12.6831 3.05183 12.5272 2.9577 12.4744 2.9342ZM10.5759 0.802591C11.4821 0.399136 12.5173 0.399136 13.4235 0.802591C14.0633 1.08745 14.5191 1.60686 14.9057 2.15397C15.2891 2.69651 15.7098 3.42517 16.2168 4.30342L21.9276 14.1947C22.4351 15.0737 22.8561 15.8029 23.1344 16.4066C23.4149 17.0151 23.6367 17.6696 23.5635 18.366C23.4598 19.3529 22.9417 20.249 22.1396 20.8318C21.573 21.2434 20.8955 21.3783 20.2288 21.4395C19.5684 21.5001 18.7287 21.5001 17.7169 21.5001H6.2829C5.27109 21.5001 4.43134 21.5001 3.77092 21.4395C3.10416 21.3783 2.42658 21.2434 1.86004 20.8318C1.05774 20.2489 0.539936 19.3528 0.436226 18.366C0.363017 17.6695 0.584972 17.015 0.865474 16.4066C1.14367 15.8031 1.56444 15.0744 2.07157 14.196L7.78569 4.2989C8.29151 3.42276 8.71138 2.69547 9.09411 2.15377C9.48045 1.60695 9.93614 1.08744 10.5759 0.802591ZM11.9999 6.3334C12.6442 6.3334 13.1666 6.85573 13.1666 7.50007V12.1667C13.1666 12.8111 12.6442 13.3334 11.9999 13.3334C11.3556 13.3334 10.8332 12.8111 10.8332 12.1667V7.50007C10.8332 6.85573 11.3556 6.3334 11.9999 6.3334ZM10.7751 15.6667C10.7751 15.0224 11.2974 14.5001 11.9418 14.5001H12.0591C12.7035 14.5001 13.2258 15.0224 13.2258 15.6667V15.7834C13.2258 16.4268 12.7049 16.9488 12.0614 16.9501L11.9441 16.9503C11.6342 16.9509 11.3369 16.8282 11.1176 16.6094C10.8983 16.3905 10.7751 16.0934 10.7751 15.7836V15.6667Z" fill="#DA415C"/>
</svg>
