<svg width="29" height="29" viewBox="0 0 29 29" fill="none" xmlns="http://www.w3.org/2000/svg">
<path fill-rule="evenodd" clip-rule="evenodd" d="M26.7331 9.08667C27.4344 8.24568 27.8502 7.17959 27.8502 6.03352C27.8502 3.383 25.6263 1.16029 22.7908 1.16029C21.1263 1.16029 19.6726 1.92625 18.7557 3.09506C20.1947 3.57792 21.4141 4.56658 22.1913 5.88123C22.3528 6.1545 22.493 6.43805 22.6114 6.72933C23.4284 6.83854 24.223 7.1087 24.9477 7.53179C25.6398 7.93578 26.2438 8.46493 26.7331 9.08667ZM27.3831 10.0945C27.5315 10.3805 27.6591 10.679 27.7639 10.9878C28.2585 12.445 28.2141 14.0336 27.639 15.4603C27.0638 16.8871 25.9966 18.0558 24.6344 18.7508C23.645 19.2597 22.5385 19.4918 21.43 19.4227L16.1606 27.313C15.8813 27.7343 15.522 28.0956 15.1033 28.3757C14.6846 28.6558 14.2149 28.8493 13.7216 28.9448C12.9455 29.0968 12.1414 28.9318 11.4857 28.4861C10.8301 28.0403 10.3765 27.3503 10.2246 26.5674C10.1272 26.0701 10.1284 25.5582 10.2283 25.0613C10.3281 24.5645 10.5246 24.0926 10.8063 23.6728L11.254 23.0022C11.505 22.6291 11.8915 22.3708 12.3299 22.2834L13.6426 22.0252L13.4812 21.19C13.3956 20.747 13.488 20.2879 13.7379 19.9136C13.9878 19.5393 14.3748 19.2805 14.8138 19.1941L15.6415 19.0313L15.3856 17.7067C15.3426 17.4874 15.3432 17.2617 15.3873 17.0426C15.4314 16.8235 15.5181 16.6154 15.6424 16.4304L16.0755 15.7817C16.0281 15.6822 15.9834 15.5816 15.9414 15.48C15.0321 15.3618 14.1575 15.0416 13.3818 14.5398L9.17706 16.6915L4.97231 18.8432C4.52509 19.0741 4.03688 19.2131 3.53602 19.2521C3.03515 19.2911 2.53159 19.2294 2.05455 19.0705C1.30332 18.822 0.680509 18.2828 0.322851 17.5714C-0.034807 16.8599 -0.0980824 16.0343 0.146919 15.2758C0.301771 14.7936 0.549826 14.3471 0.876739 13.9621C1.20365 13.5772 1.60294 13.2615 2.05151 13.0332L2.76618 12.6674C3.16538 12.4648 3.62764 12.4291 4.05274 12.5681L5.3239 12.9874L5.5859 12.1786C5.72487 11.7496 6.02703 11.3939 6.42591 11.1897C6.8248 10.9855 7.28773 10.9496 7.71286 11.0898L8.51435 11.3542L8.92988 10.0715C8.99814 9.85883 9.10755 9.66193 9.25176 9.49222C9.39597 9.32251 9.57212 9.18336 9.77001 9.08284L10.4613 8.72899C10.5282 7.61051 10.8924 6.53086 11.5155 5.60339C12.2213 4.54536 13.2241 3.72401 14.3953 3.24453C15.3922 2.83641 16.4726 2.69179 17.5348 2.8198C18.6342 1.12555 20.5773 0 22.7908 0C26.2201 0 29 2.7013 29 6.03352C29 7.59753 28.3876 9.02255 27.3831 10.0945ZM25.4503 10.1812C25.2808 9.96115 25.0914 9.75594 24.8839 9.56838C24.2409 8.98708 23.4498 8.59843 22.5998 8.4462C21.7497 8.29396 20.8744 8.38418 20.0724 8.70669C19.2704 9.0292 18.5736 9.5712 18.0603 10.2717C17.547 10.9722 17.2377 11.8033 17.1671 12.6716C17.0837 13.6272 17.2988 14.5853 17.7823 15.4113C17.8619 15.5495 17.9012 15.7075 17.8959 15.8673C17.8906 16.027 17.8409 16.182 17.7523 16.3145L17.0409 17.3811L17.2968 18.7057C17.3823 19.1487 17.29 19.6079 17.0401 19.9822C16.7902 20.3565 16.4032 20.6153 15.9641 20.7016L15.1365 20.8644L15.2978 21.6996C15.3834 22.1426 15.2911 22.6018 15.0412 22.9761C14.7913 23.3504 14.4042 23.6092 13.9652 23.6955L12.6526 23.9537L12.2048 24.6244C12.0474 24.8589 11.9377 25.1226 11.8819 25.4002C11.8261 25.6779 11.8254 25.9639 11.8798 26.2418C11.9457 26.5817 12.1426 26.8814 12.4273 27.0751C12.7119 27.2687 13.0611 27.3405 13.3981 27.2747C13.6739 27.2211 13.9365 27.1129 14.1707 26.9563C14.4048 26.7997 14.6059 26.5978 14.7622 26.3622L20.3133 18.049C20.4019 17.9164 20.5258 17.8117 20.6707 17.7468C20.8156 17.682 20.9756 17.6597 21.1325 17.6824C21.6454 17.7585 22.1674 17.7467 22.6764 17.6475L22.6723 17.6483C23.5198 17.4824 24.3047 17.0811 24.9385 16.4896C25.5722 15.898 26.0298 15.1397 26.2597 14.3C26.4895 13.4602 26.4825 12.5724 26.2395 11.7365C26.1839 11.5453 26.1164 11.3586 26.0378 11.1773C25.2807 11.6295 24.4162 11.9284 23.4901 12.0292C23.4893 12.0303 23.4886 12.0315 23.4878 12.0326C23.3629 12.2197 23.1694 12.3491 22.9499 12.3923C22.7862 12.4245 22.6167 12.407 22.4629 12.342C22.309 12.277 22.1777 12.1674 22.0856 12.0272C21.9935 11.8869 21.9447 11.7222 21.9453 11.5539C21.9459 11.3856 21.996 11.2213 22.0892 11.0817C22.1824 10.9421 22.3145 10.8336 22.4688 10.7698C22.6231 10.706 22.7927 10.6898 22.9562 10.7232C23.0825 10.7491 23.2008 10.8037 23.3022 10.8824C24.0886 10.8069 24.8171 10.5593 25.4503 10.1812ZM15.4885 12.5337C15.456 12.9073 15.4572 13.2817 15.4911 13.6522C15.4348 13.6359 15.3788 13.6186 15.323 13.6001L15.327 13.6014C14.8345 13.4381 14.3728 13.192 13.9615 12.8735C13.8355 12.7765 13.6849 12.7174 13.527 12.7029C13.3692 12.6883 13.2105 12.719 13.0691 12.7913L4.20947 17.3258C3.9593 17.4547 3.68628 17.5323 3.4062 17.5541C3.12612 17.5759 2.84454 17.5414 2.57774 17.4527C2.25158 17.3446 1.98123 17.1104 1.82603 16.8014C1.67082 16.4924 1.64344 16.1339 1.74989 15.8046C1.83641 15.5351 1.97501 15.2856 2.15768 15.0705C2.34034 14.8554 2.56344 14.679 2.81409 14.5514L3.52875 14.1856L4.79991 14.6049C5.22504 14.7452 5.68797 14.7092 6.08685 14.505C6.48574 14.3009 6.7879 13.9451 6.92687 13.5161L7.18887 12.7074L7.99035 12.9718C8.41549 13.112 8.87842 13.0761 9.2773 12.8719C9.67618 12.6677 9.97835 12.312 10.1173 11.883L10.5328 10.6003L11.6689 10.018C11.8102 9.9458 11.9284 9.83488 12.0101 9.69796C12.0918 9.56105 12.1336 9.40369 12.1308 9.2439C12.107 8.28483 12.3813 7.34231 12.9153 6.54853C13.3958 5.82477 14.067 5.25072 14.8533 4.891C15.6396 4.53129 16.5098 4.40019 17.3659 4.51247C18.222 4.62474 19.0301 4.97593 19.6992 5.5265C20.121 5.8736 20.477 6.29126 20.753 6.75894C20.6935 6.76882 20.6342 6.77957 20.5749 6.79119C20.3582 6.83403 20.1438 6.88806 19.9326 6.95308C18.7255 7.33118 17.6577 8.06427 16.8659 9.05847C16.0742 10.0527 15.5945 11.2627 15.4885 12.5337Z" fill="black"/>
</svg>
