<svg width="15" height="19" viewBox="0 0 15 19" fill="none" xmlns="http://www.w3.org/2000/svg">
<path fill-rule="evenodd" clip-rule="evenodd" d="M7.737 0.0394486L12.4357 1.64801C13.1828 1.9028 13.8327 2.39281 14.293 3.04845C14.7533 3.70408 15.0007 4.49198 15 5.3002V9.24037C15 15.064 8.1 18.2804 7.8045 18.4143C7.70863 18.4581 7.6049 18.4807 7.5 18.4807C7.3951 18.4807 7.29137 18.4581 7.1955 18.4143C6.9 18.2804 0 15.064 0 9.24037V5.3002C-0.000774264 4.49207 0.246493 3.70425 0.706679 3.04862C1.16687 2.393 1.81657 1.90293 2.5635 1.64801L7.263 0.0394486C7.41685 -0.0131597 7.58315 -0.0131597 7.737 0.0394486ZM9.03317 7.9558C9.03317 8.5662 8.66655 9.09098 8.14149 9.32192L8.63886 11.339C8.72903 11.7047 8.45225 12.058 8.07562 12.058H7.08437C6.71393 12.058 6.4384 11.7156 6.51771 11.3537L6.96116 9.33043C6.42558 9.10406 6.04975 8.57382 6.04975 7.9558C6.04975 7.13195 6.71761 6.46409 7.54146 6.46409C8.36531 6.46409 9.03317 7.13195 9.03317 7.9558Z" fill="#6A6A6A"/>
</svg>
