<svg width="22" height="19" viewBox="0 0 22 19" fill="none" xmlns="http://www.w3.org/2000/svg">
<path d="M2.54419 2.75981C7.30451 1.6721 12.1637 1.93031 15.5002 2.44242V2.50004H14.0002C13.0405 2.50016 12.2388 3.17631 12.0452 4.07816C9.32336 3.902 6.1208 3.99353 2.9895 4.70902C2.69865 4.77557 2.47254 4.99119 2.38891 5.27152L2.36157 5.39555C2.031 7.7815 1.76151 11.7724 2.33422 15.4444L2.36254 15.5664C2.45003 15.8411 2.67963 16.0539 2.97778 16.1182L3.67211 16.2608C5.36254 16.5898 7.5211 16.8895 9.76391 16.9756C12.3389 17.0744 14.9564 16.8884 17.092 16.1905L17.175 16.1573C17.3605 16.0683 17.4948 15.8993 17.5383 15.6914L17.6155 15.2959C17.8496 14.0178 18.0443 12.1545 17.9895 9.93656C18.8573 9.71811 19.5002 8.93563 19.5002 8.00004V6.50004H19.7288C20.2261 10.3336 19.9553 13.625 19.5813 15.6631L19.4963 16.0996C19.3132 16.9767 18.7078 17.6981 17.8821 18.0303L17.7141 18.0918C15.259 18.8943 12.3743 19.0768 9.68774 18.9737C7.3267 18.883 5.06417 18.5687 3.28735 18.2227L2.55688 18.0733C1.41902 17.828 0.53902 16.9153 0.357662 15.753C-0.256268 11.8169 0.0348474 7.61326 0.380123 5.12113L0.419185 4.90629C0.65014 3.84545 1.47104 3.00511 2.54419 2.75981Z" fill="white"/>
<path d="M16.5002 8V5.5H14.0002C13.448 5.5 13.0002 5.05228 13.0002 4.5C13.0002 3.94772 13.448 3.5 14.0002 3.5H16.5002V1C16.5002 0.447715 16.948 0 17.5002 0C18.0525 0 18.5002 0.447715 18.5002 1V3.5H21.0002C21.5525 3.5 22.0002 3.94772 22.0002 4.5C22.0002 5.05228 21.5525 5.5 21.0002 5.5H18.5002V8C18.5002 8.55229 18.0525 9 17.5002 9C16.948 9 16.5002 8.55229 16.5002 8Z" fill="white"/>
<path d="M15.5002 8C15.5002 8.36464 15.5993 8.70563 15.7698 9H14.0002C13.448 9 13.0002 9.44772 13.0002 10V11C13.0002 11.5523 13.448 12 14.0002 12H18.2502V14H14.0002C12.3434 14 11.0002 12.6569 11.0002 11V10C11.0002 8.34315 12.3434 7 14.0002 7H15.5002V8Z" fill="white"/>
</svg>
