<svg width="24" height="19" viewBox="0 0 24 19" fill="none" xmlns="http://www.w3.org/2000/svg">
<path d="M18.5 8V5.5H16C15.4477 5.5 15 5.05228 15 4.5C15 3.94772 15.4477 3.5 16 3.5H18.5V1C18.5 0.447715 18.9477 0 19.5 0C20.0523 0 20.5 0.447715 20.5 1V3.5H23C23.5523 3.5 24 3.94772 24 4.5C24 5.05228 23.5523 5.5 23 5.5H20.5V8C20.5 8.55229 20.0523 9 19.5 9C18.9477 9 18.5 8.55229 18.5 8Z" fill="#555555"/>
<path d="M18.5 8V5.5H16C15.4477 5.5 15 5.05228 15 4.5C15 3.94772 15.4477 3.5 16 3.5H18.5V1C18.5 0.447715 18.9477 0 19.5 0C20.0523 0 20.5 0.447715 20.5 1V3.5H23C23.5523 3.5 24 3.94772 24 4.5C24 5.05228 23.5523 5.5 23 5.5H20.5V8C20.5 8.55229 20.0523 9 19.5 9C18.9477 9 18.5 8.55229 18.5 8Z" fill="black" fill-opacity="0.2"/>
<path d="M18.5 8V5.5H16C15.4477 5.5 15 5.05228 15 4.5C15 3.94772 15.4477 3.5 16 3.5H18.5V1C18.5 0.447715 18.9477 0 19.5 0C20.0523 0 20.5 0.447715 20.5 1V3.5H23C23.5523 3.5 24 3.94772 24 4.5C24 5.05228 23.5523 5.5 23 5.5H20.5V8C20.5 8.55229 20.0523 9 19.5 9C18.9477 9 18.5 8.55229 18.5 8Z" fill="black" fill-opacity="0.2"/>
<path d="M18.5 8V5.5H16C15.4477 5.5 15 5.05228 15 4.5C15 3.94772 15.4477 3.5 16 3.5H18.5V1C18.5 0.447715 18.9477 0 19.5 0C20.0523 0 20.5 0.447715 20.5 1V3.5H23C23.5523 3.5 24 3.94772 24 4.5C24 5.05228 23.5523 5.5 23 5.5H20.5V8C20.5 8.55229 20.0523 9 19.5 9C18.9477 9 18.5 8.55229 18.5 8Z" fill="black" fill-opacity="0.2"/>
<path d="M5.6 10.8C5.6 11.2418 5.24183 11.6 4.8 11.6C4.35817 11.6 4 11.2418 4 10.8C4 10.3582 4.35817 10 4.8 10C5.24183 10 5.6 10.3582 5.6 10.8Z" fill="#555555"/>
<path d="M5.6 10.8C5.6 11.2418 5.24183 11.6 4.8 11.6C4.35817 11.6 4 11.2418 4 10.8C4 10.3582 4.35817 10 4.8 10C5.24183 10 5.6 10.3582 5.6 10.8Z" fill="black" fill-opacity="0.2"/>
<path d="M5.6 10.8C5.6 11.2418 5.24183 11.6 4.8 11.6C4.35817 11.6 4 11.2418 4 10.8C4 10.3582 4.35817 10 4.8 10C5.24183 10 5.6 10.3582 5.6 10.8Z" fill="black" fill-opacity="0.2"/>
<path d="M5.6 10.8C5.6 11.2418 5.24183 11.6 4.8 11.6C4.35817 11.6 4 11.2418 4 10.8C4 10.3582 4.35817 10 4.8 10C5.24183 10 5.6 10.3582 5.6 10.8Z" fill="black" fill-opacity="0.2"/>
<path d="M12.1 10.8C12.1 11.2418 11.7418 11.6 11.3 11.6C10.8582 11.6 10.5 11.2418 10.5 10.8C10.5 10.3582 10.8582 10 11.3 10C11.7418 10 12.1 10.3582 12.1 10.8Z" fill="#555555"/>
<path d="M12.1 10.8C12.1 11.2418 11.7418 11.6 11.3 11.6C10.8582 11.6 10.5 11.2418 10.5 10.8C10.5 10.3582 10.8582 10 11.3 10C11.7418 10 12.1 10.3582 12.1 10.8Z" fill="black" fill-opacity="0.2"/>
<path d="M12.1 10.8C12.1 11.2418 11.7418 11.6 11.3 11.6C10.8582 11.6 10.5 11.2418 10.5 10.8C10.5 10.3582 10.8582 10 11.3 10C11.7418 10 12.1 10.3582 12.1 10.8Z" fill="black" fill-opacity="0.2"/>
<path d="M12.1 10.8C12.1 11.2418 11.7418 11.6 11.3 11.6C10.8582 11.6 10.5 11.2418 10.5 10.8C10.5 10.3582 10.8582 10 11.3 10C11.7418 10 12.1 10.3582 12.1 10.8Z" fill="black" fill-opacity="0.2"/>
<path d="M5.88281 11.0332C5.88262 9.574 4.8127 8.59961 3.74121 8.59961C2.66982 8.59979 1.5998 9.57413 1.59961 11.0332C1.59961 12.4925 2.66972 13.4666 3.74121 13.4668V15.0674L3.54883 15.0615C1.63579 14.9569 0.101875 13.3036 0.00488281 11.2412L0 11.0332C0.000200292 8.8058 1.67509 7.00017 3.74121 7L3.93359 7.00488C5.91059 7.11265 7.4832 8.87513 7.4834 11.0332L7.47852 11.2412C7.3783 13.3724 5.74301 15.0674 3.74121 15.0674V13.4668C4.8128 13.4668 5.88281 12.4926 5.88281 11.0332Z" fill="#555555"/>
<path d="M5.88281 11.0332C5.88262 9.574 4.8127 8.59961 3.74121 8.59961C2.66982 8.59979 1.5998 9.57413 1.59961 11.0332C1.59961 12.4925 2.66972 13.4666 3.74121 13.4668V15.0674L3.54883 15.0615C1.63579 14.9569 0.101875 13.3036 0.00488281 11.2412L0 11.0332C0.000200292 8.8058 1.67509 7.00017 3.74121 7L3.93359 7.00488C5.91059 7.11265 7.4832 8.87513 7.4834 11.0332L7.47852 11.2412C7.3783 13.3724 5.74301 15.0674 3.74121 15.0674V13.4668C4.8128 13.4668 5.88281 12.4926 5.88281 11.0332Z" fill="black" fill-opacity="0.2"/>
<path d="M5.88281 11.0332C5.88262 9.574 4.8127 8.59961 3.74121 8.59961C2.66982 8.59979 1.5998 9.57413 1.59961 11.0332C1.59961 12.4925 2.66972 13.4666 3.74121 13.4668V15.0674L3.54883 15.0615C1.63579 14.9569 0.101875 13.3036 0.00488281 11.2412L0 11.0332C0.000200292 8.8058 1.67509 7.00017 3.74121 7L3.93359 7.00488C5.91059 7.11265 7.4832 8.87513 7.4834 11.0332L7.47852 11.2412C7.3783 13.3724 5.74301 15.0674 3.74121 15.0674V13.4668C4.8128 13.4668 5.88281 12.4926 5.88281 11.0332Z" fill="black" fill-opacity="0.2"/>
<path d="M5.88281 11.0332C5.88262 9.574 4.8127 8.59961 3.74121 8.59961C2.66982 8.59979 1.5998 9.57413 1.59961 11.0332C1.59961 12.4925 2.66972 13.4666 3.74121 13.4668V15.0674L3.54883 15.0615C1.63579 14.9569 0.101875 13.3036 0.00488281 11.2412L0 11.0332C0.000200292 8.8058 1.67509 7.00017 3.74121 7L3.93359 7.00488C5.91059 7.11265 7.4832 8.87513 7.4834 11.0332L7.47852 11.2412C7.3783 13.3724 5.74301 15.0674 3.74121 15.0674V13.4668C4.8128 13.4668 5.88281 12.4926 5.88281 11.0332Z" fill="black" fill-opacity="0.2"/>
<path d="M12.3998 11.0332C12.3996 9.574 11.3297 8.59961 10.2582 8.59961C9.18679 8.59979 8.11677 9.57413 8.11658 11.0332C8.11658 12.4925 9.18669 13.4666 10.2582 13.4668V15.0674L10.0658 15.0615C8.15276 14.9569 6.61884 13.3036 6.52185 11.2412L6.51697 11.0332C6.51717 8.8058 8.19206 7.00017 10.2582 7L10.4506 7.00488C12.4276 7.11265 14.0002 8.87513 14.0004 11.0332L13.9955 11.2412C13.8953 13.3724 12.26 15.0674 10.2582 15.0674V13.4668C11.3298 13.4668 12.3998 12.4926 12.3998 11.0332Z" fill="#555555"/>
<path d="M12.3998 11.0332C12.3996 9.574 11.3297 8.59961 10.2582 8.59961C9.18679 8.59979 8.11677 9.57413 8.11658 11.0332C8.11658 12.4925 9.18669 13.4666 10.2582 13.4668V15.0674L10.0658 15.0615C8.15276 14.9569 6.61884 13.3036 6.52185 11.2412L6.51697 11.0332C6.51717 8.8058 8.19206 7.00017 10.2582 7L10.4506 7.00488C12.4276 7.11265 14.0002 8.87513 14.0004 11.0332L13.9955 11.2412C13.8953 13.3724 12.26 15.0674 10.2582 15.0674V13.4668C11.3298 13.4668 12.3998 12.4926 12.3998 11.0332Z" fill="black" fill-opacity="0.2"/>
<path d="M12.3998 11.0332C12.3996 9.574 11.3297 8.59961 10.2582 8.59961C9.18679 8.59979 8.11677 9.57413 8.11658 11.0332C8.11658 12.4925 9.18669 13.4666 10.2582 13.4668V15.0674L10.0658 15.0615C8.15276 14.9569 6.61884 13.3036 6.52185 11.2412L6.51697 11.0332C6.51717 8.8058 8.19206 7.00017 10.2582 7L10.4506 7.00488C12.4276 7.11265 14.0002 8.87513 14.0004 11.0332L13.9955 11.2412C13.8953 13.3724 12.26 15.0674 10.2582 15.0674V13.4668C11.3298 13.4668 12.3998 12.4926 12.3998 11.0332Z" fill="black" fill-opacity="0.2"/>
<path d="M12.3998 11.0332C12.3996 9.574 11.3297 8.59961 10.2582 8.59961C9.18679 8.59979 8.11677 9.57413 8.11658 11.0332C8.11658 12.4925 9.18669 13.4666 10.2582 13.4668V15.0674L10.0658 15.0615C8.15276 14.9569 6.61884 13.3036 6.52185 11.2412L6.51697 11.0332C6.51717 8.8058 8.19206 7.00017 10.2582 7L10.4506 7.00488C12.4276 7.11265 14.0002 8.87513 14.0004 11.0332L13.9955 11.2412C13.8953 13.3724 12.26 15.0674 10.2582 15.0674V13.4668C11.3298 13.4668 12.3998 12.4926 12.3998 11.0332Z" fill="black" fill-opacity="0.2"/>
<path d="M21.7268 6.50012C22.2614 10.6208 21.9098 14.115 21.4954 16.0997C21.3 17.0353 20.6244 17.7941 19.7131 18.0919C17.2582 18.8942 14.3742 19.0768 11.6877 18.9738C8.98922 18.8702 6.41909 18.4748 4.55591 18.0734C3.41806 17.8281 2.53902 16.9154 2.35767 15.7531C2.3561 15.743 2.35434 15.7328 2.35278 15.7228C2.86854 15.9027 3.42316 16.0001 4.00024 16.0001C4.21586 16.0001 4.42854 15.9866 4.63696 15.9601C4.73386 16.0357 4.84962 16.0907 4.97778 16.1183C6.74807 16.4997 9.20078 16.8773 11.7639 16.9757C14.3391 17.0745 16.9563 16.8886 19.092 16.1906C19.32 16.116 19.4886 15.9291 19.5383 15.6915C19.8042 14.4185 20.0502 12.3952 19.9895 9.93665C20.8571 9.71803 21.5002 8.93555 21.5002 8.00012V6.50012H21.7268ZM4.54321 2.75989C9.30388 1.67206 14.1637 1.93029 17.5002 2.4425V2.50012H16.0002C15.0404 2.50012 14.2378 3.17625 14.0442 4.07825C11.3227 3.90221 8.12065 3.99369 4.9895 4.70911C4.65693 4.7851 4.40872 5.05575 4.36157 5.39563C4.33472 5.58945 4.3081 5.79397 4.28247 6.00793C4.18909 6.00274 4.09493 6.00013 4.00024 6.00012C3.37883 6.00012 2.78353 6.11326 2.23462 6.32043C2.28021 5.88813 2.32955 5.48629 2.38013 5.12122C2.541 3.96019 3.39866 3.02161 4.54321 2.75989Z" fill="#555555"/>
<path d="M21.7268 6.50012C22.2614 10.6208 21.9098 14.115 21.4954 16.0997C21.3 17.0353 20.6244 17.7941 19.7131 18.0919C17.2582 18.8942 14.3742 19.0768 11.6877 18.9738C8.98922 18.8702 6.41909 18.4748 4.55591 18.0734C3.41806 17.8281 2.53902 16.9154 2.35767 15.7531C2.3561 15.743 2.35434 15.7328 2.35278 15.7228C2.86854 15.9027 3.42316 16.0001 4.00024 16.0001C4.21586 16.0001 4.42854 15.9866 4.63696 15.9601C4.73386 16.0357 4.84962 16.0907 4.97778 16.1183C6.74807 16.4997 9.20078 16.8773 11.7639 16.9757C14.3391 17.0745 16.9563 16.8886 19.092 16.1906C19.32 16.116 19.4886 15.9291 19.5383 15.6915C19.8042 14.4185 20.0502 12.3952 19.9895 9.93665C20.8571 9.71803 21.5002 8.93555 21.5002 8.00012V6.50012H21.7268ZM4.54321 2.75989C9.30388 1.67206 14.1637 1.93029 17.5002 2.4425V2.50012H16.0002C15.0404 2.50012 14.2378 3.17625 14.0442 4.07825C11.3227 3.90221 8.12065 3.99369 4.9895 4.70911C4.65693 4.7851 4.40872 5.05575 4.36157 5.39563C4.33472 5.58945 4.3081 5.79397 4.28247 6.00793C4.18909 6.00274 4.09493 6.00013 4.00024 6.00012C3.37883 6.00012 2.78353 6.11326 2.23462 6.32043C2.28021 5.88813 2.32955 5.48629 2.38013 5.12122C2.541 3.96019 3.39866 3.02161 4.54321 2.75989Z" fill="black" fill-opacity="0.2"/>
<path d="M21.7268 6.50012C22.2614 10.6208 21.9098 14.115 21.4954 16.0997C21.3 17.0353 20.6244 17.7941 19.7131 18.0919C17.2582 18.8942 14.3742 19.0768 11.6877 18.9738C8.98922 18.8702 6.41909 18.4748 4.55591 18.0734C3.41806 17.8281 2.53902 16.9154 2.35767 15.7531C2.3561 15.743 2.35434 15.7328 2.35278 15.7228C2.86854 15.9027 3.42316 16.0001 4.00024 16.0001C4.21586 16.0001 4.42854 15.9866 4.63696 15.9601C4.73386 16.0357 4.84962 16.0907 4.97778 16.1183C6.74807 16.4997 9.20078 16.8773 11.7639 16.9757C14.3391 17.0745 16.9563 16.8886 19.092 16.1906C19.32 16.116 19.4886 15.9291 19.5383 15.6915C19.8042 14.4185 20.0502 12.3952 19.9895 9.93665C20.8571 9.71803 21.5002 8.93555 21.5002 8.00012V6.50012H21.7268ZM4.54321 2.75989C9.30388 1.67206 14.1637 1.93029 17.5002 2.4425V2.50012H16.0002C15.0404 2.50012 14.2378 3.17625 14.0442 4.07825C11.3227 3.90221 8.12065 3.99369 4.9895 4.70911C4.65693 4.7851 4.40872 5.05575 4.36157 5.39563C4.33472 5.58945 4.3081 5.79397 4.28247 6.00793C4.18909 6.00274 4.09493 6.00013 4.00024 6.00012C3.37883 6.00012 2.78353 6.11326 2.23462 6.32043C2.28021 5.88813 2.32955 5.48629 2.38013 5.12122C2.541 3.96019 3.39866 3.02161 4.54321 2.75989Z" fill="black" fill-opacity="0.2"/>
<path d="M21.7268 6.50012C22.2614 10.6208 21.9098 14.115 21.4954 16.0997C21.3 17.0353 20.6244 17.7941 19.7131 18.0919C17.2582 18.8942 14.3742 19.0768 11.6877 18.9738C8.98922 18.8702 6.41909 18.4748 4.55591 18.0734C3.41806 17.8281 2.53902 16.9154 2.35767 15.7531C2.3561 15.743 2.35434 15.7328 2.35278 15.7228C2.86854 15.9027 3.42316 16.0001 4.00024 16.0001C4.21586 16.0001 4.42854 15.9866 4.63696 15.9601C4.73386 16.0357 4.84962 16.0907 4.97778 16.1183C6.74807 16.4997 9.20078 16.8773 11.7639 16.9757C14.3391 17.0745 16.9563 16.8886 19.092 16.1906C19.32 16.116 19.4886 15.9291 19.5383 15.6915C19.8042 14.4185 20.0502 12.3952 19.9895 9.93665C20.8571 9.71803 21.5002 8.93555 21.5002 8.00012V6.50012H21.7268ZM4.54321 2.75989C9.30388 1.67206 14.1637 1.93029 17.5002 2.4425V2.50012H16.0002C15.0404 2.50012 14.2378 3.17625 14.0442 4.07825C11.3227 3.90221 8.12065 3.99369 4.9895 4.70911C4.65693 4.7851 4.40872 5.05575 4.36157 5.39563C4.33472 5.58945 4.3081 5.79397 4.28247 6.00793C4.18909 6.00274 4.09493 6.00013 4.00024 6.00012C3.37883 6.00012 2.78353 6.11326 2.23462 6.32043C2.28021 5.88813 2.32955 5.48629 2.38013 5.12122C2.541 3.96019 3.39866 3.02161 4.54321 2.75989Z" fill="black" fill-opacity="0.2"/>
</svg>
