<svg width="25" height="20" viewBox="0 0 25 20" fill="none" xmlns="http://www.w3.org/2000/svg">
<path d="M19.2708 8.42108V5.78949H16.6667C16.0914 5.78949 15.625 5.31821 15.625 4.73686C15.625 4.1555 16.0914 3.68422 16.6667 3.68422H19.2708V1.05263C19.2708 0.471281 19.7372 0 20.3125 0C20.8878 0 21.3542 0.471281 21.3542 1.05263V3.68422H23.9583C24.5336 3.68422 25 4.1555 25 4.73686C25 5.31821 24.5336 5.78949 23.9583 5.78949H21.3542V8.42108C21.3542 9.00243 20.8878 9.47371 20.3125 9.47371C19.7372 9.47371 19.2708 9.00243 19.2708 8.42108Z" fill="#555555"/>
<path d="M19.2708 8.42108V5.78949H16.6667C16.0914 5.78949 15.625 5.31821 15.625 4.73686C15.625 4.1555 16.0914 3.68422 16.6667 3.68422H19.2708V1.05263C19.2708 0.471281 19.7372 0 20.3125 0C20.8878 0 21.3542 0.471281 21.3542 1.05263V3.68422H23.9583C24.5336 3.68422 25 4.1555 25 4.73686C25 5.31821 24.5336 5.78949 23.9583 5.78949H21.3542V8.42108C21.3542 9.00243 20.8878 9.47371 20.3125 9.47371C19.7372 9.47371 19.2708 9.00243 19.2708 8.42108Z" fill="black" fill-opacity="0.2"/>
<path d="M19.2708 8.42108V5.78949H16.6667C16.0914 5.78949 15.625 5.31821 15.625 4.73686C15.625 4.1555 16.0914 3.68422 16.6667 3.68422H19.2708V1.05263C19.2708 0.471281 19.7372 0 20.3125 0C20.8878 0 21.3542 0.471281 21.3542 1.05263V3.68422H23.9583C24.5336 3.68422 25 4.1555 25 4.73686C25 5.31821 24.5336 5.78949 23.9583 5.78949H21.3542V8.42108C21.3542 9.00243 20.8878 9.47371 20.3125 9.47371C19.7372 9.47371 19.2708 9.00243 19.2708 8.42108Z" fill="black" fill-opacity="0.2"/>
<path d="M19.2708 8.42108V5.78949H16.6667C16.0914 5.78949 15.625 5.31821 15.625 4.73686C15.625 4.1555 16.0914 3.68422 16.6667 3.68422H19.2708V1.05263C19.2708 0.471281 19.7372 0 20.3125 0C20.8878 0 21.3542 0.471281 21.3542 1.05263V3.68422H23.9583C24.5336 3.68422 25 4.1555 25 4.73686C25 5.31821 24.5336 5.78949 23.9583 5.78949H21.3542V8.42108C21.3542 9.00243 20.8878 9.47371 20.3125 9.47371C19.7372 9.47371 19.2708 9.00243 19.2708 8.42108Z" fill="black" fill-opacity="0.2"/>
<path d="M5.83342 11.3685C5.83342 11.8336 5.46032 12.2106 5.00008 12.2106C4.53984 12.2106 4.16675 11.8336 4.16675 11.3685C4.16675 10.9034 4.53984 10.5264 5.00008 10.5264C5.46032 10.5264 5.83342 10.9034 5.83342 11.3685Z" fill="#555555"/>
<path d="M5.83342 11.3685C5.83342 11.8336 5.46032 12.2106 5.00008 12.2106C4.53984 12.2106 4.16675 11.8336 4.16675 11.3685C4.16675 10.9034 4.53984 10.5264 5.00008 10.5264C5.46032 10.5264 5.83342 10.9034 5.83342 11.3685Z" fill="black" fill-opacity="0.2"/>
<path d="M5.83342 11.3685C5.83342 11.8336 5.46032 12.2106 5.00008 12.2106C4.53984 12.2106 4.16675 11.8336 4.16675 11.3685C4.16675 10.9034 4.53984 10.5264 5.00008 10.5264C5.46032 10.5264 5.83342 10.9034 5.83342 11.3685Z" fill="black" fill-opacity="0.2"/>
<path d="M5.83342 11.3685C5.83342 11.8336 5.46032 12.2106 5.00008 12.2106C4.53984 12.2106 4.16675 11.8336 4.16675 11.3685C4.16675 10.9034 4.53984 10.5264 5.00008 10.5264C5.46032 10.5264 5.83342 10.9034 5.83342 11.3685Z" fill="black" fill-opacity="0.2"/>
<path d="M12.6042 11.3685C12.6042 11.8336 12.2311 12.2106 11.7708 12.2106C11.3106 12.2106 10.9375 11.8336 10.9375 11.3685C10.9375 10.9034 11.3106 10.5264 11.7708 10.5264C12.2311 10.5264 12.6042 10.9034 12.6042 11.3685Z" fill="#555555"/>
<path d="M12.6042 11.3685C12.6042 11.8336 12.2311 12.2106 11.7708 12.2106C11.3106 12.2106 10.9375 11.8336 10.9375 11.3685C10.9375 10.9034 11.3106 10.5264 11.7708 10.5264C12.2311 10.5264 12.6042 10.9034 12.6042 11.3685Z" fill="black" fill-opacity="0.2"/>
<path d="M12.6042 11.3685C12.6042 11.8336 12.2311 12.2106 11.7708 12.2106C11.3106 12.2106 10.9375 11.8336 10.9375 11.3685C10.9375 10.9034 11.3106 10.5264 11.7708 10.5264C12.2311 10.5264 12.6042 10.9034 12.6042 11.3685Z" fill="black" fill-opacity="0.2"/>
<path d="M12.6042 11.3685C12.6042 11.8336 12.2311 12.2106 11.7708 12.2106C11.3106 12.2106 10.9375 11.8336 10.9375 11.3685C10.9375 10.9034 11.3106 10.5264 11.7708 10.5264C12.2311 10.5264 12.6042 10.9034 12.6042 11.3685Z" fill="black" fill-opacity="0.2"/>
<path d="M6.12793 11.6137C6.12773 10.0776 5.01323 9.05197 3.89709 9.05197C2.78106 9.05216 1.66646 10.0778 1.66626 11.6137C1.66626 13.1498 2.78096 14.1751 3.89709 14.1753V15.8602L3.6967 15.854C1.70395 15.7439 0.10612 14.0036 0.00508626 11.8326L0 11.6137C0.000208637 9.26901 1.74489 7.36835 3.89709 7.36816L4.09749 7.3733C6.15687 7.48675 7.795 9.34199 7.79521 11.6137L7.79012 11.8326C7.68572 14.076 5.9823 15.8602 3.89709 15.8602V14.1753C5.01333 14.1753 6.12793 13.1499 6.12793 11.6137Z" fill="#555555"/>
<path d="M6.12793 11.6137C6.12773 10.0776 5.01323 9.05197 3.89709 9.05197C2.78106 9.05216 1.66646 10.0778 1.66626 11.6137C1.66626 13.1498 2.78096 14.1751 3.89709 14.1753V15.8602L3.6967 15.854C1.70395 15.7439 0.10612 14.0036 0.00508626 11.8326L0 11.6137C0.000208637 9.26901 1.74489 7.36835 3.89709 7.36816L4.09749 7.3733C6.15687 7.48675 7.795 9.34199 7.79521 11.6137L7.79012 11.8326C7.68572 14.076 5.9823 15.8602 3.89709 15.8602V14.1753C5.01333 14.1753 6.12793 13.1499 6.12793 11.6137Z" fill="black" fill-opacity="0.2"/>
<path d="M6.12793 11.6137C6.12773 10.0776 5.01323 9.05197 3.89709 9.05197C2.78106 9.05216 1.66646 10.0778 1.66626 11.6137C1.66626 13.1498 2.78096 14.1751 3.89709 14.1753V15.8602L3.6967 15.854C1.70395 15.7439 0.10612 14.0036 0.00508626 11.8326L0 11.6137C0.000208637 9.26901 1.74489 7.36835 3.89709 7.36816L4.09749 7.3733C6.15687 7.48675 7.795 9.34199 7.79521 11.6137L7.79012 11.8326C7.68572 14.076 5.9823 15.8602 3.89709 15.8602V14.1753C5.01333 14.1753 6.12793 13.1499 6.12793 11.6137Z" fill="black" fill-opacity="0.2"/>
<path d="M6.12793 11.6137C6.12773 10.0776 5.01323 9.05197 3.89709 9.05197C2.78106 9.05216 1.66646 10.0778 1.66626 11.6137C1.66626 13.1498 2.78096 14.1751 3.89709 14.1753V15.8602L3.6967 15.854C1.70395 15.7439 0.10612 14.0036 0.00508626 11.8326L0 11.6137C0.000208637 9.26901 1.74489 7.36835 3.89709 7.36816L4.09749 7.3733C6.15687 7.48675 7.795 9.34199 7.79521 11.6137L7.79012 11.8326C7.68572 14.076 5.9823 15.8602 3.89709 15.8602V14.1753C5.01333 14.1753 6.12793 13.1499 6.12793 11.6137Z" fill="black" fill-opacity="0.2"/>
<path d="M12.9165 11.6137C12.9163 10.0776 11.8018 9.05197 10.6857 9.05197C9.56964 9.05216 8.45504 10.0778 8.45483 11.6137C8.45483 13.1498 9.56953 14.1751 10.6857 14.1753V15.8602L10.4853 15.854C8.49252 15.7439 6.89469 14.0036 6.79366 11.8326L6.78857 11.6137C6.78878 9.26901 8.53346 7.36835 10.6857 7.36816L10.8861 7.3733C12.9454 7.48675 14.5836 9.34199 14.5838 11.6137L14.5787 11.8326C14.4743 14.076 12.7709 15.8602 10.6857 15.8602V14.1753C11.8019 14.1753 12.9165 13.1499 12.9165 11.6137Z" fill="#555555"/>
<path d="M12.9165 11.6137C12.9163 10.0776 11.8018 9.05197 10.6857 9.05197C9.56964 9.05216 8.45504 10.0778 8.45483 11.6137C8.45483 13.1498 9.56953 14.1751 10.6857 14.1753V15.8602L10.4853 15.854C8.49252 15.7439 6.89469 14.0036 6.79366 11.8326L6.78857 11.6137C6.78878 9.26901 8.53346 7.36835 10.6857 7.36816L10.8861 7.3733C12.9454 7.48675 14.5836 9.34199 14.5838 11.6137L14.5787 11.8326C14.4743 14.076 12.7709 15.8602 10.6857 15.8602V14.1753C11.8019 14.1753 12.9165 13.1499 12.9165 11.6137Z" fill="black" fill-opacity="0.2"/>
<path d="M12.9165 11.6137C12.9163 10.0776 11.8018 9.05197 10.6857 9.05197C9.56964 9.05216 8.45504 10.0778 8.45483 11.6137C8.45483 13.1498 9.56953 14.1751 10.6857 14.1753V15.8602L10.4853 15.854C8.49252 15.7439 6.89469 14.0036 6.79366 11.8326L6.78857 11.6137C6.78878 9.26901 8.53346 7.36835 10.6857 7.36816L10.8861 7.3733C12.9454 7.48675 14.5836 9.34199 14.5838 11.6137L14.5787 11.8326C14.4743 14.076 12.7709 15.8602 10.6857 15.8602V14.1753C11.8019 14.1753 12.9165 13.1499 12.9165 11.6137Z" fill="black" fill-opacity="0.2"/>
<path d="M12.9165 11.6137C12.9163 10.0776 11.8018 9.05197 10.6857 9.05197C9.56964 9.05216 8.45504 10.0778 8.45483 11.6137C8.45483 13.1498 9.56953 14.1751 10.6857 14.1753V15.8602L10.4853 15.854C8.49252 15.7439 6.89469 14.0036 6.79366 11.8326L6.78857 11.6137C6.78878 9.26901 8.53346 7.36835 10.6857 7.36816L10.8861 7.3733C12.9454 7.48675 14.5836 9.34199 14.5838 11.6137L14.5787 11.8326C14.4743 14.076 12.7709 15.8602 10.6857 15.8602V14.1753C11.8019 14.1753 12.9165 13.1499 12.9165 11.6137Z" fill="black" fill-opacity="0.2"/>
<path d="M22.632 6.8424C23.1889 11.18 22.8226 14.8581 22.3909 16.9473C22.1874 17.9321 21.4837 18.7308 20.5344 19.0443C17.9772 19.8889 14.973 20.0811 12.1746 19.9726C9.36368 19.8636 6.68646 19.4473 4.74565 19.0248C3.56039 18.7666 2.64473 17.8059 2.45581 16.5824C2.45418 16.5718 2.45235 16.5611 2.45072 16.5505C2.98797 16.7398 3.56569 16.8424 4.16683 16.8424C4.39143 16.8424 4.61297 16.8282 4.83008 16.8003C4.93101 16.8799 5.0516 16.9378 5.1851 16.9668C7.02915 17.3683 9.58405 17.7658 12.254 17.8694C14.9364 17.9734 17.6627 17.7777 19.8875 17.0429C20.1249 16.9645 20.3005 16.7677 20.3523 16.5176C20.6292 15.1776 20.8855 13.0477 20.8223 10.4598C21.726 10.2297 22.396 9.40602 22.396 8.42135V6.8424H22.632ZM4.73242 2.9053C9.69145 1.76022 14.7537 2.03204 18.2293 2.57121V2.63186H16.6668C15.667 2.63186 14.831 3.34358 14.6293 4.29305C11.7943 4.10775 8.45892 4.20404 5.19731 4.95712C4.85088 5.03711 4.59232 5.322 4.54321 5.67978C4.51524 5.88379 4.48752 6.09908 4.46082 6.32431C4.36354 6.31884 4.26546 6.31609 4.16683 6.31608C3.51952 6.31608 2.89942 6.43518 2.32764 6.65326C2.37513 6.1982 2.42652 5.77521 2.47921 5.39092C2.64678 4.16878 3.54018 3.1808 4.73242 2.9053Z" fill="#555555"/>
<path d="M22.632 6.8424C23.1889 11.18 22.8226 14.8581 22.3909 16.9473C22.1874 17.9321 21.4837 18.7308 20.5344 19.0443C17.9772 19.8889 14.973 20.0811 12.1746 19.9726C9.36368 19.8636 6.68646 19.4473 4.74565 19.0248C3.56039 18.7666 2.64473 17.8059 2.45581 16.5824C2.45418 16.5718 2.45235 16.5611 2.45072 16.5505C2.98797 16.7398 3.56569 16.8424 4.16683 16.8424C4.39143 16.8424 4.61297 16.8282 4.83008 16.8003C4.93101 16.8799 5.0516 16.9378 5.1851 16.9668C7.02915 17.3683 9.58405 17.7658 12.254 17.8694C14.9364 17.9734 17.6627 17.7777 19.8875 17.0429C20.1249 16.9645 20.3005 16.7677 20.3523 16.5176C20.6292 15.1776 20.8855 13.0477 20.8223 10.4598C21.726 10.2297 22.396 9.40602 22.396 8.42135V6.8424H22.632ZM4.73242 2.9053C9.69145 1.76022 14.7537 2.03204 18.2293 2.57121V2.63186H16.6668C15.667 2.63186 14.831 3.34358 14.6293 4.29305C11.7943 4.10775 8.45892 4.20404 5.19731 4.95712C4.85088 5.03711 4.59232 5.322 4.54321 5.67978C4.51524 5.88379 4.48752 6.09908 4.46082 6.32431C4.36354 6.31884 4.26546 6.31609 4.16683 6.31608C3.51952 6.31608 2.89942 6.43518 2.32764 6.65326C2.37513 6.1982 2.42652 5.77521 2.47921 5.39092C2.64678 4.16878 3.54018 3.1808 4.73242 2.9053Z" fill="black" fill-opacity="0.2"/>
<path d="M22.632 6.8424C23.1889 11.18 22.8226 14.8581 22.3909 16.9473C22.1874 17.9321 21.4837 18.7308 20.5344 19.0443C17.9772 19.8889 14.973 20.0811 12.1746 19.9726C9.36368 19.8636 6.68646 19.4473 4.74565 19.0248C3.56039 18.7666 2.64473 17.8059 2.45581 16.5824C2.45418 16.5718 2.45235 16.5611 2.45072 16.5505C2.98797 16.7398 3.56569 16.8424 4.16683 16.8424C4.39143 16.8424 4.61297 16.8282 4.83008 16.8003C4.93101 16.8799 5.0516 16.9378 5.1851 16.9668C7.02915 17.3683 9.58405 17.7658 12.254 17.8694C14.9364 17.9734 17.6627 17.7777 19.8875 17.0429C20.1249 16.9645 20.3005 16.7677 20.3523 16.5176C20.6292 15.1776 20.8855 13.0477 20.8223 10.4598C21.726 10.2297 22.396 9.40602 22.396 8.42135V6.8424H22.632ZM4.73242 2.9053C9.69145 1.76022 14.7537 2.03204 18.2293 2.57121V2.63186H16.6668C15.667 2.63186 14.831 3.34358 14.6293 4.29305C11.7943 4.10775 8.45892 4.20404 5.19731 4.95712C4.85088 5.03711 4.59232 5.322 4.54321 5.67978C4.51524 5.88379 4.48752 6.09908 4.46082 6.32431C4.36354 6.31884 4.26546 6.31609 4.16683 6.31608C3.51952 6.31608 2.89942 6.43518 2.32764 6.65326C2.37513 6.1982 2.42652 5.77521 2.47921 5.39092C2.64678 4.16878 3.54018 3.1808 4.73242 2.9053Z" fill="black" fill-opacity="0.2"/>
<path d="M22.632 6.8424C23.1889 11.18 22.8226 14.8581 22.3909 16.9473C22.1874 17.9321 21.4837 18.7308 20.5344 19.0443C17.9772 19.8889 14.973 20.0811 12.1746 19.9726C9.36368 19.8636 6.68646 19.4473 4.74565 19.0248C3.56039 18.7666 2.64473 17.8059 2.45581 16.5824C2.45418 16.5718 2.45235 16.5611 2.45072 16.5505C2.98797 16.7398 3.56569 16.8424 4.16683 16.8424C4.39143 16.8424 4.61297 16.8282 4.83008 16.8003C4.93101 16.8799 5.0516 16.9378 5.1851 16.9668C7.02915 17.3683 9.58405 17.7658 12.254 17.8694C14.9364 17.9734 17.6627 17.7777 19.8875 17.0429C20.1249 16.9645 20.3005 16.7677 20.3523 16.5176C20.6292 15.1776 20.8855 13.0477 20.8223 10.4598C21.726 10.2297 22.396 9.40602 22.396 8.42135V6.8424H22.632ZM4.73242 2.9053C9.69145 1.76022 14.7537 2.03204 18.2293 2.57121V2.63186H16.6668C15.667 2.63186 14.831 3.34358 14.6293 4.29305C11.7943 4.10775 8.45892 4.20404 5.19731 4.95712C4.85088 5.03711 4.59232 5.322 4.54321 5.67978C4.51524 5.88379 4.48752 6.09908 4.46082 6.32431C4.36354 6.31884 4.26546 6.31609 4.16683 6.31608C3.51952 6.31608 2.89942 6.43518 2.32764 6.65326C2.37513 6.1982 2.42652 5.77521 2.47921 5.39092C2.64678 4.16878 3.54018 3.1808 4.73242 2.9053Z" fill="black" fill-opacity="0.2"/>
</svg>
