<svg width="48" height="48" viewBox="0 0 48 48" fill="none" xmlns="http://www.w3.org/2000/svg">
<g clip-path="url(#clip0_10735_11334)">
<path d="M46.6799 18.96L39.6799 6.96C37.8939 3.9 34.5859 2 31.0419 2H16.8979C13.3559 2 10.0459 3.9 8.25987 6.96L1.26187 18.96C-0.552133 22.068 -0.552133 25.93 1.26187 29.038L8.26187 41.038C10.0479 44.098 13.3559 45.998 16.8999 45.998H31.0439C34.5859 45.998 37.8959 44.098 39.6819 41.038L46.6819 29.038C48.4959 25.93 48.4939 22.068 46.6799 18.96ZM21.9999 14C21.9999 12.894 22.8959 12 23.9999 12C25.1039 12 25.9999 12.894 25.9999 14V25C25.9999 26.106 25.1039 27 23.9999 27C22.8959 27 21.9999 26.106 21.9999 25V14ZM23.9999 36C22.3439 36 20.9999 34.656 20.9999 33C20.9999 31.344 22.3439 30 23.9999 30C25.6559 30 26.9999 31.344 26.9999 33C26.9999 34.656 25.6559 36 23.9999 36Z" fill="#DA415C"/>
</g>
<defs>
<clipPath id="clip0_10735_11334">
<rect width="48" height="48" fill="white"/>
</clipPath>
</defs>
</svg>
