<svg width="36" height="37" viewBox="0 0 36 37" fill="none" xmlns="http://www.w3.org/2000/svg">
<path d="M0 9.80722C0 4.39084 4.39093 0 9.80737 0H26.1926C31.6091 0 36 4.39084 36 9.80722V26.4628C36 31.8792 31.6091 36.2701 26.1926 36.2701H9.80737C4.39093 36.2701 0 31.8792 0 26.4628V9.80722Z" fill="#0F2946"/>
<path d="M0 18.3403C0 12.8582 4.44421 8.41406 9.92639 8.41406H26.0736C31.5558 8.41406 36 12.8582 36 18.3403V26.3434C36 31.8256 31.5558 36.2698 26.0736 36.2698H9.92639C4.44421 36.2698 0 31.8256 0 26.3434V18.3403Z" fill="#2062A9"/>
<path d="M0 25.9073C0 20.5721 4.32509 16.2471 9.66049 16.2471H26.3395C31.6749 16.2471 36 20.5721 36 25.9073V26.6105C36 31.9457 31.6749 36.2708 26.3395 36.2708H9.66049C4.32509 36.2708 0 31.9457 0 26.6105V25.9073Z" fill="#3395FF"/>
<path d="M19.455 23.8848V25.417C19.6678 25.2646 19.9091 25.1885 20.1786 25.1885C20.4188 25.1885 20.6366 25.248 20.8319 25.3672C21.0292 25.4844 21.1815 25.6504 21.2889 25.8652C21.3983 26.0781 21.453 26.3164 21.453 26.5801C21.453 27.0293 21.3192 27.3838 21.0516 27.6436C20.7841 27.9014 20.4178 28.0303 19.953 28.0303C19.535 28.0303 19.1288 27.9531 18.7343 27.7988V23.8848H19.455ZM19.455 27.4062C19.6093 27.459 19.7889 27.4854 19.994 27.4854C20.2147 27.4854 20.3895 27.4053 20.5184 27.2451C20.6493 27.083 20.7147 26.8594 20.7147 26.5742C20.7147 26.3164 20.6493 26.1113 20.5184 25.959C20.3876 25.8047 20.2147 25.7275 19.9999 25.7275C19.9003 25.7275 19.8085 25.7461 19.7245 25.7832C19.6405 25.8203 19.5507 25.8779 19.455 25.9561V27.4062ZM22.7714 23.8848V27.9775H22.0507V23.8848H22.7714ZM24.2098 25.2412V26.9346C24.2098 27.1123 24.2538 27.248 24.3417 27.3418C24.4315 27.4336 24.5497 27.4795 24.6962 27.4795C24.8173 27.4795 24.9335 27.4424 25.0448 27.3682C25.1561 27.2939 25.246 27.1895 25.3143 27.0547V25.2412H26.035V27.9775H25.3143V27.6055C25.0546 27.8887 24.7733 28.0303 24.4706 28.0303C24.1776 28.0303 23.9413 27.9346 23.7616 27.7432C23.5819 27.5518 23.4921 27.3018 23.4921 26.9932V25.2412H24.2098ZM27.9803 25.1885C28.3827 25.1885 28.701 25.3174 28.9354 25.5752C29.1698 25.833 29.287 26.1895 29.287 26.6445V26.7529H27.3505C27.3798 26.9971 27.4706 27.1855 27.6229 27.3184C27.7772 27.4492 27.9882 27.5146 28.2557 27.5146C28.4276 27.5146 28.5927 27.4854 28.7509 27.4268C28.911 27.3662 29.076 27.2754 29.246 27.1543V27.6904C28.9257 27.917 28.537 28.0303 28.08 28.0303C27.6483 28.0303 27.2958 27.9004 27.0223 27.6406C26.7489 27.3809 26.6122 27.0352 26.6122 26.6035C26.6122 26.1875 26.7382 25.8477 26.9901 25.584C27.244 25.3203 27.5741 25.1885 27.9803 25.1885ZM28.6102 26.3164C28.5907 26.1172 28.5302 25.9619 28.4286 25.8506C28.327 25.7373 28.1874 25.6807 28.0096 25.6807C27.828 25.6807 27.6815 25.7344 27.5702 25.8418C27.4608 25.9492 27.3915 26.1074 27.3622 26.3164H28.6102Z" fill="white"/>
</svg>
