<svg width="36" height="36" viewBox="0 0 36 36" fill="none" xmlns="http://www.w3.org/2000/svg">
<rect width="36" height="36" rx="12" fill="black"/>
<path d="M13.1223 20.8902C12.6399 20.4076 12.5466 19.4499 12.8731 18.3276C13.2096 17.1713 13.9526 15.9769 14.9654 14.9652C16.0815 13.8496 17.4355 13.0518 18.6803 12.7772C19.6411 12.5673 20.4607 12.6912 20.8925 13.1231C21.3756 13.6063 21.4689 14.564 21.1424 15.6864C20.8065 16.8427 20.0636 18.037 19.0507 19.0487C17.934 20.1644 16.5799 20.9621 15.3359 21.2367C15.0254 21.3047 14.7322 21.338 14.4623 21.338C13.8859 21.338 13.4188 21.1854 13.1223 20.8902ZM26 17.7678C26 19.9678 25.1438 22.0358 23.5878 23.5914C21.9826 25.1969 19.8737 26 17.7654 26C15.6571 26 13.5481 25.1976 11.9429 23.5914L11.0993 22.6983C9.0603 20.493 9.92654 16.3308 13.1276 13.1291C16.3387 9.9174 20.516 9.05432 22.7169 11.1184L23.5878 11.9441C25.1438 13.4997 26 15.5684 26 17.7678ZM12.1408 21.8712C13.7333 23.4627 17.3029 22.5783 19.9396 19.9418C22.5757 17.3046 23.4592 13.7329 21.8694 12.1414C21.331 11.6036 20.5667 11.3483 19.6891 11.3483C17.9706 11.3483 15.8163 12.3254 14.0705 14.0708C11.4345 16.7081 10.5509 20.2797 12.1408 21.8712Z" fill="url(#paint0_linear_9764_12889)"/>
<defs>
<linearGradient id="paint0_linear_9764_12889" x1="23.9813" y1="16.3551" x2="10.6729" y2="19.7196" gradientUnits="userSpaceOnUse">
<stop stop-color="#7775FF"/>
<stop offset="1" stop-color="#8CD5FF"/>
</linearGradient>
</defs>
</svg>
