<svg width="36" height="36" viewBox="0 0 36 36" fill="none" xmlns="http://www.w3.org/2000/svg">
<rect x="0.5" y="0.5" width="35" height="35" rx="11.5" fill="white" stroke="#ECE9E9"/>
<path fill-rule="evenodd" clip-rule="evenodd" d="M26.5473 17.1587L26.2572 17.5205L28.0026 18.0283V17.8855L26.8758 17.0732L26.5473 17.1587Z" fill="#D3D3D3"/>
<path fill-rule="evenodd" clip-rule="evenodd" d="M26.012 18.1631L26.4652 18.1464L27.3292 18.0955L28.0027 18.0273L26.2573 17.5195L25.7367 17.3682L26.012 18.1631Z" fill="#8C8C8C"/>
<path fill-rule="evenodd" clip-rule="evenodd" d="M26.5474 17.1582L26.2573 17.52L25.7367 17.3687L26.0466 17.2882L26.5474 17.1582Z" fill="#ABABAB"/>
<path fill-rule="evenodd" clip-rule="evenodd" d="M26.0122 18.1632H23.2861L24.8452 17.5918L26.0122 18.1632Z" fill="#8C8C8C"/>
<path fill-rule="evenodd" clip-rule="evenodd" d="M26.0466 17.2873L25.4941 16.9723L25.3259 16.8763L26.5032 16.1377L26.8759 17.0718L26.5473 17.1573L26.0466 17.2873Z" fill="#9A9A9A"/>
<path fill-rule="evenodd" clip-rule="evenodd" d="M25.4104 17.1071L25.2575 17.2784L25.0292 16.9857L25.032 16.9834L25.4104 17.1071Z" fill="white"/>
<path fill-rule="evenodd" clip-rule="evenodd" d="M25.326 16.8768L25.4943 16.9727L25.4104 17.1064L25.032 16.9827L25.2087 16.8555L25.326 16.8768Z" fill="white"/>
<path fill-rule="evenodd" clip-rule="evenodd" d="M26.5033 16.138L25.3261 16.8767L24.9148 15.4648L26.4948 16.1171L26.5033 16.138Z" fill="#8C8C8C"/>
<path fill-rule="evenodd" clip-rule="evenodd" d="M25.2574 17.2786L25.4104 17.1073L25.4943 16.9736L26.0466 17.2886L25.7367 17.3691L25.2302 17.3091L25.2574 17.2786Z" fill="#454545"/>
<path fill-rule="evenodd" clip-rule="evenodd" d="M25.0292 16.9854L25.2575 17.2781L25.2303 17.3086L24.7664 17.1749L25.0292 16.9854Z" fill="#808080"/>
<path fill-rule="evenodd" clip-rule="evenodd" d="M25.2305 17.3075L25.737 17.3675L24.8515 17.5888L24.8305 17.5843L24.83 17.5838L23.1865 17.2165L24.7666 17.1738L25.2305 17.3075Z" fill="#D3D3D3"/>
<path fill-rule="evenodd" clip-rule="evenodd" d="M25.032 16.9832L25.0292 16.9855L24.8824 16.7969L25.2087 16.856L25.032 16.9832Z" fill="#EFEFEF"/>
<path fill-rule="evenodd" clip-rule="evenodd" d="M24.8825 16.7969L25.0292 16.9855L24.7663 17.1751L24.7346 16.9155L24.8825 16.7969Z" fill="#D4D4D4"/>
<path fill-rule="evenodd" clip-rule="evenodd" d="M24.9148 15.4648L25.3262 16.8767L25.2089 16.8553L24.8826 16.7963L24.5891 16.7426L24.8707 15.4671L24.9148 15.4648Z" fill="#D8D8D8"/>
<path fill-rule="evenodd" clip-rule="evenodd" d="M24.8707 15.4678L24.5891 16.7432L23.8606 15.5165L24.8707 15.4678Z" fill="#BCBCBC"/>
<path fill-rule="evenodd" clip-rule="evenodd" d="M24.8512 17.5895L25.7367 17.3682L26.012 18.1631L24.845 17.5918L24.8512 17.5895Z" fill="#D8D8D8"/>
<path fill-rule="evenodd" clip-rule="evenodd" d="M24.8453 17.5923L23.2862 18.1637H23.2511L23.1333 17.2191L23.1866 17.2178L24.83 17.5851L24.8306 17.5855L24.8453 17.5923Z" fill="#484848"/>
<path fill-rule="evenodd" clip-rule="evenodd" d="M23.2513 18.1641L24.6256 19.3591L24.3565 19.6018L24.343 19.6459L24.3339 19.6509L22.048 18.681L23.2513 18.1641Z" fill="#D3D3D3"/>
<path fill-rule="evenodd" clip-rule="evenodd" d="M23.8608 15.5166L24.5893 16.7434L23.1345 17.2012L23.8608 15.5166Z" fill="#8C8C8C"/>
<path fill-rule="evenodd" clip-rule="evenodd" d="M24.3407 19.6531L24.0722 20.5222L23.598 21.7999L21.9404 21.0127L24.334 19.6504L24.3407 19.6531Z" fill="#595959"/>
<path fill-rule="evenodd" clip-rule="evenodd" d="M24.3338 19.6506L21.9403 21.0129L22.0479 18.6807L24.3338 19.6506Z" fill="#9A9A9A"/>
<path fill-rule="evenodd" clip-rule="evenodd" d="M23.083 17.1948L21.7217 17.0221L22.525 16.3775L22.755 16.193L23.8609 15.5166L23.1346 17.2012L23.083 17.1948Z" fill="#707070"/>
<path fill-rule="evenodd" clip-rule="evenodd" d="M23.5982 21.799L23.5517 21.8531L20.4942 21.8908L20.4879 21.8813L20.4692 21.8494L21.9406 21.0117L23.5982 21.799Z" fill="#D3D3D3"/>
<path fill-rule="evenodd" clip-rule="evenodd" d="M23.551 21.8535L22.5223 23.0435L21.5099 23.499L20.4941 21.8912L23.551 21.8535Z" fill="#8C8C8C"/>
<path fill-rule="evenodd" clip-rule="evenodd" d="M23.2862 18.1641H26.0123L25.4741 18.545L25.1059 18.9255L24.6255 19.3591L23.2511 18.1641H23.2862Z" fill="#484848"/>
<path fill-rule="evenodd" clip-rule="evenodd" d="M23.1334 17.2187L23.2512 18.1633L22.048 18.6801L21.7217 17.0215L23.083 17.1942L23.1317 17.2051L23.1334 17.2187Z" fill="#BCBCBC"/>
<path fill-rule="evenodd" clip-rule="evenodd" d="M23.1333 17.2196L23.1865 17.2183L23.1316 17.2061L23.1333 17.2196Z" fill="#3A3A3A"/>
<path fill-rule="evenodd" clip-rule="evenodd" d="M24.5892 16.7432L24.8827 16.7968L24.7349 16.9154L24.7666 17.175L23.1865 17.2177L23.1316 17.2054L23.0829 17.1945L23.1345 17.2009L24.5892 16.7432Z" fill="#484848"/>
<mask id="mask0_9764_12893" style="mask-type:luminance" maskUnits="userSpaceOnUse" x="8" y="8" width="21" height="20">
<path d="M8 8H28.0025V28H8V8Z" fill="white"/>
</mask>
<g mask="url(#mask0_9764_12893)">
<path fill-rule="evenodd" clip-rule="evenodd" d="M23.5771 24.811C23.598 24.8619 23.5555 25.0387 23.5555 25.0387L23.2933 25.3001L23.3652 25.0723L23.4711 24.8855L23.3442 24.6242L22.7341 24.4133L22.891 24.6578L23.0604 25.0387L22.8694 25.1573L22.5857 25.4532L22.6706 25.1746L22.8694 24.9705C22.8694 24.9705 22.755 24.7769 22.7341 24.7087C22.7125 24.6409 22.3443 24.396 22.3443 24.396L22.2384 24.2433L22.8202 24.1777L23.6405 24.3623V24.7087L23.5345 24.4809L23.1657 24.3791L23.4711 24.5728C23.4711 24.5728 23.5555 24.7596 23.5771 24.811Z" fill="#484848"/>
<path fill-rule="evenodd" clip-rule="evenodd" d="M22.8203 24.177L22.2385 24.2425L21.2686 23.7529L22.6282 24.1339L22.8203 24.177Z" fill="#7F7F7F"/>
<path fill-rule="evenodd" clip-rule="evenodd" d="M22.2593 12.3965L22.5856 13.2837L21.3262 16.1274L20.8997 17.0901L21.0589 15.5079L21.1473 14.6288L21.2311 13.7965L21.2685 13.826L21.2543 13.7647L22.2593 12.3965Z" fill="#585858"/>
<path fill-rule="evenodd" clip-rule="evenodd" d="M22.5857 13.2832L22.2594 15.4482L21.7218 17.0214L21.3263 16.1269L22.5857 13.2832Z" fill="#545454"/>
<path fill-rule="evenodd" clip-rule="evenodd" d="M22.2593 15.4492L22.525 16.3779L21.7217 17.0224L22.2593 15.4492Z" fill="#454545"/>
<path fill-rule="evenodd" clip-rule="evenodd" d="M22.2595 12.3974L21.2545 13.7656L21.0183 12.7446L21.0461 11.4746C21.3321 11.6933 21.5146 11.8378 21.5316 11.8642C21.6245 12.0069 22.2595 12.3974 22.2595 12.3974Z" fill="#8C8C8C"/>
<path fill-rule="evenodd" clip-rule="evenodd" d="M22.2384 24.2425L21.6373 24.1166L20.8153 23.828L21.2685 23.7529L22.2384 24.2425Z" fill="#D3D3D3"/>
<path fill-rule="evenodd" clip-rule="evenodd" d="M22.0484 18.6807L21.9408 21.013L19.7852 20.6993L19.3291 19.9311L22.0207 18.6934L22.0484 18.6807Z" fill="#707070"/>
<path fill-rule="evenodd" clip-rule="evenodd" d="M22.0054 18.6716L22.0206 18.6925L19.3291 19.9302L20.6768 18.6598L20.7097 18.6289L22.0054 18.6716Z" fill="#707070"/>
<path fill-rule="evenodd" clip-rule="evenodd" d="M21.9407 21.0119L20.4694 21.8496L19.785 20.6982L21.9407 21.0119Z" fill="#9A9A9A"/>
<path fill-rule="evenodd" clip-rule="evenodd" d="M21.5732 24.8267L21.6582 24.5039L22.2383 24.2422L22.3443 24.3949L21.7851 24.589L21.7216 24.7926L21.8276 25.0376L21.5732 24.8267Z" fill="#7C7C7C"/>
<path fill-rule="evenodd" clip-rule="evenodd" d="M21.3262 16.127L21.7217 17.0215L20.8997 17.0897L21.3262 16.127Z" fill="#707070"/>
<path fill-rule="evenodd" clip-rule="evenodd" d="M20.7949 17.9351L20.8997 17.0897L21.7217 17.0215L20.715 18.5837L20.7949 17.9351Z" fill="#454545"/>
<path fill-rule="evenodd" clip-rule="evenodd" d="M21.51 23.499L21.2687 23.7535L20.8155 23.8286L20.2529 23.5995L21.51 23.499Z" fill="#7C7C7C"/>
<path fill-rule="evenodd" clip-rule="evenodd" d="M21.1842 25.8505L20.9423 25.5041L20.6035 25.2832L21.5292 25.4441L21.6794 25.555C21.6794 25.555 21.8488 25.7487 21.8703 25.8337C21.8912 25.9187 21.9337 26.1123 21.9337 26.1805C21.9337 26.2482 21.595 26.4591 21.595 26.4591L21.7643 26.2655L21.6584 25.8505L21.2261 25.6059C21.2261 25.6059 21.438 26.0446 21.459 26.1123C21.4805 26.1805 21.3746 26.3401 21.2896 26.3573C21.208 26.3737 20.9587 26.5496 20.9429 26.5605L21.2686 26.1805L21.1842 25.8505Z" fill="#484848"/>
<path fill-rule="evenodd" clip-rule="evenodd" d="M21.5292 25.4434L20.6036 25.2825L20.5475 24.8584L20.5526 24.8611L20.8364 24.987L21.2897 25.2657L21.5292 25.4434Z" fill="#7C7C7C"/>
<path fill-rule="evenodd" clip-rule="evenodd" d="M21.2319 13.7967L21.1481 14.629L16.4324 12.1521L15.1656 11.3398L18.9687 12.5553L21.1984 13.7708L21.1996 13.7712L21.2319 13.7967Z" fill="#9C9C9C"/>
<path fill-rule="evenodd" clip-rule="evenodd" d="M21.1985 13.7709L18.9687 12.5554L16.4618 11.1886L15.4835 10.249L15.0728 9.83444V9.55579L15.3141 9.41992L16.3683 9.97716L21.1985 13.7709Z" fill="#8C8C8C"/>
<path fill-rule="evenodd" clip-rule="evenodd" d="M21.148 14.6296L21.0597 15.5086L16.8855 13.2186L16.843 13.2095L15.4834 12.3973L15.4199 11.9999L15.6188 11.8809L16.4323 12.1527L21.148 14.6296Z" fill="#8C8C8C"/>
<path fill-rule="evenodd" clip-rule="evenodd" d="M21.0465 11.4738L21.0188 12.7434L21.0176 12.8034L16.4458 8.82422L21.0465 11.4738Z" fill="#9C9C9C"/>
<path fill-rule="evenodd" clip-rule="evenodd" d="M21.0466 11.4746L16.4458 8.82497L15.9575 8.17683L16.1144 8L16.4957 8.10184C16.4957 8.10184 19.7826 10.5087 21.0466 11.4746Z" fill="#707070"/>
<path fill-rule="evenodd" clip-rule="evenodd" d="M16.4743 8.86347L16.446 8.82522L21.0178 12.8044L21.0189 12.7449L21.2551 13.7657L21.2319 13.7976L21.1996 13.7722L21.1985 13.7717L16.3684 9.97796L15.5469 9.0571L15.4619 8.72753L15.7673 8.52344L16.4743 8.86347Z" fill="#585858"/>
<path fill-rule="evenodd" clip-rule="evenodd" d="M20.8935 17.0869L17.3386 14.4596L16.8639 14.0618L16.6191 13.7236L21.0595 15.5078L20.9003 17.09L20.8935 17.0869Z" fill="#545454"/>
<path fill-rule="evenodd" clip-rule="evenodd" d="M20.9 17.0907L20.7952 17.9362L18.6555 16.1357L20.8932 17.0876L20.9 17.0907Z" fill="#454545"/>
<path fill-rule="evenodd" clip-rule="evenodd" d="M20.8934 17.0864L18.6557 16.1346L17.4739 15.1523L17.1057 14.7036L17.0841 14.4082L17.3385 14.4591L20.8934 17.0864Z" fill="#3A3A3A"/>
<path fill-rule="evenodd" clip-rule="evenodd" d="M22.0051 18.6719L20.7095 18.6292L20.7151 18.5837L21.7218 17.0215L22.0482 18.6801L22.0204 18.6928L22.0051 18.6719Z" fill="#595959"/>
<path fill-rule="evenodd" clip-rule="evenodd" d="M20.7094 18.6289L20.6766 18.6598L20.6171 18.658L20.7094 18.6289Z" fill="#A3A3A3"/>
<path fill-rule="evenodd" clip-rule="evenodd" d="M20.71 18.6296L20.6176 18.6587L16.8684 18.5428L17.8944 16.6777L20.71 18.6296Z" fill="#707070"/>
<path fill-rule="evenodd" clip-rule="evenodd" d="M20.6771 18.66L19.3293 19.9305L17.5306 20.5773L17.423 20.4982L16.6101 20.43L16.2628 20.28L18.5073 19.3223L20.6176 18.6582L20.6771 18.66Z" fill="#595959"/>
<path fill-rule="evenodd" clip-rule="evenodd" d="M20.6176 18.6589L18.5074 19.323L16.8684 18.5435L20.6176 18.6589Z" fill="#C8C8C8"/>
<path fill-rule="evenodd" clip-rule="evenodd" d="M20.4682 25.0896L19.9249 24.54L20.5475 24.8591L20.6036 25.2832L20.3623 25.5891L20.3198 25.8846L20.5526 26.2314L20.2138 26.0273L20.121 25.63L20.2563 25.4023L20.4682 25.0896Z" fill="#454545"/>
<path fill-rule="evenodd" clip-rule="evenodd" d="M20.547 24.8545L20.5475 24.8581L19.9249 24.5391L19.8666 24.0654L20.547 24.8545Z" fill="#484848"/>
<path fill-rule="evenodd" clip-rule="evenodd" d="M20.2312 23.5997L20.2063 23.5961L20.4935 21.8906L21.5098 23.4984L20.2528 23.5988L20.2352 23.6002L20.2312 23.5997Z" fill="#484848"/>
<path fill-rule="evenodd" clip-rule="evenodd" d="M20.4942 21.8906L20.207 23.5961L16.6946 23.1006L20.4942 21.8906Z" fill="#A2A2A2"/>
<path fill-rule="evenodd" clip-rule="evenodd" d="M20.4942 21.8913L16.6946 23.1013L18.7624 21.1377L20.4942 21.8913Z" fill="#8C8C8C"/>
<path fill-rule="evenodd" clip-rule="evenodd" d="M20.4939 21.891L18.7621 21.1373L19.7852 20.6982L20.4695 21.8496L20.4684 21.8501L20.4882 21.8815L20.4939 21.891Z" fill="#707070"/>
<path fill-rule="evenodd" clip-rule="evenodd" d="M20.2354 23.6L20.253 23.5986L20.8155 23.8277L19.8666 24.0655L20.2354 23.6Z" fill="#707070"/>
<path fill-rule="evenodd" clip-rule="evenodd" d="M20.2355 23.5996L19.8667 24.0651L19.925 24.5387L19.8667 24.4796L19.4135 24.1333L20.2355 23.5996Z" fill="#D3D3D3"/>
<path fill-rule="evenodd" clip-rule="evenodd" d="M20.2356 23.6L19.4135 24.1337L19.1513 24.1915L18.5819 23.6055L20.2062 23.5996H20.2316L20.2356 23.6Z" fill="#8C8C8C"/>
<path fill-rule="evenodd" clip-rule="evenodd" d="M20.207 23.5961L20.2064 23.5997L18.5822 23.6056H18.5805L16.9438 23.6111L16.6946 23.1006L20.207 23.5961Z" fill="#707070"/>
<path fill-rule="evenodd" clip-rule="evenodd" d="M19.3291 19.9307L19.7852 20.6989L18.7621 21.138L19.3291 19.9307Z" fill="#484848"/>
<path fill-rule="evenodd" clip-rule="evenodd" d="M18.6714 24.2487L19.1512 24.1914C19.1512 24.1914 17.876 26.5932 17.6074 27.1196L18.6714 24.2487Z" fill="#595959"/>
<path fill-rule="evenodd" clip-rule="evenodd" d="M16.4617 11.1894L18.9686 12.5562L15.1656 11.3407L14.9877 11.0112L15.0726 10.7734H15.3774L16.4957 11.2221L16.4617 11.1894Z" fill="#7C7C7C"/>
<path fill-rule="evenodd" clip-rule="evenodd" d="M18.7624 21.1379L16.6946 23.1015L17.0843 21.7829L17.5222 20.6006L17.533 20.6033L18.7624 21.1379Z" fill="#484848"/>
<path fill-rule="evenodd" clip-rule="evenodd" d="M18.6717 24.249L17.6077 27.12C17.5783 27.1781 17.5613 27.2131 17.559 27.22C17.5375 27.2877 17.1058 27.6004 17.1058 27.6004L16.6736 27.6173L18.6717 24.249Z" fill="#8C8C8C"/>
<path fill-rule="evenodd" clip-rule="evenodd" d="M18.5803 23.6055H18.582L19.1513 24.1915L18.6715 24.2487L17.7277 24.3615L18.5803 23.6055Z" fill="#707070"/>
<path fill-rule="evenodd" clip-rule="evenodd" d="M18.5803 23.6055L17.7277 24.3615L17.4507 24.2037L17.1477 24.0314L16.9431 23.6115L16.9437 23.611L18.5803 23.6055Z" fill="#8C8C8C"/>
<path fill-rule="evenodd" clip-rule="evenodd" d="M18.5074 19.3225L16.2629 20.2802L16.1779 20.2434L15.8646 19.9612L16.8685 18.543L18.5074 19.3225Z" fill="#8C8C8C"/>
<path fill-rule="evenodd" clip-rule="evenodd" d="M17.6439 16.5041L17.8949 16.6781L15.5954 16.5277L14.7337 16.4713L14.689 16.4618L12.6993 14.8418L16.5732 15.7886L17.6439 16.5041Z" fill="#BCBCBC"/>
<path fill-rule="evenodd" clip-rule="evenodd" d="M17.7279 24.3613L16.5762 27.7068C16.4838 27.7886 16.3496 27.8959 16.2839 27.8959C16.1779 27.8959 15.6403 27.9804 15.6403 27.9804L15.4109 27.9863L17.7279 24.3613Z" fill="#707070"/>
<path fill-rule="evenodd" clip-rule="evenodd" d="M17.7281 24.3619L15.411 27.9869L14.9079 28.0005L14.4921 27.9641L14.4111 27.866L17.4511 24.2041L17.7281 24.3619Z" fill="#595959"/>
<path fill-rule="evenodd" clip-rule="evenodd" d="M17.4187 15.137L17.6436 16.5029L16.5728 15.7875L14.3453 14.2988L17.4187 15.137Z" fill="#707070"/>
<path fill-rule="evenodd" clip-rule="evenodd" d="M17.5327 20.6034L17.522 20.6007L17.5304 20.5775L19.3291 19.9307L18.7621 21.138L17.5327 20.6034Z" fill="#8D8D8D"/>
<path fill-rule="evenodd" clip-rule="evenodd" d="M17.474 15.1528L18.6558 16.135L20.7955 17.9354L20.7156 18.5841L20.71 18.6296L17.8944 16.6777L17.6434 16.5036L17.4185 15.1377L17.474 15.1528Z" fill="#595959"/>
<path fill-rule="evenodd" clip-rule="evenodd" d="M17.4512 24.2041L14.4113 27.8659L14.0391 27.8964L13.5649 27.7532L13.3955 27.4305L17.4512 24.2041Z" fill="#8C8C8C"/>
<path fill-rule="evenodd" clip-rule="evenodd" d="M17.4512 24.2045L13.3955 27.4309L16.9436 23.6123L17.1481 24.0323L17.4512 24.2045Z" fill="#707070"/>
<path fill-rule="evenodd" clip-rule="evenodd" d="M16.9436 23.6111L12.6709 26.8752L14.3019 25.2993L16.6949 23.1006L16.9436 23.6111Z" fill="#9A9A9A"/>
<path fill-rule="evenodd" clip-rule="evenodd" d="M16.9436 23.6123L13.3954 27.4309L12.9847 27.4818L12.595 27.2882L12.6375 26.9078L12.6698 26.8764L12.6709 26.8759L16.9436 23.6123Z" fill="#8C8C8C"/>
<path fill-rule="evenodd" clip-rule="evenodd" d="M17.8945 16.6778L16.8685 18.5428L16.8526 18.5355L15.595 16.5273L17.8945 16.6778Z" fill="#8C8C8C"/>
<path fill-rule="evenodd" clip-rule="evenodd" d="M16.8681 18.543L16.8686 18.5435L15.8648 19.9617L15.8308 19.9312L15.1657 19.9484L14.9034 19.8126L14.6195 19.5848L14.4077 19.323L14.466 19.3044L16.8681 18.543Z" fill="#9A9A9A"/>
<path fill-rule="evenodd" clip-rule="evenodd" d="M16.8527 18.5358L16.8681 18.5431L14.4659 19.3045L15.1288 17.7158L16.8527 18.5358Z" fill="#707070"/>
<path fill-rule="evenodd" clip-rule="evenodd" d="M16.6736 27.6173C16.6736 27.6173 16.6328 27.6573 16.5762 27.7072L17.7279 24.3618L18.6717 24.249L16.6736 27.6173Z" fill="#9A9A9A"/>
<path fill-rule="evenodd" clip-rule="evenodd" d="M16.5886 13.6819L16.5676 13.1924L16.8429 13.2092L16.8855 13.2183L21.0596 15.5084L16.6197 13.7243L16.5886 13.6819Z" fill="#454545"/>
<path fill-rule="evenodd" clip-rule="evenodd" d="M14.3454 14.2992L16.5726 15.7877L12.6993 14.841L9.52881 13.2666L14.3454 14.2992Z" fill="#D3D3D3"/>
<path fill-rule="evenodd" clip-rule="evenodd" d="M15.1293 17.7156H15.0749H11.6464C11.6464 17.7156 10.4351 17.1752 10.4136 17.1238C10.3926 17.0729 10.2023 16.7434 10.2023 16.7434L10.2442 16.5225L13.6683 17.1438L13.7289 17.1547L15.1293 17.7156Z" fill="#D3D3D3"/>
<path fill-rule="evenodd" clip-rule="evenodd" d="M15.129 17.7158L14.4661 19.3045L14.4078 19.3231L13.8912 19.289L13.4804 19.1704L13.2175 18.9422L13.1201 18.624L15.0746 17.7158H15.129Z" fill="#9A9A9A"/>
<path fill-rule="evenodd" clip-rule="evenodd" d="M15.0748 17.7158L13.1203 18.624L13.1118 18.5958L12.015 18.4767L11.7522 18.1472L11.6462 17.7158H15.0748Z" fill="#707070"/>
<path fill-rule="evenodd" clip-rule="evenodd" d="M12.6993 14.8424L14.6886 16.4622L14.615 16.4463L9.51192 14.3711L8.7704 13.8861L8.16937 13.2508L8.021 12.8635L8.12692 12.6768L8.66448 12.9213L9.52888 13.268L12.6993 14.8424Z" fill="#484848"/>
<path fill-rule="evenodd" clip-rule="evenodd" d="M13.6684 17.143L10.2443 16.5217L9.27441 16.2939L14.4847 16.4172L14.6156 16.4449L14.6892 16.4608L14.734 16.4703L13.6684 17.143Z" fill="#707070"/>
<path fill-rule="evenodd" clip-rule="evenodd" d="M13.668 17.1425L14.7336 16.4697L15.5953 16.5261L16.853 18.5343L15.129 17.7143L13.7286 17.1534L13.668 17.1425Z" fill="#9A9A9A"/>
<path fill-rule="evenodd" clip-rule="evenodd" d="M14.3457 14.3008L9.52913 13.268L8.41078 12.153L8.36829 11.8643L8.51672 11.7217L10.2871 12.7953C10.2871 12.7953 12.5957 13.6994 12.7226 13.7676C12.8495 13.8353 13.786 14.148 13.786 14.148L14.3457 14.3008Z" fill="#9A9A9A"/>
<path fill-rule="evenodd" clip-rule="evenodd" d="M14.4842 16.4174L9.6495 15.3838L9.69824 15.3902L8.49566 14.8907L8.12692 14.4594L8 14.0958L8.16941 13.9531L9.57078 14.4085L9.51192 14.3699L14.615 16.4451L14.4842 16.4174Z" fill="#9A9A9A"/>
<path fill-rule="evenodd" clip-rule="evenodd" d="M9.64907 15.3844H9.64969L14.4849 16.4181L9.2746 16.2949L8.79195 15.8976L8.62256 15.4317L8.686 15.2549L9.64907 15.3844Z" fill="#484848"/>
</g>
</svg>
