<?xml version="1.0" encoding="UTF-8"?>
<svg xmlns="http://www.w3.org/2000/svg" id="Layer_1" data-name="Layer 1" viewBox="0 0 24 24" width="512" height="512"><path d="M16.388,10.088c1-1.072,1.612-2.51,1.612-4.088,0-3.309-2.691-6-6-6H5.5c-.829,0-1.5,.671-1.5,1.5s.671,1.5,1.5,1.5h6.5c1.654,0,3,1.346,3,3s-1.346,3-3,3H7.5c-.829,0-1.5,.671-1.5,1.5s.671,1.5,1.5,1.5h5c2.481,0,4.5,2.019,4.5,4.5s-2.019,4.5-4.5,4.5H5.5c-.829,0-1.5,.671-1.5,1.5s.671,1.5,1.5,1.5h7c4.136,0,7.5-3.364,7.5-7.5,0-2.714-1.448-5.095-3.612-6.412Z"/></svg>
