<?xml version="1.0" encoding="UTF-8"?>
<svg xmlns="http://www.w3.org/2000/svg" id="Layer_1" data-name="Layer 1" viewBox="0 0 24 24" width="512" height="512"><path d="M18.5,24H6.893c-1.064,0-2.039-.582-2.544-1.517-.508-.942-.458-2.083,.131-2.98,1.198-1.825,3.409-3.025,5.75-4.296,4.335-2.354,7.146-4.179,6.728-7.962-.264-2.38-2.441-4.245-4.958-4.245-2.757,0-5.001,2.244-5.001,5.001v.496c.002,.829-.667,1.501-1.496,1.503h-.003c-.827,0-1.499-.669-1.5-1.497v-.499c0-4.415,3.588-8.004,8-8.004,4.09,0,7.503,2.973,7.939,6.915,.671,6.07-4.291,8.764-8.277,10.929-1.916,1.04-3.73,2.025-4.569,3.157h11.407c.829,0,1.5,.671,1.5,1.5s-.671,1.5-1.5,1.5Z"/></svg>
