<svg width="18" height="16" viewBox="0 0 18 16" fill="none" xmlns="http://www.w3.org/2000/svg">
<g clip-path="url(#clip0_1003_496)">
<path d="M7.06811 15.524L11.8931 9.48095H16.4731C16.6722 9.48827 16.8707 9.45538 17.0567 9.38425C17.2428 9.31312 17.4126 9.2052 17.556 9.06696C17.6995 8.92871 17.8135 8.76297 17.8915 8.57964C17.9694 8.39631 18.0095 8.19916 18.0095 7.99995C18.0095 7.80075 17.9694 7.6036 17.8915 7.42027C17.8135 7.23694 17.6995 7.0712 17.556 6.93295C17.4126 6.79471 17.2428 6.68679 17.0567 6.61566C16.8707 6.54453 16.6722 6.51164 16.4731 6.51895H11.8931L7.06811 0.474955C7.06811 0.474955 6.73211 0.00295474 6.39611 0.00295474H5.11411C5.03483 -0.00278074 4.95551 0.0135185 4.88492 0.05005C4.81432 0.0865816 4.75521 0.141922 4.71411 0.209955C4.70601 0.455917 4.75855 0.700094 4.86711 0.920955L6.73011 6.52095H3.34711L1.66311 4.35595C1.61503 4.28838 1.55071 4.234 1.47609 4.19783C1.40146 4.16165 1.31893 4.14484 1.23611 4.14895H0.289105C0.167105 4.14895 -0.110895 4.17895 0.0451053 4.56395C0.201105 4.94895 1.51011 8.00295 1.51011 8.00295C1.51011 8.00295 0.197105 11.021 0.0471051 11.436C-0.102895 11.851 0.200105 11.851 0.291105 11.851H1.23811C1.32093 11.8551 1.40346 11.8383 1.47809 11.8021C1.55271 11.7659 1.61703 11.7115 1.66511 11.644L3.34711 9.48095H6.73211L4.86911 15.081C4.76055 15.3018 4.70801 15.546 4.71611 15.792C4.75428 15.8626 4.81286 15.9202 4.8842 15.9571C4.95555 15.994 5.03636 16.0086 5.11611 15.999H6.39611C6.73211 15.999 7.06811 15.525 7.06811 15.525V15.524Z" fill="black"/>
</g>
<defs>
<clipPath id="clip0_1003_496">
<rect width="18" height="16" fill="white"/>
</clipPath>
</defs>
</svg>
