<svg width="71" height="71" viewBox="0 0 71 71" fill="none" xmlns="http://www.w3.org/2000/svg">
<g filter="url(#filter0_i_10687_7331)">
<g filter="url(#filter1_d_10687_7331)">
<path d="M33.5 67C51.4493 67 66 52.4493 66 34.5C66 16.5507 51.4493 2 33.5 2C15.5507 2 1 16.5507 1 34.5C1 52.4493 15.5507 67 33.5 67Z" fill="#B4B4B4"/>
</g>
</g>
<path d="M33.7731 37.3573L33.6667 37.4471V46.4413L39.1745 41.8505L41.78 44.0174L33.0671 51.2801C32.5703 51.694 31.8792 51.7828 31.2936 51.5087C30.7081 51.2344 30.3338 50.6464 30.3337 49.9999V40.2245L23.0671 46.2801C22.3599 46.8693 21.3086 46.7734 20.7194 46.0663C20.1305 45.3592 20.2264 44.3089 20.9333 43.7196L30.3337 35.8856V34.495L33.7731 37.3573ZM31.2936 18.4901C31.8792 18.216 32.5703 18.3057 33.0671 18.7196L43.0671 27.0526C43.4471 27.3693 43.6667 27.8382 43.6667 28.3329C43.6667 28.8275 43.4471 29.2965 43.0671 29.6132L36.6032 34.9999L43.0671 40.3856C43.0769 40.3938 43.0857 40.4036 43.0954 40.412L23.0358 23.6962C23.0459 23.7042 23.0571 23.7113 23.0671 23.7196L30.3337 29.7743V19.9999C30.3337 19.3532 30.708 18.7644 31.2936 18.4901ZM33.6667 32.5526L33.9997 32.8299L39.3971 28.3329L33.6667 23.5575V32.5526Z" fill="white"/>
<path d="M22 25.2002L46 45.2002" stroke="white" stroke-width="2.6" stroke-linecap="round"/>
<defs>
<filter id="filter0_i_10687_7331" x="1" y="2" width="65" height="69" filterUnits="userSpaceOnUse" color-interpolation-filters="sRGB">
<feFlood flood-opacity="0" result="BackgroundImageFix"/>
<feBlend mode="normal" in="SourceGraphic" in2="BackgroundImageFix" result="shape"/>
<feColorMatrix in="SourceAlpha" type="matrix" values="0 0 0 0 0 0 0 0 0 0 0 0 0 0 0 0 0 0 127 0" result="hardAlpha"/>
<feOffset dy="4"/>
<feGaussianBlur stdDeviation="2"/>
<feComposite in2="hardAlpha" operator="arithmetic" k2="-1" k3="1"/>
<feColorMatrix type="matrix" values="0 0 0 0 0 0 0 0 0 0 0 0 0 0 0 0 0 0 0.08 0"/>
<feBlend mode="normal" in2="shape" result="effect1_innerShadow_10687_7331"/>
</filter>
<filter id="filter1_d_10687_7331" x="0" y="0" width="71" height="71" filterUnits="userSpaceOnUse" color-interpolation-filters="sRGB">
<feFlood flood-opacity="0" result="BackgroundImageFix"/>
<feColorMatrix in="SourceAlpha" type="matrix" values="0 0 0 0 0 0 0 0 0 0 0 0 0 0 0 0 0 0 127 0" result="hardAlpha"/>
<feOffset dx="2" dy="1"/>
<feGaussianBlur stdDeviation="1.5"/>
<feColorMatrix type="matrix" values="0 0 0 0 0 0 0 0 0 0 0 0 0 0 0 0 0 0 0.059 0"/>
<feBlend mode="normal" in2="BackgroundImageFix" result="effect1_dropShadow_10687_7331"/>
<feBlend mode="normal" in="SourceGraphic" in2="effect1_dropShadow_10687_7331" result="shape"/>
</filter>
</defs>
</svg>
