<svg width="17" height="15" viewBox="0 0 17 15" fill="none" xmlns="http://www.w3.org/2000/svg">
<path opacity="0.25" d="M11.4062 14.7344H10.9219V13.4297H11.2422C12.3047 13.4297 12.7266 12.9609 12.7266 11.7578V9.70312C12.7266 8.57031 13.3438 7.96094 14.5547 7.82812V7.61719C13.3438 7.49219 12.7266 6.875 12.7266 5.75V3.70312C12.7266 2.50781 12.3047 2.03125 11.2422 2.03125H10.9219V0.726562H11.4062C13.4453 0.726562 14.3281 1.59375 14.3281 3.49219V5.21875C14.3281 6.4375 14.7812 6.85938 16.0781 6.85938V8.59375C14.7812 8.59375 14.3281 9.01562 14.3281 10.2266V11.9531C14.3281 13.8594 13.4141 14.7344 11.4062 14.7344Z" fill="black"/>
<path opacity="0.25" d="M6.84375 14.7344C4.83594 14.7344 3.92188 13.8594 3.92188 11.9531V10.2266C3.92188 9.01562 3.46875 8.59375 2.17188 8.59375V6.85938C3.46875 6.85938 3.92188 6.4375 3.92188 5.21875V3.49219C3.92188 1.59375 4.80469 0.726562 6.84375 0.726562H7.32812V2.03125H7.00781C5.94531 2.03125 5.52344 2.50781 5.52344 3.70312V5.75C5.52344 6.875 4.90625 7.49219 3.69531 7.61719V7.82812C4.90625 7.96094 5.52344 8.57031 5.52344 9.70312V11.7578C5.52344 12.9609 5.94531 13.4297 7.00781 13.4297H7.32812V14.7344H6.84375Z" fill="black"/>
<path d="M3.5 11.5L1 14M3.5 11.5L1 9M3.5 11.5L6 9M3.5 11.5L6 14" stroke="black" stroke-width="2" stroke-linecap="round" stroke-linejoin="round"/>
</svg>
