<svg width="17" height="15" viewBox="0 0 17 15" fill="none" xmlns="http://www.w3.org/2000/svg">
<path opacity="0.25" d="M8.45511 14.2428C8.14374 14.2428 7.83237 14.0995 7.6335 13.8128L7.25049 13.2608C6.79039 12.5977 7.26498 11.6908 8.0721 11.6908H8.83812C9.64524 11.6908 10.1198 12.5977 9.65973 13.2608L9.27672 13.8128C9.07785 14.0995 8.76648 14.2428 8.45511 14.2428Z" fill="black"/>
<path opacity="0.25" d="M10.946 9.70997C10.6605 9.29911 10.2759 8.96695 9.82788 8.74425C9.37986 8.52155 8.88296 8.41551 8.38306 8.43597C7.90131 8.40275 7.41969 8.50433 6.99243 8.72935C6.56518 8.95437 6.20899 9.29393 5.96387 9.70997" stroke="black" stroke-width="2" stroke-linecap="round"/>
<path opacity="0.25" d="M13.454 6.95494C12.1124 5.57607 10.2869 4.77312 8.36389 4.71594C7.43077 4.73449 6.51125 4.94252 5.66101 5.32742C4.81077 5.71232 4.0475 6.26604 3.41785 6.95494" stroke="black" stroke-width="2" stroke-linecap="round"/>
<path opacity="0.25" d="M16 4.2C13.902 2.28192 11.2036 1.15097 8.36499 1C5.59852 1.11824 2.97426 2.25845 1 4.2" stroke="black" stroke-width="2" stroke-linecap="round"/>
<path d="M4.5 11.5L2 14L4.5 11.5ZM4.5 11.5L2 9L4.5 11.5ZM4.5 11.5L7 9L4.5 11.5ZM4.5 11.5L7 14L4.5 11.5Z" stroke="black" stroke-width="2" stroke-linecap="round" stroke-linejoin="round"/>
</svg>
